<?xml version="1.0" encoding="UTF-8" standalone="no"?>
<svg
   xmlns:dc="http://purl.org/dc/elements/1.1/"
   xmlns:cc="http://creativecommons.org/ns#"
   xmlns:rdf="http://www.w3.org/1999/02/22-rdf-syntax-ns#"
   xmlns:svg="http://www.w3.org/2000/svg"
   xmlns="http://www.w3.org/2000/svg"
   xmlns:sodipodi="http://sodipodi.sourceforge.net/DTD/sodipodi-0.dtd"
   xmlns:inkscape="http://www.inkscape.org/namespaces/inkscape"
   width="50mm"
   height="50mm"
   viewBox="0 0 50 50"
   version="1.1"
   id="svg8"
   inkscape:version="1.0.1 (3bc2e813f5, 2020-09-07)"
   sodipodi:docname="badgrlogo.svg">
  <defs
     id="defs2">
    <inkscape:path-effect
       effect="bend_path"
       id="path-effect2062"
       is_visible="true"
       lpeversion="1"
       bendpath="m 24.066183,62.596359 c -1.104209,-5.560084 -0.635813,-11.423701 1.33707,-16.737979 1.972883,-5.314262 5.44425,-10.063019 9.909199,-13.555604 4.464935,-3.492572 9.909885,-5.718315 15.54285,-6.353505 5.632966,-0.63518 11.436844,0.322135 16.567429,2.732697 5.130597,2.410566 9.572306,6.267055 12.679111,11.008531 3.106778,4.741465 4.869192,10.353524 5.030903,16.0199 0.161686,5.666351 -1.277824,11.369797 -4.109162,16.280724 -2.831363,4.910937 -7.045924,9.014451 -12.030704,11.713678 -7.603527,4.117255 -16.972585,4.827458 -25.109878,1.903406 -8.137276,-2.924046 -14.91144,-9.435149 -18.155324,-17.450311"
       prop_scale="1"
       scale_y_rel="false"
       vertical="false"
       hide_knot="false" />
    <inkscape:path-effect
       effect="bend_path"
       id="path-effect2060"
       is_visible="true"
       lpeversion="1"
       bendpath="M 24.637501,60.866201 C 23.533297,55.306115 24.00169,49.442499 25.97457,44.128222 c 1.972889,-5.31426 5.444251,-10.063019 9.9092,-13.555604 4.464932,-3.492573 9.909882,-5.718317 15.54286,-6.353507 5.632966,-0.63518 11.436844,0.322137 16.567429,2.732698 5.130598,2.410567 9.572306,6.267056 12.679111,11.008535 3.106779,4.74146 4.869192,10.353521 5.030904,16.019897 0.161685,5.666349 -1.277825,11.369796 -4.109175,16.280722 -2.831351,4.910938 -7.045912,9.014453 -12.030692,11.713681 -7.603526,4.117245 -16.972585,4.827461 -25.109878,1.903408 C 36.317037,80.954003 29.542881,74.4429 26.299001,66.427738"
       prop_scale="1"
       scale_y_rel="false"
       vertical="false"
       hide_knot="false" />
    <inkscape:path-effect
       effect="bend_path"
       id="path-effect995"
       is_visible="true"
       lpeversion="1"
       bendpath="m 92.051349,82.917229 c -0.849636,-4.278242 -0.489228,-8.790038 1.028816,-12.879141 1.518052,-4.08909 4.189113,-7.743052 7.624695,-10.430443 3.43557,-2.687382 7.62522,-4.399994 11.95955,-4.888745 4.33432,-0.488743 8.80015,0.24787 12.74791,2.102691 3.94777,1.854826 7.36547,4.822225 9.75602,8.470585 2.39053,3.648346 3.74663,7.966581 3.87106,12.326609 0.12441,4.360007 -0.98323,8.748559 -3.16183,12.527302 -2.1786,3.778751 -5.42152,6.936226 -9.25709,9.013164 -5.85058,3.168039 -13.05966,3.714519 -19.32095,1.464589 -6.26129,-2.249928 -11.473706,-7.259936 -13.969729,-13.427252"
       prop_scale="1"
       scale_y_rel="false"
       vertical="false"
       hide_knot="false" />
    <inkscape:path-effect
       effect="bend_path"
       id="path-effect1929"
       is_visible="true"
       lpeversion="1"
       bendpath="m 90.694577,83.331342 c -0.84964,-4.278241 -0.48923,-8.790037 1.028817,-12.879141 1.518047,-4.089092 4.189112,-7.743052 7.624694,-10.430443 3.435572,-2.687381 7.625222,-4.399993 11.959542,-4.888744 4.33432,-0.488743 8.80015,0.247869 12.74791,2.102691 3.94777,1.854825 7.36547,4.822224 9.75602,8.470582 2.39053,3.648349 3.74663,7.966583 3.87106,12.326611 0.12441,4.360008 -0.98323,8.74856 -3.16182,12.527303 -2.17861,3.778751 -5.42153,6.936225 -9.2571,9.013162 -5.85058,3.168047 -13.05966,3.714517 -19.32095,1.464587 C 99.681473,98.788025 94.469051,93.778017 91.973024,87.610701"
       prop_scale="1"
       scale_y_rel="false"
       vertical="false"
       hide_knot="false" />
    <clipPath
       clipPathUnits="userSpaceOnUse"
       id="clipPath2077">
      <rect
         style="opacity:0.985;fill:#00ff00;fill-opacity:0.988235;stroke:none;stroke-width:0.0736509"
         id="rect2079"
         width="28.053713"
         height="13.795664"
         x="58.591713"
         y="-66.232529"
         transform="matrix(-0.30004989,0.95392351,-0.9530627,-0.302773,0,0)" />
    </clipPath>
  </defs>
  <sodipodi:namedview
     id="base"
     pagecolor="#ffffff"
     bordercolor="#666666"
     borderopacity="1.0"
     inkscape:pageopacity="0.0"
     inkscape:pageshadow="2"
     inkscape:zoom="0.49497475"
     inkscape:cx="88.53415"
     inkscape:cy="15.186945"
     inkscape:document-units="mm"
     inkscape:current-layer="layer1"
     inkscape:document-rotation="0"
     showgrid="false"
     inkscape:window-width="1920"
     inkscape:window-height="1003"
     inkscape:window-x="1920"
     inkscape:window-y="27"
     inkscape:window-maximized="1" />
  <metadata
     id="metadata5">
    <rdf:RDF>
      <cc:Work
         rdf:about="">
        <dc:format>image/svg+xml</dc:format>
        <dc:type
           rdf:resource="http://purl.org/dc/dcmitype/StillImage" />
        <dc:title></dc:title>
      </cc:Work>
    </rdf:RDF>
  </metadata>
  <g
     inkscape:label="Layer 1"
     inkscape:groupmode="layer"
     id="layer1">
    <rect
       style="fill:#000000;stroke:#000000;stroke-width:1.43622"
       id="rect863"
       width="48.793159"
       height="48.793159"
       x="0.75144833"
       y="0.69083565"
       rx="6.6066232" />
    <path
       style="fill:#ffffff;stroke:none;stroke-width:5.39933"
       d="m -270.25511,84.543707 c 4.56697,-1.658971 8.0579,-3.261986 7.75763,-3.562257 -0.30026,-0.300271 -5.53984,0.409557 -11.64351,1.577386 -27.81377,5.321643 -66.6809,0.102 -80.5653,-10.819457 -3.74915,-2.949072 -1.97562,-3.778986 2.71318,-1.269615 1.54348,0.826029 4.76133,1.749315 7.15079,2.051715 7.34937,0.930114 13.39164,2.467057 14.14078,3.596914 0.39286,0.592514 4.89286,1.453228 10,1.912714 6.01115,0.540814 8.02627,0.399729 5.71429,-0.400071 -3.19231,-1.104357 -2.96485,-1.255243 2.14286,-1.421357 8.02185,-0.260886 4.16272,-2.102615 -10.71429,-5.113272 -11.7243,-2.372643 -17.06749,-4.143828 -31.98791,-10.603543 -10.12257,-4.382514 -7.27769,-5.044528 3.26637,-0.7601 17.2751,7.0195 31.41353,9.437943 53.51465,9.153929 19.57062,-0.251514 32.99255,-2.008729 31.67136,-4.146443 -0.8761,-1.417571 9.33296,-4.442014 11.27124,-3.339114 0.8525,0.485071 1.10623,0.388685 0.56385,-0.2142 -0.54237,-0.602872 2.67191,-3.045443 7.14285,-5.427915 10.1476,-5.407442 25.59163,-17.160757 23.4761,-17.865942 -0.86777,-0.289258 2.49253,-5.5675 7.46733,-11.729429 12.10086,-14.988471 16.31716,-22.4537429 21.80259,-38.603114 2.53934,-7.475972 4.63847,-12.949815 4.66473,-12.1641 0.0263,0.785714 0.6709,0.464285 1.43255,-0.714286 0.76166,-1.178571 1.34949,-3.107143 1.30629,-4.285714 -0.0511,-1.396672 -0.4912,-1.147943 -1.26363,0.714285 -0.66813,1.610786 -0.85018,-4.009057 -0.41734,-12.882885 1.66571,-34.149553 -9.2549,-62.219126 -32.25039,-82.894046 -3.89424,-3.50126 -7.7531,-6.36593 -8.57525,-6.36593 -0.82215,0 -2.33483,-1.17512 -3.36153,-2.61138 -1.02669,-1.43626 -4.75957,-4.37665 -8.29529,-6.5342 -3.53571,-2.15754 -9.91337,-6.44671 -14.17256,-9.53147 -4.2592,-3.08476 -9.08062,-5.63144 -10.71428,-5.65928 -1.63367,-0.0278 -4.57744,-0.96935 -6.54173,-2.09224 -4.20124,-2.40164 -9.35919,-3.05957 -5.71429,-0.72888 1.436,0.91822 -0.3228,1.08198 -5.33176,0.49642 -5.12873,-0.59955 -8.16998,-0.2967 -9.69019,0.96497 -1.65214,1.37115 -5.92721,1.61414 -16.81109,0.95552 -14.31089,-0.86601 -14.83103,-0.78661 -26.67187,4.07151 -11.12609,4.56488 -21.07604,6.97069 -13.2808,3.21118 3.31698,-1.59971 4.34928,-3.97072 1.7288,-3.97072 -0.81701,0 -3.91359,1.23873 -6.88128,2.75273 -5.69008,2.90287 -10.24998,7.24727 -7.60675,7.24727 0.83555,0 1.91649,-0.64285 2.40209,-1.42857 0.4856,-0.78571 1.86413,-1.42857 3.0634,-1.42857 1.2792,0 -1.11763,3.37799 -5.79859,8.17228 -4.3885,4.49476 -7.9791,8.89512 -7.9791,9.77859 0,0.88347 -1.35412,2.83094 -3.00916,4.32772 -4.06204,3.67362 -8.781,13.07707 -6.88042,13.7106 0.81664,0.27221 -0.41351,3.11548 -2.73367,6.31836 -2.32016,3.202893 -5.26702,7.851107 -6.54858,10.329371 -2.43722,4.713056 -6.21331,6.437585 -4.39227,2.005936 1.42816,-3.475554 4.82896,-15.652097 6.28405,-22.499997 0.66782,-3.14286 1.70845,-6.90426 2.31252,-8.35866 1.04095,-2.50628 0.87261,-2.52766 -3.22374,-0.40936 -4.33735,2.24293 -10.69525,11.1719 -10.15413,14.26034 0.15905,0.9078 -0.46601,4.22196 -1.38902,7.36482 -1.92529,6.555566 -2.17536,10.790266 -0.62272,10.545113 2.6891,-0.424596 2.95393,0.481743 1.40604,4.81203 l -1.65962,4.642857 -0.76607,-3.889167 c -0.5471,-2.777515 -1.30601,-3.551832 -2.65509,-2.708985 -2.94014,1.836875 -4.46828,10.979476 -4.50547,26.955295 -0.0346,14.887686 -1.82641,19.195271 -3.86244,9.285714 -1.80376,-8.779088 -1.02254,-24.750484 1.67704,-34.285714 1.3903,-4.910715 3.0729,-8.928572 3.73911,-8.928572 1.80728,0 7.23011,-11.302611 6.21267,-12.948851 -0.48346,-0.78227 0.8794,-4.42283 3.02859,-8.09014 2.53609,-4.3275 3.32706,-6.86135 2.25357,-7.21918 -2.60351,-0.86784 -1.96735,-3.39398 2.58139,-10.2506 2.32277,-3.50126 3.93354,-6.65559 3.5795,-7.00963 -0.91666,-0.91666 -6.70813,5.63871 -9.24351,10.46274 -1.17857,2.24245 -3.12766,4.33566 -4.3313,4.65157 -1.20365,0.31591 -3.4282,2.41898 -4.94345,4.67349 -2.92229,4.34803 -5.96688,4.47177 -3.65312,0.14847 0.87034,-1.62624 0.86696,-3.05021 -0.009,-3.92648 -0.8808,-0.8808 0.47322,-3.53398 3.76782,-7.38298 4.5646,-5.33271 5.81319,-7.78918 6.20292,-12.2036 0.0601,-0.68092 1.37138,-0.908 2.91392,-0.50462 2.87851,0.75275 6.48634,-2.06161 4.80203,-3.74592 -0.51699,-0.51699 -0.0798,-0.93998 0.97156,-0.93998 1.05136,0 4.65302,-2.86116 8.0037,-6.35812 5.96249,-6.2228 19.40098,-14.32566 21.04024,-12.6864 0.45501,0.45501 2.98352,-0.44493 5.61892,-1.99985 2.6354,-1.55493 8.28785,-3.64797 12.561,-4.6512 4.27315,-1.00324 8.41222,-2.22109 9.19793,-2.70634 3.24995,-2.00713 20.8508,-4.79326 32.85714,-5.20113 18.09354,-0.61465 19.40535,-0.80852 14.28572,-2.11125 -2.35715,-0.59979 -11.67857,-1.24498 -20.71429,-1.43375 -15.78796,-0.32984 -16.09434,-0.39392 -7.85714,-1.64337 4.71428,-0.71509 13.55508,-1.11884 19.64621,-0.89723 10.87423,0.39563 14.20459,-0.56615 7.85379,-2.2681 -1.76786,-0.47376 -8.03572,-0.9358 -13.92857,-1.02674 -9.55492,-0.14745 -10.21327,-0.32612 -6.0841,-1.6511 3.46921,-1.11322 8.84225,-0.8538 21.42857,1.03458 27.58997,4.13945 44.62504,9.09886 57.76706,16.81769 3.67562,2.15884 7.41,3.92516 8.2986,3.92516 0.8886,0 1.25392,0.58527 0.81182,1.30058 -0.44208,0.71532 2.9177,4.41175 7.4662,8.21429 11.36503,9.50115 21.9075,21.41785 29.82169,33.70902 3.66449,5.69115 7.8417,12.08449 9.2827,14.20743 3.0554,4.50133 8.64051,21.017966 11.2566,33.288717 2.39846,11.249963 2.4523,43.428867 0.0909,54.279967 -2.77616,12.756557 -9.99206,34.7424574 -14.06595,42.857143 -1.9723,3.928572 -5.91365,9.3977 -8.75858,12.153629 -2.84492,2.755928 -10.52624,10.956543 -17.0696,18.223585 -18.26127,20.2809 -46.4855,37.17 -66.16374,39.591715 l -6.22495,0.766085 8.30357,-3.016314 z m -8.10943,-8.332914 c 2.21993,-1.3779 1.86001,-1.498143 -2.1633,-0.7227 -2.65446,0.511628 -10.69017,1.462457 -17.85714,2.112957 l -13.03084,1.182729 15.19414,-0.460043 c 8.35677,-0.253015 16.39249,-1.203843 17.85714,-2.112943 z m 111.46626,-141.885786 c -0.3963,-0.982143 -0.72056,-0.178571 -0.72056,1.785714 0,1.964286 0.32426,2.767858 0.72056,1.785715 0.3963,-0.982143 0.3963,-2.589286 0,-3.571429 z m -2.29936,-15.873303 c -1.50467,-3.95757 -3.32785,-5.322181 -2.17335,-1.626697 0.3682,1.178571 1.00601,3.199154 1.41737,4.490183 0.41134,1.29103 1.0722,2.023043 1.46854,1.626697 0.39634,-0.396344 0.0757,-2.416927 -0.71256,-4.490183 z m -131.14675,-76.144244 c -0.98215,-0.3963 -2.58929,-0.3963 -3.57143,0 -0.98215,0.39631 -0.17857,0.72055 1.78571,0.72055 1.96429,0 2.76786,-0.32424 1.78572,-0.72055 z"
       id="path968"
       transform="scale(0.26458333)" />
    <g
       id="g1009"
       transform="translate(0,0.52916667)">
      <path
         style="fill:#000000;fill-opacity:1;stroke:#000000;stroke-width:0.374892;stroke-opacity:1"
         d="m 25.155071,46.812003 c -0.218218,-0.134933 -0.474873,-0.270952 -0.570343,-0.302266 -0.09547,-0.03131 -0.173583,-0.09636 -0.173583,-0.144553 0,-0.04819 -0.08927,-0.08762 -0.198381,-0.08762 -0.109109,0 -0.19838,-0.03922 -0.19838,-0.08716 0,-0.04793 -0.133907,-0.142622 -0.29757,-0.210414 -0.163665,-0.06779 -0.297571,-0.162479 -0.297571,-0.210415 0,-0.04793 -0.08927,-0.08716 -0.198382,-0.08716 -0.109109,0 -0.19838,-0.03943 -0.19838,-0.08762 0,-0.04819 -0.07811,-0.112392 -0.173582,-0.142669 -0.169953,-0.05389 -0.720207,-0.365927 -0.818319,-0.46404 -0.02728,-0.02728 -0.156141,-0.109587 -0.286364,-0.18291 -0.364534,-0.205258 -0.868205,-0.491014 -1.251084,-0.709802 l -0.694333,-0.396756 c -0.190941,-0.109111 -0.514549,-0.29288 -0.719129,-0.408374 -0.204579,-0.115497 -0.490441,-0.294041 -0.635251,-0.396763 -0.144808,-0.102722 -0.285311,-0.186767 -0.312229,-0.186767 -0.02692,0 -0.342831,-0.178541 -0.702026,-0.39676 -0.359195,-0.218218 -0.680473,-0.396762 -0.713955,-0.396762 -0.03347,0 -0.179352,-0.08363 -0.32416,-0.18584 -0.144808,-0.102214 -0.486466,-0.306093 -0.759238,-0.453066 -0.272774,-0.146972 -0.652177,-0.357848 -0.843117,-0.468612 -0.190942,-0.110764 -0.525708,-0.297445 -0.743927,-0.414849 -0.218219,-0.117404 -0.419079,-0.235778 -0.446355,-0.263056 -0.02728,-0.02728 -0.228139,-0.142231 -0.446358,-0.255452 -0.555901,-0.288427 -0.884301,-0.478717 -0.942306,-0.546016 -0.02728,-0.03165 -0.19466,-0.120655 -0.371964,-0.197796 -0.177302,-0.07714 -0.322368,-0.173995 -0.322368,-0.215232 0,-0.04124 -0.06695,-0.07498 -0.148785,-0.07498 -0.08183,0 -0.148784,-0.03374 -0.148784,-0.07498 0,-0.04124 -0.145067,-0.138091 -0.322369,-0.215232 -0.177304,-0.07713 -0.344686,-0.166142 -0.371964,-0.19779 -0.08247,-0.09568 -0.6329924,-0.413213 -0.8183184,-0.471985 -0.09547,-0.03028 -0.173583,-0.09448 -0.173583,-0.142671 0,-0.04819 -0.08927,-0.08762 -0.19838,-0.08762 -0.10911,0 -0.198382,-0.03943 -0.198382,-0.08762 0,-0.04819 -0.07811,-0.112394 -0.173582,-0.142671 -0.169953,-0.0539 -0.720206,-0.365927 -0.818319,-0.46404 -0.06202,-0.06201 -0.426428,-0.270281 -0.941493,-0.53807 -0.428367,-0.222712 -0.722848,-0.488849 -0.918324,-0.829936 -0.0935,-0.16314 -0.123986,-1.188295 -0.123986,-4.168539 v -3.952194 l -0.272774,-0.128996 c -0.535834,-0.253404 -1.067111,-0.535421 -1.11589,-0.592346 -0.02728,-0.03184 -0.212742,-0.167027 -0.412143,-0.300432 -0.199401,-0.133405 -0.4353,-0.365721 -0.524224,-0.516255 -0.08892,-0.150535 -0.220631,-0.332651 -0.292685,-0.404704 -0.252547,-0.252549 -0.972426,-1.666706 -1.105786,-2.17225 -0.168675,-0.639417 -0.03591,-1.315651 0.340039,-1.731965 0.289415,-0.320485 1.023365,-0.733128 1.303988,-0.733128 0.100732,0 0.210738,-0.04463 0.244454,-0.09919 0.03372,-0.05456 0.21226,-0.09919 0.396762,-0.09919 0.184501,0 0.363044,-0.04464 0.39676,-0.09919 0.03372,-0.05456 0.161359,-0.09919 0.283651,-0.09919 0.12229,0 0.342486,-0.05579 0.489322,-0.123988 l 0.266976,-0.123987 7.85e-4,-3.397265 c 5.9e-4,-2.198202 0.03578,-3.397266 0.09996,-3.397266 0.05455,0 0.09919,-0.07014 0.09919,-0.15587 0,-0.08573 0.05752,-0.208476 0.127823,-0.272773 0.119809,-0.109572 0.232223,-0.179164 0.789686,-0.488866 0.12275,-0.06819 0.245497,-0.146305 0.272773,-0.173581 0.02728,-0.02728 0.228139,-0.142231 0.446358,-0.255454 0.513044,-0.266191 0.879916,-0.475678 0.942306,-0.538068 0.09811,-0.09811 0.648366,-0.410142 0.818319,-0.46404 0.09547,-0.03028 0.173582,-0.08615 0.173582,-0.124158 0,-0.03801 0.1562264,-0.130406 0.3471664,-0.205324 0.190941,-0.07492 0.347166,-0.164191 0.347166,-0.198382 0,-0.03419 0.156224,-0.12346 0.347164,-0.19838 0.190943,-0.07492 0.347167,-0.164191 0.347167,-0.19838 0,-0.03419 0.156225,-0.123462 0.347166,-0.1983822 0.190941,-0.07492 0.347167,-0.167315 0.347167,-0.205324 0,-0.03801 0.07811,-0.09388 0.173582,-0.124157 0.169953,-0.0539 0.720206,-0.365925 0.818319,-0.46404 0.02728,-0.02728 0.228137,-0.145564 0.446356,-0.26286 0.644191,-0.346265 2.250887,-1.252016 2.529351,-1.425886 0.256935,-0.160427 1.217151,-0.708495 1.785423,-1.019074 0.300051,-0.163987 0.664026,-0.380619 0.808834,-0.481403 0.144808,-0.100783 0.292991,-0.183244 0.329295,-0.183244 0.0363,0 0.25259,-0.124112 0.480637,-0.275805 0.228048,-0.151693 0.548541,-0.341324 0.712203,-0.421401 0.163665,-0.08008 0.319889,-0.167983 0.347167,-0.195348 0.02728,-0.02736 0.150026,-0.105548 0.272773,-0.173741 l 0.446355,-0.247975 c 0.122748,-0.06819 0.245498,-0.146306 0.272774,-0.173582 0.02728,-0.02728 0.228138,-0.142231 0.446355,-0.255452 0.513046,-0.266191 0.879918,-0.47568 0.942308,-0.53807 0.09811,-0.09811 0.648366,-0.410142 0.81832,-0.46404 0.09547,-0.03028 0.173582,-0.09448 0.173582,-0.142671 0,-0.04819 0.08927,-0.08762 0.198381,-0.08762 0.109109,0 0.19838,-0.04464 0.19838,-0.09919 0,-0.05455 0.05854,-0.09919 0.130082,-0.09919 0.07155,0 0.225902,-0.08927 0.343019,-0.19838 0.117115,-0.10911 0.281755,-0.19838 0.365868,-0.19838 0.08411,0 0.152933,-0.04464 0.152933,-0.09919 0,-0.05455 0.102662,-0.09919 0.228138,-0.09919 0.125475,0 0.276662,-0.04852 0.33597,-0.107831 0.07765,-0.07765 0.126487,-0.07765 0.174478,0 0.03665,0.05931 0.175599,0.107831 0.308766,0.107831 0.133166,0 0.242121,0.03943 0.242121,0.08762 0,0.04819 0.07811,0.112394 0.173583,0.142671 0.169953,0.0539 0.720206,0.365927 0.818319,0.46404 0.02728,0.02728 0.156141,0.109586 0.286363,0.182911 0.130222,0.07332 0.380762,0.214191 0.556754,0.31304 0.175992,0.09885 0.426532,0.239717 0.556753,0.31304 0.130223,0.07332 0.259087,0.155633 0.286363,0.182911 0.06239,0.06239 0.429264,0.271879 0.942308,0.53807 0.218218,0.11322 0.419079,0.228173 0.446356,0.255452 0.02728,0.02728 0.150025,0.105388 0.272773,0.173582 l 0.446356,0.247975 c 0.122748,0.06819 0.245496,0.146306 0.272773,0.173584 0.02728,0.02728 0.138866,0.0975 0.247976,0.156041 0.854874,0.458702 1.097506,0.5943 1.140687,0.637481 0.04318,0.04318 0.285814,0.178777 1.140687,0.637481 0.109109,0.05855 0.220698,0.131877 0.247976,0.162961 0.02728,0.03108 0.295091,0.191324 0.595142,0.35609 0.30005,0.164767 0.835677,0.468402 1.190282,0.674746 1.569957,0.913553 1.982282,1.148186 2.430161,1.382878 0.218218,0.114348 0.419078,0.230224 0.446355,0.257502 0.09811,0.09811 0.648366,0.410141 0.81832,0.46404 0.09547,0.03027 0.173582,0.09448 0.173582,0.142669 0,0.04819 0.08555,0.08762 0.190115,0.08762 0.104563,0 0.204993,0.03348 0.223179,0.07439 0.04139,0.09312 0.569722,0.415241 0.801786,0.488837 0.09547,0.03028 0.173583,0.09448 0.173583,0.142669 0,0.04819 0.06882,0.08762 0.152933,0.08762 0.08411,0 0.248754,0.08927 0.365869,0.19838 0.117116,0.10911 0.271473,0.198382 0.343019,0.198382 0.07155,0 0.130082,0.04464 0.130082,0.09919 0,0.05455 0.08927,0.09919 0.19838,0.09919 0.10911,0 0.198381,0.03943 0.198381,0.08762 0,0.04819 0.07811,0.112394 0.173583,0.142669 0.232064,0.0736 0.760398,0.395713 0.801787,0.488837 0.01818,0.04092 0.09816,0.07439 0.177731,0.07439 0.07957,0 0.240487,0.08927 0.357602,0.19838 0.117116,0.10911 0.271474,0.19838 0.343019,0.19838 0.07155,0 0.130082,0.04464 0.130082,0.09919 0,0.05456 0.06761,0.09919 0.150243,0.09919 0.08263,0 0.238691,0.145065 0.346795,0.322367 0.192801,0.316218 0.19656,0.531238 0.196923,11.267898 3.92e-4,11.989848 0.02835,11.419217 -0.574461,11.729716 -0.147557,0.076 -0.290603,0.160578 -0.31788,0.187942 -0.09769,0.09801 -0.648055,0.410201 -0.81832,0.464197 -0.09547,0.03028 -0.173583,0.09448 -0.173583,0.142672 0,0.04819 -0.08927,0.08762 -0.198381,0.08762 -0.109109,0 -0.19838,0.04463 -0.19838,0.09919 0,0.05456 -0.05854,0.09919 -0.130082,0.09919 -0.07154,0 -0.225902,0.08927 -0.343018,0.19838 -0.117115,0.10911 -0.281756,0.198382 -0.365869,0.198382 -0.08411,0 -0.152933,0.0363 -0.152933,0.08068 0,0.04437 -0.156224,0.141973 -0.347165,0.216893 -0.190942,0.07492 -0.347166,0.172521 -0.347166,0.216895 0,0.04437 -0.06695,0.08068 -0.148786,0.08068 -0.08183,0 -0.148785,0.04464 -0.148785,0.09919 0,0.05456 -0.08927,0.09919 -0.198381,0.09919 -0.109109,0 -0.19838,0.03943 -0.19838,0.08762 0,0.04819 -0.07811,0.112393 -0.173583,0.14267 -0.169954,0.0539 -0.720206,0.365927 -0.818319,0.46404 -0.02728,0.02728 -0.228138,0.142231 -0.446356,0.255452 -0.514014,0.266695 -0.880036,0.475759 -0.942307,0.538227 -0.02728,0.02737 -0.183502,0.115271 -0.347166,0.195348 -0.163664,0.08008 -0.484155,0.269707 -0.712203,0.421402 -0.228047,0.151691 -0.434394,0.275806 -0.458548,0.275806 -0.02415,0 -0.707963,0.384884 -1.519576,0.855301 -1.677098,0.972057 -2.01005,1.161544 -2.566754,1.460782 -0.218219,0.117296 -0.419079,0.235584 -0.446356,0.262862 -0.02728,0.02728 -0.250456,0.157855 -0.495951,0.290173 -0.245496,0.132317 -0.468674,0.266224 -0.495952,0.297571 -0.02728,0.03135 -0.228137,0.149628 -0.446355,0.262849 -0.513045,0.266191 -0.879917,0.475678 -0.942307,0.53807 -0.02728,0.02728 -0.156141,0.109588 -0.286363,0.182911 -0.130223,0.07332 -0.386877,0.218388 -0.570344,0.322369 -0.183466,0.103978 -0.483686,0.274124 -0.667152,0.378105 -0.183467,0.103978 -0.440122,0.249045 -0.570344,0.322366 -0.130223,0.07333 -0.259085,0.155705 -0.286363,0.183069 -0.02728,0.02737 -0.183502,0.116564 -0.347166,0.198224 -0.163663,0.08166 -0.319888,0.170858 -0.347165,0.198223 -0.150242,0.150721 -0.942366,0.495114 -1.125264,0.489232 -0.117593,-0.0038 -0.392347,-0.117272 -0.610565,-0.252206 z M 26.543529,45.674 c 2.193764,-1.203954 3.573412,-2.068996 3.602252,-2.258621 0.03663,-0.240847 -0.827117,-2.044299 -1.621429,-3.38544 -0.528228,-0.891874 -1.705801,-2.593054 -2.097401,-3.030006 -0.09943,-0.110948 -0.425761,-0.490352 -0.725173,-0.843117 -0.897801,-1.057783 -2.650351,-2.75896 -3.572007,-3.467304 -0.245497,-0.188677 -0.468675,-0.369871 -0.495953,-0.402651 -0.06811,-0.08186 -1.24636,-0.895317 -1.625461,-1.122218 -0.169811,-0.101634 -0.331066,-0.213826 -0.358342,-0.249313 -0.02728,-0.03549 -0.272774,-0.169236 -0.545547,-0.297217 -0.272773,-0.127984 -0.573456,-0.272445 -0.668188,-0.321029 -0.09473,-0.04859 -0.25948,-0.08834 -0.36611,-0.08834 -0.10663,0 -0.221458,-0.04463 -0.255174,-0.09919 -0.03372,-0.05456 -0.167624,-0.09919 -0.297571,-0.09919 -0.129947,0 -0.263853,-0.04464 -0.297571,-0.09919 -0.03372,-0.05456 -0.167624,-0.09919 -0.297571,-0.09919 -0.129947,0 -0.260805,-0.0397 -0.290797,-0.08823 -0.05153,-0.08339 -0.174321,-0.113914 -1.073987,-0.266999 -0.205087,-0.0349 -0.39742,-0.103154 -0.427412,-0.151681 -0.02999,-0.04853 -0.227805,-0.08823 -0.439585,-0.08823 -0.211777,0 -0.412637,-0.04463 -0.446355,-0.09919 -0.03371,-0.05456 -0.250601,-0.09919 -0.481966,-0.09919 -0.231365,0 -0.463068,-0.04052 -0.514894,-0.09004 -0.05183,-0.04953 -0.31741,-0.114521 -0.590183,-0.144429 C 12.38433,28.754085 11.88218,28.683019 11.541213,28.626067 10.164538,28.39611 9.7547676,28.32625 9.1854466,28.224429 c -0.327327,-0.05854 -0.773683,-0.131581 -0.991902,-0.162312 -0.218219,-0.03073 -0.439165,-0.09594 -0.490992,-0.144904 -0.05183,-0.04897 -0.174574,-0.08903 -0.272773,-0.08903 -0.16879,0 -0.178543,0.205436 -0.178543,3.761355 v 3.761353 l 1.413461,0.81333 c 0.777405,0.447333 1.5585264,0.897231 1.7358294,0.999777 0.424806,0.245693 0.930305,0.534434 1.388662,0.793201 0.20458,0.115497 0.483553,0.284488 0.619939,0.375538 0.136387,0.09105 0.381882,0.230817 0.545547,0.310596 0.163664,0.07978 0.319888,0.167443 0.347166,0.194807 0.02728,0.02736 0.228136,0.142389 0.446355,0.255609 0.513045,0.266191 0.879916,0.47568 0.942306,0.53807 0.02728,0.02728 0.156141,0.109588 0.286365,0.18291 0.607088,0.341831 0.89235,0.50626 1.379438,0.795135 0.288812,0.171286 0.567785,0.311427 0.619939,0.311427 0.05215,0 0.09483,0.03943 0.09483,0.08762 0,0.04819 0.07811,0.113184 0.173583,0.144429 0.09547,0.03124 0.352125,0.164965 0.570344,0.297156 0.37179,0.225225 1.907029,1.116365 4.810725,2.792422 0.681933,0.393621 1.61928,0.940914 2.082994,1.216206 0.463715,0.275293 0.940798,0.505109 1.060186,0.5107 0.119387,0.0056 0.46797,-0.127529 0.774628,-0.295824 z m 15.593046,-8.939656 c 0.325786,-0.197447 0.525569,-0.387227 0.525569,-0.499256 0,-0.281628 -1.882485,-3.021369 -2.797806,-4.071886 -0.983945,-1.129278 -1.814225,-1.996973 -2.395056,-2.502987 -0.37384,-0.325685 -0.883091,-0.781856 -1.13167,-1.013714 -0.248577,-0.231856 -0.501959,-0.421557 -0.563069,-0.421557 -0.06111,0 -0.175452,-0.08927 -0.254094,-0.19838 -0.07864,-0.109111 -0.191668,-0.198382 -0.25117,-0.198382 -0.0595,0 -0.194713,-0.07811 -0.30047,-0.173583 -0.105758,-0.09547 -0.315035,-0.236918 -0.46506,-0.314332 -0.150025,-0.07741 -0.272773,-0.177842 -0.272773,-0.223177 0,-0.04534 -0.08927,-0.08243 -0.19838,-0.08243 -0.109109,0 -0.198381,-0.04463 -0.198381,-0.09919 0,-0.05456 -0.08927,-0.09919 -0.19838,-0.09919 -0.109109,0 -0.198381,-0.04463 -0.198381,-0.09919 0,-0.05456 -0.08927,-0.09919 -0.19838,-0.09919 -0.109109,0 -0.198381,-0.04464 -0.198381,-0.09919 0,-0.05456 -0.108954,-0.09919 -0.242121,-0.09919 -0.133167,0 -0.269708,-0.04464 -0.303425,-0.09919 -0.03372,-0.05456 -0.250601,-0.09919 -0.481967,-0.09919 -0.231365,0 -0.463067,-0.04116 -0.514894,-0.09146 -0.05182,-0.05031 -0.40668,-0.114566 -0.788563,-0.142802 -0.749183,-0.05539 -1.551924,-0.184618 -1.909411,-0.307375 -0.238324,-0.08184 -0.294136,-0.339627 -0.112793,-0.52097 0.180261,-0.180261 0.0029,-0.326051 -0.396631,-0.326051 -0.362149,0 -0.372318,-0.0096 -0.328237,-0.30995 0.05063,-0.344958 0.160461,-0.331468 -1.022156,-0.125555 -0.273472,0.04762 -0.347165,0.0278 -0.347165,-0.09334 0,-0.08458 0.04463,-0.181369 0.09919,-0.215086 0.152165,-0.09404 0.117797,-0.346252 -0.05629,-0.413054 -0.133889,-0.05138 -0.585393,0.110695 -0.737235,0.26464 -0.02728,0.02766 -0.228138,0.108789 -0.446356,0.180297 -0.218218,0.07151 -0.486031,0.166613 -0.595141,0.211344 -0.109109,0.04473 -0.399241,0.136138 -0.644737,0.20313 -0.245495,0.06699 -0.535626,0.157987 -0.644736,0.202215 -0.212192,0.08601 -0.594753,0.17582 -1.11681,0.262177 -0.177808,0.02942 -0.347824,0.09318 -0.377816,0.141708 -0.02999,0.04853 -0.205487,0.08823 -0.389989,0.08823 -0.1845,0 -0.363044,0.04464 -0.396759,0.09919 -0.03372,0.05456 -0.228286,0.09919 -0.432373,0.09919 -0.204089,0 -0.417486,0.04642 -0.474218,0.103151 -0.102426,0.102424 -4.693501,0.06964 -8.00695,-0.05717 -1.301073,-0.0498 -1.496259,-0.03653 -1.661434,0.112956 -0.10294,0.09316 -0.187165,0.254921 -0.187165,0.359471 0,0.104551 -0.06522,0.255317 -0.144941,0.335034 -0.119621,0.119621 -0.180268,0.12288 -0.347165,0.01865 -0.1112244,-0.06946 -0.2022234,-0.160191 -0.2022234,-0.201622 0,-0.04143 -0.04502,-0.07533 -0.100049,-0.07533 -0.250513,0 -1.586186,-1.338483 -1.586186,-1.589524 0,-0.05467 -0.05365,-0.185312 -0.119226,-0.290314 -0.09478,-0.151764 -0.08969,-0.248105 0.0248,-0.469808 0.07921,-0.153392 0.21098,-0.330171 0.29281,-0.392844 0.08183,-0.06267 0.282693,-0.23 0.446357,-0.371841 0.163663,-0.141842 0.353365,-0.257949 0.421558,-0.258016 0.06819,-6.5e-5 0.123989,-0.03386 0.123989,-0.0751 0,-0.04124 0.145065,-0.138094 0.322366,-0.215232 0.177304,-0.07714 0.3446864,-0.167431 0.3719644,-0.200646 0.08714,-0.106112 2.524378,-1.295796 2.653338,-1.295172 0.06819,3.93e-4 0.123988,-0.04404 0.123988,-0.09859 0,-0.05456 0.08927,-0.09919 0.19838,-0.09919 0.109109,0 0.19838,-0.04463 0.19838,-0.09919 0,-0.05456 0.06756,-0.09919 0.150132,-0.09919 0.08257,0 0.238796,-0.04463 0.347166,-0.09919 0.108368,-0.05456 0.2857,-0.143825 0.394068,-0.19838 0.10837,-0.05456 0.264593,-0.09919 0.347166,-0.09919 0.08257,0 0.150132,-0.04463 0.150132,-0.09919 0,-0.05456 0.108953,-0.09919 0.242121,-0.09919 0.133166,0 0.269708,-0.04464 0.303425,-0.09919 0.03371,-0.05456 0.14794,-0.09919 0.25383,-0.09919 0.10589,0 0.192526,-0.04463 0.192526,-0.09919 0,-0.05456 0.133906,-0.09919 0.29757,-0.09919 0.163665,0 0.297571,-0.04464 0.297571,-0.09919 0,-0.05456 0.108954,-0.09919 0.242121,-0.09919 0.133168,0 0.269708,-0.04463 0.303425,-0.09919 0.03371,-0.05456 0.167625,-0.09919 0.297572,-0.09919 0.129947,0 0.263853,-0.04463 0.29757,-0.09919 0.03371,-0.05456 0.167622,-0.09919 0.297569,-0.09919 0.129949,0 0.260676,-0.03949 0.290503,-0.08775 0.02983,-0.04827 0.17753,-0.110076 0.328223,-0.13736 0.150693,-0.02729 0.608753,-0.141112 1.017913,-0.252956 2.478861,-0.677597 4.957377,-0.842666 7.100681,-0.472903 1.042868,0.179915 1.133587,0.181196 1.756214,0.0248 0.858502,-0.215649 2.023631,-0.214538 2.572771,0.0024 0.506912,0.200305 1.068302,0.774089 1.068302,1.09189 0,0.125727 0.04464,0.228592 0.09919,0.228592 0.05456,0 0.09919,0.108955 0.09919,0.242122 0,0.133167 0.04464,0.269707 0.09919,0.303424 0.05456,0.03371 0.09919,0.192575 0.09919,0.353021 0,0.160444 0.04464,0.291715 0.09919,0.291715 0.05456,0 0.09919,0.186188 0.09919,0.413749 0,0.407936 0.208776,0.776534 0.439832,0.776534 0.06133,0 0.175858,0.08927 0.2545,0.19838 0.07864,0.109111 0.222402,0.198382 0.319468,0.198382 0.09707,0 0.176831,0.03348 0.177256,0.07439 8.91e-4,0.08908 0.481256,0.322369 0.663738,0.322369 0.07096,0 0.129011,0.04464 0.129011,0.09919 0,0.05456 0.08927,0.09919 0.19838,0.09919 0.109109,0 0.19838,0.03657 0.19838,0.08126 0,0.04469 0.226008,0.142803 0.502237,0.218023 0.27623,0.07522 0.524361,0.172559 0.551401,0.21631 0.02704,0.04375 0.155483,0.07955 0.285431,0.07955 0.129947,0 0.263854,0.04463 0.29757,0.09919 0.03372,0.05456 0.189942,0.09919 0.347166,0.09919 0.157224,0 0.313449,0.04464 0.347166,0.09919 0.03372,0.05456 0.205966,0.09919 0.382776,0.09919 0.176812,0 0.363878,0.04006 0.415705,0.08903 0.09016,0.08518 0.459545,0.153854 1.433298,0.266468 0.245496,0.02839 0.535628,0.09207 0.644737,0.141506 0.200876,0.09102 0.820527,0.160204 2.306172,0.2575 l 0.81832,0.0536 v -0.269429 c 0,-0.406467 -0.842037,-1.183516 -4.165989,-3.84445 -0.08183,-0.06551 -0.30501,-0.228593 -0.495952,-0.362407 -0.190941,-0.133813 -0.397979,-0.289403 -0.460084,-0.345752 -0.319454,-0.289849 -0.544082,-0.449617 -0.632141,-0.449617 -0.05393,0 -0.09806,-0.03501 -0.09806,-0.07781 0,-0.04279 -0.122748,-0.150508 -0.272773,-0.239367 -0.150025,-0.08886 -0.40668,-0.276971 -0.570344,-0.418025 -0.163663,-0.141055 -0.336971,-0.256518 -0.385126,-0.256585 -0.04816,-6.7e-5 -0.159744,-0.07854 -0.247975,-0.174382 -0.08823,-0.09584 -0.283168,-0.237292 -0.433194,-0.31433 -0.150024,-0.07704 -0.272772,-0.177166 -0.272772,-0.222502 0,-0.04534 -0.08927,-0.08243 -0.198381,-0.08243 -0.109109,0 -0.19838,-0.03462 -0.19838,-0.07693 0,-0.07089 -1.409726,-0.810256 -1.983805,-1.040461 -0.136387,-0.05469 -0.359565,-0.143308 -0.495951,-0.196928 -0.136386,-0.05362 -0.325482,-0.136919 -0.420213,-0.18511 -0.09473,-0.04819 -0.259479,-0.08762 -0.366108,-0.08762 -0.106631,0 -0.221459,-0.04464 -0.255177,-0.09919 -0.03372,-0.05455 -0.167623,-0.09919 -0.29757,-0.09919 -0.129947,0 -0.263854,-0.04463 -0.29757,-0.09919 -0.03372,-0.05455 -0.189942,-0.09919 -0.347166,-0.09919 -0.157225,0 -0.310535,-0.03992 -0.340691,-0.08871 -0.03016,-0.04879 -0.22249,-0.114031 -0.427411,-0.144978 -0.204923,-0.03094 -0.551128,-0.08307 -0.769347,-0.115819 -0.218218,-0.03276 -0.486032,-0.09909 -0.595141,-0.147412 -0.109109,-0.04832 -0.421558,-0.113525 -0.694331,-0.144892 -0.272774,-0.03137 -0.830719,-0.102396 -1.239878,-0.157841 -2.1889,-0.296617 -6.232413,-0.226104 -6.59119,0.114941 -0.05182,0.04926 -0.216577,0.08957 -0.36611,0.08957 -0.149532,0 -0.299464,0.04464 -0.333181,0.09919 -0.03372,0.05456 -0.148545,0.09919 -0.255176,0.09919 -0.106629,0 -0.282536,0.04464 -0.390907,0.09919 -0.10837,0.05456 -0.285699,0.143825 -0.394069,0.19838 -0.108368,0.05456 -0.264593,0.09919 -0.347164,0.09919 -0.08257,0 -0.150132,0.04464 -0.150132,0.09919 0,0.05456 -0.06273,0.09919 -0.139413,0.09919 -0.140935,0 -0.37825,0.107924 -1.546821,0.703451 -0.354606,0.180713 -0.744819,0.375338 -0.867142,0.432498 -0.122321,0.05716 -0.222751,0.137406 -0.223177,0.178322 -3.93e-4,0.04092 -0.08633,0.07439 -0.190888,0.07439 -0.104563,0 -0.204993,0.03348 -0.223178,0.07439 -0.01819,0.04091 -0.245083,0.18184 -0.504217,0.313164 -0.259134,0.131325 -0.471155,0.27639 -0.471155,0.322368 0,0.04597 -0.08927,0.0836 -0.19838,0.0836 -0.109108,0 -0.19838,0.03943 -0.19838,0.08762 0,0.04819 -0.07811,0.112394 -0.173582,0.142671 -0.169955,0.05389 -0.720206,0.365926 -0.818319,0.464038 -0.09811,0.09811 -0.648367,0.410142 -0.81832,0.46404 -0.09547,0.03028 -0.173584,0.09448 -0.173584,0.142671 0,0.04819 -0.08927,0.08762 -0.19838,0.08762 -0.109108,0 -0.198727,0.03347 -0.199154,0.07439 -3.92e-4,0.04091 -0.100855,0.123529 -0.223176,0.183588 -0.1223234,0.06005 -0.4232644,0.210709 -0.6687614,0.334784 -0.245495,0.124077 -0.523862,0.264641 -0.618593,0.312365 -0.09473,0.04773 -0.281797,0.08677 -0.415705,0.08677 -0.133906,0 -0.268138,0.03992 -0.298293,0.08871 -0.03016,0.04879 -0.222491,0.110617 -0.427414,0.137392 -0.204922,0.02677 -0.729669,0.147314 -1.166107,0.267868 -0.436436,0.120554 -0.925943,0.243757 -1.087793,0.273782 -0.280161,0.05197 -0.548846,0.234881 -0.548846,0.373623 0,0.03545 0.168822,0.228341 0.375162,0.428644 0.531406,0.515864 0.815122,0.949142 0.815122,1.244822 0,0.30155 -0.369052,1.821454 -0.502361,2.068927 -0.05103,0.09473 -0.09278,0.25948 -0.09278,0.36611 0,0.10663 -0.04463,0.221459 -0.09919,0.255175 -0.05456,0.03372 -0.09919,0.236612 -0.09919,0.45088 0,0.346451 0.03568,0.404115 0.322369,0.520918 0.332739,0.135569 0.90643,0.268348 2.107792,0.48784 0.501504,0.09163 1.776336,0.121231 4.5904494,0.106604 2.142865,-0.01113 3.995243,0.01964 4.116393,0.06838 0.135285,0.05444 -1.281866,0.09106 -3.67294,0.09492 -3.0962404,0.005 -3.8932164,0.03231 -3.8932164,0.133402 0,0.08467 0.405695,0.199311 1.2150814,0.343351 2.553636,0.454442 3.144848,0.502631 10.092604,0.822657 2.456836,0.113166 3.298881,0.187571 3.417103,0.301948 0.05182,0.05014 0.283529,0.09116 0.514894,0.09116 0.231366,0 0.448251,0.04463 0.481967,0.09919 0.03372,0.05456 0.234578,0.09919 0.446356,0.09919 0.21178,0 0.41264,0.04463 0.446356,0.09919 0.03371,0.05456 0.21226,0.09919 0.396761,0.09919 0.184502,0 0.363044,0.04464 0.396761,0.09919 0.03372,0.05455 0.189941,0.09919 0.347166,0.09919 0.157225,0 0.313449,0.04464 0.347165,0.09919 0.03371,0.05455 0.192577,0.09919 0.35302,0.09919 0.160445,0 0.291717,0.04463 0.291717,0.09919 0,0.05455 0.133907,0.09919 0.297571,0.09919 0.163664,0 0.29757,0.04464 0.29757,0.09919 0,0.05456 0.133907,0.09919 0.297571,0.09919 0.163664,0 0.297571,0.04464 0.297571,0.09919 0,0.05456 0.111588,0.09919 0.247975,0.09919 0.136387,0 0.247975,0.04464 0.247975,0.09919 0,0.05456 0.108955,0.09919 0.242122,0.09919 0.133167,0 0.269708,0.04463 0.303425,0.09919 0.03372,0.05456 0.170258,0.09919 0.303425,0.09919 0.133167,0 0.242121,0.04463 0.242121,0.09919 0,0.05456 0.06756,0.09919 0.150131,0.09919 0.145668,0 0.250975,0.04146 0.716438,0.282084 0.122008,0.06308 0.289391,0.114678 0.371963,0.114678 0.08257,0 0.150131,0.04463 0.150131,0.09919 0,0.05456 0.05579,0.09888 0.123988,0.0985 0.157488,-9.65e-4 2.195728,1.013989 2.240045,1.115354 0.01819,0.0416 0.118616,0.07562 0.223178,0.07562 0.104564,0 0.190115,0.03943 0.190115,0.08762 0,0.04819 0.07811,0.112394 0.173583,0.142671 0.169954,0.0539 0.720206,0.365927 0.818319,0.46404 0.02728,0.02728 0.150026,0.105389 0.272774,0.173582 l 0.446355,0.247976 c 0.122748,0.06819 0.245496,0.146306 0.272774,0.173584 0.09811,0.09811 0.648365,0.410142 0.818319,0.464038 0.09547,0.03028 0.173583,0.09448 0.173583,0.142671 0,0.04819 0.04775,0.08762 0.106116,0.08762 0.05836,0 0.300743,0.133906 0.53862,0.29757 0.237877,0.163663 0.461055,0.297572 0.495951,0.297572 0.03489,0 0.250032,0.126392 0.478079,0.280869 0.228048,0.15448 0.481587,0.308808 0.563418,0.34295 0.08183,0.03414 0.461235,0.260447 0.843117,0.502898 0.381883,0.242451 0.781434,0.445208 0.887892,0.450571 0.106457,0.0053 0.430066,-0.133584 0.719129,-0.308774 z m 2.287184,-18.506304 0.02578,-4.574539 -0.47214,-0.266955 c -0.259678,-0.146824 -0.841004,-0.483733 -1.291836,-0.748686 -0.450833,-0.264953 -0.836832,-0.481732 -0.857777,-0.481732 -0.02095,0 -0.338719,-0.182642 -0.706164,-0.405873 -0.367446,-0.22323 -0.818364,-0.491045 -1.00204,-0.595141 -0.183678,-0.104099 -0.490184,-0.278539 -0.681125,-0.387648 -0.38288,-0.218788 -0.88655,-0.504547 -1.251085,-0.709802 -0.130222,-0.07333 -0.259086,-0.1557052 -0.286363,-0.1830702 -0.02728,-0.02736 -0.183502,-0.116563 -0.347166,-0.19822 -0.163663,-0.08166 -0.319888,-0.170859 -0.347166,-0.198223 -0.02728,-0.02736 -0.15614,-0.109745 -0.286363,-0.183068 -0.130221,-0.07333 -0.386876,-0.21839 -0.570344,-0.322369 -0.183466,-0.103978 -0.483685,-0.274128 -0.667151,-0.378107 -0.183467,-0.103978 -0.440122,-0.249043 -0.570343,-0.322368 -0.130223,-0.07332 -0.259087,-0.155633 -0.286364,-0.182909 -0.04871,-0.04871 -0.164205,-0.116296 -0.881504,-0.515849 -0.197105,-0.109793 -0.403009,-0.233075 -0.457563,-0.273959 -0.05456,-0.04089 -0.344687,-0.208629 -0.644737,-0.372765 -0.30005,-0.164134 -0.947266,-0.533378 -1.438258,-0.820539 -0.490991,-0.28716 -1.026619,-0.599201 -1.190282,-0.693423 -0.163665,-0.09422 -1.034059,-0.594928 -1.93421,-1.11268 -0.900151,-0.517753 -1.792863,-1.037345 -1.983805,-1.154651 -0.19094,-0.117307 -0.403719,-0.21345 -0.472841,-0.213655 -0.06913,-1.96e-4 -0.448524,0.193115 -0.843117,0.429596 -0.394592,0.236481 -1.63247,0.957285 -2.75084,1.601784 -2.202445,1.269235 -3.253819,1.879583 -3.719634,2.159336 -0.163663,0.09829 -0.375681,0.205012 -0.471152,0.23716 -0.09547,0.03215 -0.173583,0.09788 -0.173583,0.146072 0,0.04819 -0.04267,0.08762 -0.09483,0.08762 -0.05216,0 -0.331127,0.140144 -0.619939,0.311428 -0.487088,0.288875 -0.77235,0.453306 -1.379438,0.795136 -0.130224,0.07332 -0.259086,0.155633 -0.286362,0.182911 -0.02728,0.02728 -0.228139,0.142229 -0.446358,0.255452 -0.513044,0.26619 -0.879916,0.47568 -0.942306,0.53807 -0.02728,0.02728 -0.156141,0.109585 -0.286363,0.182908 -0.130222,0.07333 -0.386878,0.2183902 -0.570344,0.3223692 -0.183467,0.103979 -0.483687,0.274128 -0.667151,0.378107 -0.183468,0.103979 -0.440122,0.249044 -0.570346,0.322368 -0.130222,0.07332 -0.259085,0.155633 -0.286361,0.182909 -0.02728,0.02728 -0.228139,0.14368 -0.446358,0.258675 -0.218216,0.114992 -0.79848,0.444519 -1.2894714,0.732282 -1.568198,0.919093 -1.875696,1.094241 -2.306172,1.313558 l -0.421559,0.214772 v 3.154322 3.154321 h 0.291718 c 0.160444,0 0.319303,-0.04463 0.353019,-0.09919 0.03372,-0.05456 0.170864,-0.09919 0.30477,-0.09919 0.133906,0 0.320974,-0.04076 0.415705,-0.09057 0.09473,-0.04981 0.417732,-0.206233 0.717784,-0.347598 0.545338,-0.256931 1.0967794,-0.559423 1.1902804,-0.652925 0.02728,-0.02728 0.156141,-0.109588 0.286363,-0.18291 0.130222,-0.07332 0.380763,-0.214192 0.556754,-0.31304 0.175992,-0.09885 0.426533,-0.239718 0.556755,-0.313041 0.130221,-0.07332 0.259085,-0.155635 0.286363,-0.182911 0.04871,-0.04871 0.164204,-0.116296 0.881504,-0.515848 0.197104,-0.109794 0.403009,-0.235474 0.457564,-0.279288 0.05456,-0.04381 0.859564,-0.460764 1.788911,-0.926549 1.745696,-0.874942 3.585135,-1.553968 4.708046,-1.737973 1.0033,-0.164407 2.289886,-0.309835 2.739801,-0.309698 0.32441,1.01e-4 0.570203,-0.104939 1.190284,-0.508676 0.429798,-0.279842 0.803769,-0.536497 0.831046,-0.570345 0.10464,-0.12984 0.984151,-0.708727 1.541534,-1.014623 1.319343,-0.724066 2.325859,-0.305079 4.706451,1.959176 1.13005,1.074826 2.076108,1.697729 4.078305,2.685236 1.003482,0.494928 2.136961,1.089906 2.518844,1.322173 0.795139,0.483617 2.158131,1.387634 2.23178,1.480246 0.02728,0.0343 0.205819,0.170336 0.39676,0.302298 0.190942,0.131962 0.395892,0.286037 0.455446,0.342386 0.05955,0.05635 0.257211,0.214044 0.439239,0.35043 0.361109,0.270566 0.911053,0.710512 0.989929,0.791925 0.02728,0.02815 0.428998,0.384718 0.892712,0.79236 0.463715,0.407643 0.91007,0.819885 0.991903,0.916094 0.08183,0.09621 0.193421,0.160693 0.247975,0.143296 0.06374,-0.02032 0.108406,-1.666563 0.124976,-4.60617 z m -27.326547,4.119883 c 0.122008,-0.06819 0.24415,-0.14956 0.271427,-0.180817 0.02728,-0.03126 0.131419,-0.08708 0.231428,-0.124042 0.271677,-0.100418 0.156451,-0.286958 -0.342102,-0.553836 -0.656635,-0.3515 -1.318738,-0.115911 -0.825256,0.293644 0.09389,0.07792 0.133773,0.213996 0.100996,0.344586 -0.08965,0.357199 0.150655,0.451217 0.563507,0.220465 z m 14.755293,-0.148784 c 0.18079,-0.229504 0.204636,-0.350189 0.150332,-0.760795 -0.217014,-1.640878 -0.89005,-3.03271 -1.466697,-3.033112 -0.09547,-6.5e-5 -0.173582,-0.04476 -0.173582,-0.09931 0,-0.05917 -0.380229,-0.09919 -0.942308,-0.09919 -0.562078,0 -0.942307,0.04002 -0.942307,0.09919 0,0.05456 -0.178542,0.09919 -0.396761,0.09919 -0.218218,0 -0.39676,0.04463 -0.39676,0.09919 0,0.05456 -0.07122,0.09919 -0.158271,0.09919 -0.46694,0 -1.624634,1.192055 -1.492387,1.536682 0.06513,0.169725 0.857136,0.216261 0.857136,0.05036 0,-0.05456 0.111589,-0.09919 0.247976,-0.09919 0.136386,0 0.247975,-0.04463 0.247975,-0.09919 0,-0.05456 0.08927,-0.09919 0.19838,-0.09919 0.109109,0 0.198381,-0.04463 0.198381,-0.09919 0,-0.05456 0.06882,-0.09919 0.152932,-0.09919 0.08411,0 0.244271,-0.08509 0.355906,-0.189097 0.111634,-0.104005 0.290688,-0.212037 0.3979,-0.240073 0.167521,-0.04381 0.190697,-0.0068 0.164843,0.26349 -0.02962,0.309676 -0.02291,0.314926 0.44107,0.344697 0.259134,0.01663 0.471153,0.07242 0.471153,0.123987 0,0.05157 0.09246,0.09376 0.205466,0.09376 0.186787,0 0.191295,0.01418 0.0496,0.155871 -0.197552,0.197552 -0.20145,0.43927 -0.0071,0.43927 0.08183,0 0.148786,0.04464 0.148786,0.09919 0,0.05456 0.10043,0.100676 0.223178,0.10249 l 0.223178,0.0033 -0.223178,0.186183 c -0.417024,0.347895 -0.267235,0.614474 0.654159,1.164207 0.476898,0.284533 0.556505,0.28034 0.810992,-0.04272 z m -6.003102,-8.257586 c 0.03372,-0.05456 0.170863,-0.09919 0.304771,-0.09919 0.133907,0 0.320973,-0.03943 0.415703,-0.08762 0.09473,-0.04819 0.306145,-0.148315 0.469808,-0.2225 0.163665,-0.07419 0.376359,-0.22091 0.472654,-0.326051 0.172634,-0.188491 0.177099,-0.188502 0.319213,-8.16e-4 0.07927,0.104768 0.14555,0.243649 0.147286,0.308624 0.0056,0.209741 0.196914,0.245866 0.500369,0.09448 0.247913,-0.123677 0.296307,-0.125329 0.296307,-0.01013 0,0.07573 0.09744,0.189841 0.216532,0.253578 0.184356,0.09867 0.243313,0.08281 0.396761,-0.106688 0.309411,-0.382106 0.226849,-0.706148 -0.273772,-1.0745 -0.629623,-0.463259 -1.359789,-0.812314 -1.699256,-0.812314 -0.2402,0 -1.540209,0.671532 -1.715162,0.885984 -0.02728,0.03343 -0.349472,0.260646 -0.715987,0.504914 -0.39216,0.261357 -0.667686,0.515554 -0.669535,0.617705 -0.0027,0.150045 0.09693,0.173582 0.734932,0.173582 0.405939,0 0.765659,-0.04464 0.799376,-0.09919 z"
         id="path988" />
      <path
         style="fill:#ffffff;fill-opacity:1;stroke:#000000;stroke-width:0.374892;stroke-opacity:1"
         d="M 43.04046,21.441974 C 41.736346,20.29052 39.819996,18.814749 38.64494,18.057009 38.153949,17.74039 36.782819,16.978668 35.597984,16.36429 c -2.503911,-1.298361 -3.217996,-1.770812 -4.640285,-3.070088 -1.328394,-1.213501 -2.312491,-1.879937 -3.004808,-2.03487 -0.840044,-0.187993 -1.383215,0.02324 -3.194367,1.242254 -1.587579,1.068533 -1.640931,1.090271 -2.926324,1.192306 -1.032044,0.08192 -2.35781,0.315639 -3.112163,0.548636 -1.758716,0.54321 -4.207172,1.729185 -7.054835,3.417195 -2.1648944,1.283286 -2.9559224,1.696519 -3.4895734,1.822962 -0.208364,0.04937 -0.456956,0.122019 -0.552428,0.161444 -0.16305,0.06733 -0.173582,-0.108651 -0.173582,-2.900069 v -2.971749 l 1.31427,-0.746595 c 1.3173424,-0.748341 3.7882054,-2.175905 6.5713514,-3.7966602 0.818319,-0.476546 1.755666,-1.01983 2.082994,-1.207299 0.327327,-0.187468 0.751367,-0.431534 0.942308,-0.542366 0.190941,-0.110831 1.924125,-1.116784 3.851523,-2.235449 2.279022,-1.322751 3.569484,-2.016907 3.690616,-1.98523 0.173925,0.04548 5.180788,2.902469 8.427485,4.808843 3.231193,1.897269 5.561692,3.2467692 8.451409,4.8938812 l 1.458499,0.83133 -0.05881,4.26518 c -0.03235,2.34585 -0.06637,4.275205 -0.07559,4.28746 -0.0092,0.01225 -0.488571,-0.39429 -1.065214,-0.903432 z"
         id="path990" />
      <path
         style="fill:#ffffff;fill-opacity:1;stroke:#000000;stroke-width:0.374892;stroke-opacity:1"
         d="m 39.091297,35.463161 c -1.172924,-0.70643 -2.678665,-1.619724 -3.34609,-2.02954 -0.667424,-0.409814 -1.263115,-0.745118 -1.323756,-0.745118 -0.06064,0 -0.236194,-0.08968 -0.390119,-0.199279 -0.269768,-0.192092 -2.49306,-1.288574 -2.612788,-1.288574 -0.03227,0 -0.294219,-0.106431 -0.582121,-0.236516 -0.287904,-0.130082 -0.679685,-0.290811 -0.870626,-0.357176 -0.426645,-0.148284 -0.787954,-0.294104 -1.015354,-0.409782 -0.09473,-0.04819 -0.25948,-0.08762 -0.366109,-0.08762 -0.10663,0 -0.221459,-0.04464 -0.255176,-0.09919 -0.03372,-0.05456 -0.167623,-0.09919 -0.29757,-0.09919 -0.129948,0 -0.260674,-0.03949 -0.290503,-0.08776 -0.02983,-0.04826 -0.17753,-0.111543 -0.328222,-0.14062 -0.150693,-0.02907 -0.45253,-0.104138 -0.670748,-0.166811 -0.785813,-0.225684 -1.472267,-0.38373 -3.384687,-0.779272 -0.279495,-0.05781 -2.35505,-0.19708 -4.612345,-0.309495 -4.68429,-0.233284 -6.153899,-0.348412 -7.625427,-0.597367 l -1.041496,-0.176202 3.130329,-0.01192 c 2.547479,-0.0097 3.166181,-0.03838 3.322872,-0.154033 C 16.6895,27.37098 16.70089,27.32224 16.595101,27.214923 16.494286,27.112645 15.513765,27.071029 12.081946,27.02337 7.8715276,26.96489 7.6571166,26.95276 6.6774616,26.717413 c -0.561068,-0.134788 -1.070346,-0.295287 -1.131727,-0.356667 -0.08267,-0.08267 -0.04466,-0.324745 0.14665,-0.933923 0.758901,-2.416496 0.746694,-2.739083 -0.140049,-3.701086 l -0.392596,-0.425918 0.326616,-0.106271 c 0.179641,-0.05845 0.884563,-0.243701 1.566496,-0.411673 0.681932,-0.167971 1.380116,-0.34163 1.55152,-0.385909 0.378807,-0.09786 2.4154594,-1.155258 3.1349374,-1.627611 0.286565,-0.188138 0.744207,-0.461829 1.01698,-0.608201 0.272773,-0.146373 0.696811,-0.39591 0.942306,-0.554525 0.245497,-0.158616 0.51331,-0.318811 0.595142,-0.355989 0.08183,-0.03718 0.950993,-0.461946 1.931467,-0.943932 0.980475,-0.481986 2.096366,-0.969704 2.479755,-1.083821 0.38339,-0.114116 0.805317,-0.250618 0.937613,-0.303336 0.132296,-0.05271 0.868783,-0.13818 1.636639,-0.189912 2.172806,-0.146392 4.957971,0.06202 7.297917,0.5461 1.763478,0.364821 4.028341,1.16645 5.257081,1.8607 0.300051,0.169531 0.701771,0.395185 0.892712,0.501454 0.377734,0.210228 0.438242,0.25347 2.628541,1.87853 2.503326,1.857303 5.165669,4.094718 5.405402,4.542664 0.07855,0.146775 0.02585,0.16077 -0.476354,0.126487 -0.947763,-0.0647 -2.120231,-0.204205 -2.746863,-0.326827 -1.536441,-0.300658 -2.10199,-0.419943 -2.33097,-0.491649 -0.136387,-0.04271 -0.448836,-0.133251 -0.694331,-0.201201 -0.245496,-0.06795 -0.587009,-0.184715 -0.758918,-0.25948 -0.171908,-0.07476 -0.346703,-0.135934 -0.38843,-0.135934 -0.162451,0 -2.10178,-0.992071 -2.221631,-1.136484 -0.06983,-0.08414 -0.189562,-0.152989 -0.266065,-0.152989 -0.158851,0 -0.332565,-0.392661 -0.332565,-0.751729 0,-0.133576 -0.04028,-0.320371 -0.08952,-0.415102 -0.04923,-0.09473 -0.147866,-0.373097 -0.219176,-0.618592 -0.254374,-0.875735 -0.603461,-1.415068 -1.122015,-1.733489 -0.536148,-0.329227 -0.265748,-0.313466 -3.826368,-0.223019 -0.409159,0.01039 -1.234918,-0.04179 -1.835019,-0.11596 -1.743715,-0.215521 -3.861204,-0.0282 -6.148411,0.543912 -1.028154,0.257178 -2.946596,0.869249 -3.248515,1.036424 -0.09473,0.05246 -0.231414,0.09537 -0.303737,0.09537 -0.07232,0 -0.316271,0.08927 -0.542102,0.198382 -0.225829,0.109108 -0.449039,0.19838 -0.496018,0.19838 -0.04698,0 -0.316731,0.111588 -0.599446,0.247975 -0.282717,0.136387 -0.546114,0.247976 -0.585329,0.247976 -0.156736,0 -3.8865094,1.895635 -4.4428254,2.258041 -0.710569,0.462887 -1.225596,0.973385 -1.306256,1.294763 -0.110344,0.439645 0.180858,1.015957 0.857153,1.696378 0.356773,0.35895 0.839063,0.782115 1.071756,0.940366 0.3570254,0.242808 0.4599184,0.270945 0.6590554,0.18021 0.136304,-0.0621 0.285789,-0.258451 0.353908,-0.464851 l 0.117932,-0.357333 4.777067,0.02834 c 3.459788,0.02052 4.913825,-0.0045 5.273018,-0.09062 0.272773,-0.06543 0.674494,-0.163482 0.892713,-0.217905 0.218218,-0.05442 0.686891,-0.170069 1.041497,-0.256996 0.89002,-0.218175 2.749825,-0.833184 3.194933,-1.056514 0.202406,-0.101555 0.38138,-0.184647 0.397719,-0.184647 0.01634,0 0.02928,0.145065 0.02875,0.322369 l -9.65e-4,0.322368 0.597676,-0.02187 c 0.533122,-0.01952 0.608115,0.0019 0.694331,0.198379 0.06375,0.145283 0.199417,0.230317 0.398551,0.24981 0.281585,0.02757 0.299202,0.05262 0.261862,0.372467 -0.03652,0.312795 -0.0096,0.355646 0.307028,0.487922 0.190884,0.07976 0.764898,0.194247 1.275586,0.254423 0.51069,0.06017 1.089929,0.150918 1.287199,0.201652 0.19727,0.05073 0.474143,0.09224 0.615272,0.09224 0.463501,0 1.80457,0.633242 2.828861,1.335769 0.400352,0.274587 0.82439,0.564458 0.942308,0.644156 1.059678,0.716219 3.657293,3.36237 4.823667,4.913795 0.837712,1.11426 1.887688,2.710125 1.887688,2.869106 0,0.148983 -0.705572,0.554321 -0.955811,0.549095 -0.10165,-0.0022 -1.144509,-0.581848 -2.317433,-1.28828 z"
         id="path992" />
      <path
         style="fill:#ffffff;fill-opacity:1;stroke:#000000;stroke-width:0.374892;stroke-opacity:1"
         d="m 31.056889,21.964783 c -0.190941,-0.114849 -0.428822,-0.281033 -0.528625,-0.369298 -0.173295,-0.153258 -0.162137,-0.177186 0.247976,-0.53178 l 0.429434,-0.371298 -0.409413,-0.003 c -0.411209,-0.003 -0.745448,-0.218759 -0.53771,-0.347148 0.31776,-0.196387 -0.11662,-0.547571 -0.863098,-0.697791 -0.258409,-0.052 -0.322368,-0.113129 -0.322368,-0.308082 0,-0.329631 -0.265818,-0.408747 -0.636645,-0.189485 -0.287596,0.170049 -1.221404,0.645385 -1.721127,0.876107 -0.158256,0.07307 -0.256825,0.07233 -0.331649,-0.0025 -0.163818,-0.163818 0.561479,-0.903833 1.149372,-1.172694 0.510653,-0.233536 0.810561,-0.305247 1.703245,-0.407262 0.764008,-0.08731 1.464926,0.173979 1.772122,0.660609 0.523743,0.829663 0.914329,2.598177 0.645391,2.922231 -0.160265,0.193105 -0.181885,0.19098 -0.596905,-0.05865 z"
         id="path994" />
      <path
         style="fill:#ffffff;fill-opacity:1;stroke:#000000;stroke-width:0.374892;stroke-opacity:1"
         d="m 24.753781,13.7505 c 0.108082,-0.17488 1.662891,-1.216802 2.158253,-1.446306 0.453174,-0.20996 0.530745,-0.218724 0.87156,-0.09848 0.434262,0.153217 1.110299,0.564742 1.394329,0.848771 0.160358,0.160358 0.176686,0.235758 0.08724,0.402885 l -0.110038,0.20561 -0.19097,-0.204985 c -0.157302,-0.168844 -0.23691,-0.187516 -0.451539,-0.105915 -0.143311,0.05449 -0.267886,0.08666 -0.276832,0.07149 -0.35897,-0.608557 -0.598901,-0.725605 -0.85495,-0.417084 -0.20538,0.247465 -0.801228,0.514142 -1.522556,0.681429 -0.751054,0.17418 -1.188801,0.198983 -1.104498,0.06258 z"
         id="path996" />
      <path
         style="fill:#ffffff;fill-opacity:1;stroke:#000000;stroke-width:0.374892;stroke-opacity:1"
         d="m 21.534628,43.349111 c -2.209462,-1.281537 -4.084157,-2.370947 -4.165989,-2.420909 -0.53985,-0.32962 -6.625474,-3.844504 -8.4033654,-4.853549 l -1.509647,-0.856799 -0.003,-2.936358 c -0.003,-2.937795 0.05782,-4.191166 0.199143,-4.103821 0.04139,0.02559 1.296119,0.252103 2.7882754,0.503378 4.27744,0.720309 4.592613,0.789396 6.829409,1.49703 1.409379,0.445872 1.864358,0.668247 3.138629,1.534035 2.649684,1.800289 5.331337,4.542546 7.246597,7.410362 0.744162,1.114274 2.211932,3.860687 2.211932,4.138853 0,0.266721 -3.623156,2.42219 -4.0668,2.419401 -0.141366,-9.65e-4 -1.97505,-1.0033 -4.265179,-2.331623 z"
         id="path998" />
      <path
         style="fill:#ffffff;fill-opacity:1;stroke:#ffffff;stroke-width:0.126269;stroke-opacity:1"
         d="m 16.740627,22.120779 c 0.02543,-0.169576 -0.04096,-0.357759 -0.175929,-0.49867 l -0.088,-0.09187 h 0.169095 c 0.093,0 0.231836,0.02214 0.308523,0.04919 0.146589,0.05172 0.505057,0.254815 0.501877,0.284347 -0.005,0.04671 -0.623967,0.40145 -0.700439,0.40145 -0.02445,0 -0.02952,-0.04846 -0.01513,-0.144447 z"
         id="path1000" />
    </g>
  </g>
</svg>
