<?xml version="1.0" encoding="UTF-8" standalone="no"?>
<svg
   xmlns:dc="http://purl.org/dc/elements/1.1/"
   xmlns:cc="http://creativecommons.org/ns#"
   xmlns:rdf="http://www.w3.org/1999/02/22-rdf-syntax-ns#"
   xmlns:svg="http://www.w3.org/2000/svg"
   xmlns="http://www.w3.org/2000/svg"
   xmlns:sodipodi="http://sodipodi.sourceforge.net/DTD/sodipodi-0.dtd"
   xmlns:inkscape="http://www.inkscape.org/namespaces/inkscape"
   width="50mm"
   height="50mm"
   viewBox="0 0 50 50"
   version="1.1"
   id="svg8"
   inkscape:version="1.0.1 (3bc2e813f5, 2020-09-07)"
   sodipodi:docname="emaillogo.svg">
  <defs
     id="defs2">
    <inkscape:path-effect
       effect="bend_path"
       id="path-effect2062"
       is_visible="true"
       lpeversion="1"
       bendpath="m 24.066183,62.596359 c -1.104209,-5.560084 -0.635813,-11.423701 1.33707,-16.737979 1.972883,-5.314262 5.44425,-10.063019 9.909199,-13.555604 4.464935,-3.492572 9.909885,-5.718315 15.54285,-6.353505 5.632966,-0.63518 11.436844,0.322135 16.567429,2.732697 5.130597,2.410566 9.572306,6.267055 12.679111,11.008531 3.106778,4.741465 4.869192,10.353524 5.030903,16.0199 0.161686,5.666351 -1.277824,11.369797 -4.109162,16.280724 -2.831363,4.910937 -7.045924,9.014451 -12.030704,11.713678 -7.603527,4.117255 -16.972585,4.827458 -25.109878,1.903406 -8.137276,-2.924046 -14.91144,-9.435149 -18.155324,-17.450311"
       prop_scale="1"
       scale_y_rel="false"
       vertical="false"
       hide_knot="false" />
    <inkscape:path-effect
       effect="bend_path"
       id="path-effect2060"
       is_visible="true"
       lpeversion="1"
       bendpath="M 24.637501,60.866201 C 23.533297,55.306115 24.00169,49.442499 25.97457,44.128222 c 1.972889,-5.31426 5.444251,-10.063019 9.9092,-13.555604 4.464932,-3.492573 9.909882,-5.718317 15.54286,-6.353507 5.632966,-0.63518 11.436844,0.322137 16.567429,2.732698 5.130598,2.410567 9.572306,6.267056 12.679111,11.008535 3.106779,4.74146 4.869192,10.353521 5.030904,16.019897 0.161685,5.666349 -1.277825,11.369796 -4.109175,16.280722 -2.831351,4.910938 -7.045912,9.014453 -12.030692,11.713681 -7.603526,4.117245 -16.972585,4.827461 -25.109878,1.903408 C 36.317037,80.954003 29.542881,74.4429 26.299001,66.427738"
       prop_scale="1"
       scale_y_rel="false"
       vertical="false"
       hide_knot="false" />
    <inkscape:path-effect
       effect="bend_path"
       id="path-effect995"
       is_visible="true"
       lpeversion="1"
       bendpath="m 92.051349,82.917229 c -0.849636,-4.278242 -0.489228,-8.790038 1.028816,-12.879141 1.518052,-4.08909 4.189113,-7.743052 7.624695,-10.430443 3.43557,-2.687382 7.62522,-4.399994 11.95955,-4.888745 4.33432,-0.488743 8.80015,0.24787 12.74791,2.102691 3.94777,1.854826 7.36547,4.822225 9.75602,8.470585 2.39053,3.648346 3.74663,7.966581 3.87106,12.326609 0.12441,4.360007 -0.98323,8.748559 -3.16183,12.527302 -2.1786,3.778751 -5.42152,6.936226 -9.25709,9.013164 -5.85058,3.168039 -13.05966,3.714519 -19.32095,1.464589 -6.26129,-2.249928 -11.473706,-7.259936 -13.969729,-13.427252"
       prop_scale="1"
       scale_y_rel="false"
       vertical="false"
       hide_knot="false" />
    <inkscape:path-effect
       effect="bend_path"
       id="path-effect1929"
       is_visible="true"
       lpeversion="1"
       bendpath="m 90.694577,83.331342 c -0.84964,-4.278241 -0.48923,-8.790037 1.028817,-12.879141 1.518047,-4.089092 4.189112,-7.743052 7.624694,-10.430443 3.435572,-2.687381 7.625222,-4.399993 11.959542,-4.888744 4.33432,-0.488743 8.80015,0.247869 12.74791,2.102691 3.94777,1.854825 7.36547,4.822224 9.75602,8.470582 2.39053,3.648349 3.74663,7.966583 3.87106,12.326611 0.12441,4.360008 -0.98323,8.74856 -3.16182,12.527303 -2.17861,3.778751 -5.42153,6.936225 -9.2571,9.013162 -5.85058,3.168047 -13.05966,3.714517 -19.32095,1.464587 C 99.681473,98.788025 94.469051,93.778017 91.973024,87.610701"
       prop_scale="1"
       scale_y_rel="false"
       vertical="false"
       hide_knot="false" />
    <clipPath
       clipPathUnits="userSpaceOnUse"
       id="clipPath2077">
      <rect
         style="opacity:0.985;fill:#00ff00;fill-opacity:0.988235;stroke:none;stroke-width:0.0736509"
         id="rect2079"
         width="28.053713"
         height="13.795664"
         x="58.591713"
         y="-66.232529"
         transform="matrix(-0.30004989,0.95392351,-0.9530627,-0.302773,0,0)" />
    </clipPath>
  </defs>
  <sodipodi:namedview
     id="base"
     pagecolor="#ffffff"
     bordercolor="#666666"
     borderopacity="1.0"
     inkscape:pageopacity="0.0"
     inkscape:pageshadow="2"
     inkscape:zoom="0.7"
     inkscape:cx="383.76722"
     inkscape:cy="153.30805"
     inkscape:document-units="mm"
     inkscape:current-layer="layer1"
     inkscape:document-rotation="0"
     showgrid="false"
     inkscape:window-width="1920"
     inkscape:window-height="1003"
     inkscape:window-x="1920"
     inkscape:window-y="27"
     inkscape:window-maximized="1" />
  <metadata
     id="metadata5">
    <rdf:RDF>
      <cc:Work
         rdf:about="">
        <dc:format>image/svg+xml</dc:format>
        <dc:type
           rdf:resource="http://purl.org/dc/dcmitype/StillImage" />
        <dc:title></dc:title>
      </cc:Work>
    </rdf:RDF>
  </metadata>
  <g
     inkscape:label="Layer 1"
     inkscape:groupmode="layer"
     id="layer1">
    <rect
       style="fill:#000000;stroke:#000000;stroke-width:1.43622"
       id="rect863"
       width="48.793159"
       height="48.793159"
       x="0.75144833"
       y="0.69083565"
       rx="6.6066232" />
    <path
       style="fill:#ffffff;stroke:none;stroke-width:5.39933"
       d="m -270.25511,84.543707 c 4.56697,-1.658971 8.0579,-3.261986 7.75763,-3.562257 -0.30026,-0.300271 -5.53984,0.409557 -11.64351,1.577386 -27.81377,5.321643 -66.6809,0.102 -80.5653,-10.819457 -3.74915,-2.949072 -1.97562,-3.778986 2.71318,-1.269615 1.54348,0.826029 4.76133,1.749315 7.15079,2.051715 7.34937,0.930114 13.39164,2.467057 14.14078,3.596914 0.39286,0.592514 4.89286,1.453228 10,1.912714 6.01115,0.540814 8.02627,0.399729 5.71429,-0.400071 -3.19231,-1.104357 -2.96485,-1.255243 2.14286,-1.421357 8.02185,-0.260886 4.16272,-2.102615 -10.71429,-5.113272 -11.7243,-2.372643 -17.06749,-4.143828 -31.98791,-10.603543 -10.12257,-4.382514 -7.27769,-5.044528 3.26637,-0.7601 17.2751,7.0195 31.41353,9.437943 53.51465,9.153929 19.57062,-0.251514 32.99255,-2.008729 31.67136,-4.146443 -0.8761,-1.417571 9.33296,-4.442014 11.27124,-3.339114 0.8525,0.485071 1.10623,0.388685 0.56385,-0.2142 -0.54237,-0.602872 2.67191,-3.045443 7.14285,-5.427915 10.1476,-5.407442 25.59163,-17.160757 23.4761,-17.865942 -0.86777,-0.289258 2.49253,-5.5675 7.46733,-11.729429 12.10086,-14.988471 16.31716,-22.4537429 21.80259,-38.603114 2.53934,-7.475972 4.63847,-12.949815 4.66473,-12.1641 0.0263,0.785714 0.6709,0.464285 1.43255,-0.714286 0.76166,-1.178571 1.34949,-3.107143 1.30629,-4.285714 -0.0511,-1.396672 -0.4912,-1.147943 -1.26363,0.714285 -0.66813,1.610786 -0.85018,-4.009057 -0.41734,-12.882885 1.66571,-34.149553 -9.2549,-62.219126 -32.25039,-82.894046 -3.89424,-3.50126 -7.7531,-6.36593 -8.57525,-6.36593 -0.82215,0 -2.33483,-1.17512 -3.36153,-2.61138 -1.02669,-1.43626 -4.75957,-4.37665 -8.29529,-6.5342 -3.53571,-2.15754 -9.91337,-6.44671 -14.17256,-9.53147 -4.2592,-3.08476 -9.08062,-5.63144 -10.71428,-5.65928 -1.63367,-0.0278 -4.57744,-0.96935 -6.54173,-2.09224 -4.20124,-2.40164 -9.35919,-3.05957 -5.71429,-0.72888 1.436,0.91822 -0.3228,1.08198 -5.33176,0.49642 -5.12873,-0.59955 -8.16998,-0.2967 -9.69019,0.96497 -1.65214,1.37115 -5.92721,1.61414 -16.81109,0.95552 -14.31089,-0.86601 -14.83103,-0.78661 -26.67187,4.07151 -11.12609,4.56488 -21.07604,6.97069 -13.2808,3.21118 3.31698,-1.59971 4.34928,-3.97072 1.7288,-3.97072 -0.81701,0 -3.91359,1.23873 -6.88128,2.75273 -5.69008,2.90287 -10.24998,7.24727 -7.60675,7.24727 0.83555,0 1.91649,-0.64285 2.40209,-1.42857 0.4856,-0.78571 1.86413,-1.42857 3.0634,-1.42857 1.2792,0 -1.11763,3.37799 -5.79859,8.17228 -4.3885,4.49476 -7.9791,8.89512 -7.9791,9.77859 0,0.88347 -1.35412,2.83094 -3.00916,4.32772 -4.06204,3.67362 -8.781,13.07707 -6.88042,13.7106 0.81664,0.27221 -0.41351,3.11548 -2.73367,6.31836 -2.32016,3.202893 -5.26702,7.851107 -6.54858,10.329371 -2.43722,4.713056 -6.21331,6.437585 -4.39227,2.005936 1.42816,-3.475554 4.82896,-15.652097 6.28405,-22.499997 0.66782,-3.14286 1.70845,-6.90426 2.31252,-8.35866 1.04095,-2.50628 0.87261,-2.52766 -3.22374,-0.40936 -4.33735,2.24293 -10.69525,11.1719 -10.15413,14.26034 0.15905,0.9078 -0.46601,4.22196 -1.38902,7.36482 -1.92529,6.555566 -2.17536,10.790266 -0.62272,10.545113 2.6891,-0.424596 2.95393,0.481743 1.40604,4.81203 l -1.65962,4.642857 -0.76607,-3.889167 c -0.5471,-2.777515 -1.30601,-3.551832 -2.65509,-2.708985 -2.94014,1.836875 -4.46828,10.979476 -4.50547,26.955295 -0.0346,14.887686 -1.82641,19.195271 -3.86244,9.285714 -1.80376,-8.779088 -1.02254,-24.750484 1.67704,-34.285714 1.3903,-4.910715 3.0729,-8.928572 3.73911,-8.928572 1.80728,0 7.23011,-11.302611 6.21267,-12.948851 -0.48346,-0.78227 0.8794,-4.42283 3.02859,-8.09014 2.53609,-4.3275 3.32706,-6.86135 2.25357,-7.21918 -2.60351,-0.86784 -1.96735,-3.39398 2.58139,-10.2506 2.32277,-3.50126 3.93354,-6.65559 3.5795,-7.00963 -0.91666,-0.91666 -6.70813,5.63871 -9.24351,10.46274 -1.17857,2.24245 -3.12766,4.33566 -4.3313,4.65157 -1.20365,0.31591 -3.4282,2.41898 -4.94345,4.67349 -2.92229,4.34803 -5.96688,4.47177 -3.65312,0.14847 0.87034,-1.62624 0.86696,-3.05021 -0.009,-3.92648 -0.8808,-0.8808 0.47322,-3.53398 3.76782,-7.38298 4.5646,-5.33271 5.81319,-7.78918 6.20292,-12.2036 0.0601,-0.68092 1.37138,-0.908 2.91392,-0.50462 2.87851,0.75275 6.48634,-2.06161 4.80203,-3.74592 -0.51699,-0.51699 -0.0798,-0.93998 0.97156,-0.93998 1.05136,0 4.65302,-2.86116 8.0037,-6.35812 5.96249,-6.2228 19.40098,-14.32566 21.04024,-12.6864 0.45501,0.45501 2.98352,-0.44493 5.61892,-1.99985 2.6354,-1.55493 8.28785,-3.64797 12.561,-4.6512 4.27315,-1.00324 8.41222,-2.22109 9.19793,-2.70634 3.24995,-2.00713 20.8508,-4.79326 32.85714,-5.20113 18.09354,-0.61465 19.40535,-0.80852 14.28572,-2.11125 -2.35715,-0.59979 -11.67857,-1.24498 -20.71429,-1.43375 -15.78796,-0.32984 -16.09434,-0.39392 -7.85714,-1.64337 4.71428,-0.71509 13.55508,-1.11884 19.64621,-0.89723 10.87423,0.39563 14.20459,-0.56615 7.85379,-2.2681 -1.76786,-0.47376 -8.03572,-0.9358 -13.92857,-1.02674 -9.55492,-0.14745 -10.21327,-0.32612 -6.0841,-1.6511 3.46921,-1.11322 8.84225,-0.8538 21.42857,1.03458 27.58997,4.13945 44.62504,9.09886 57.76706,16.81769 3.67562,2.15884 7.41,3.92516 8.2986,3.92516 0.8886,0 1.25392,0.58527 0.81182,1.30058 -0.44208,0.71532 2.9177,4.41175 7.4662,8.21429 11.36503,9.50115 21.9075,21.41785 29.82169,33.70902 3.66449,5.69115 7.8417,12.08449 9.2827,14.20743 3.0554,4.50133 8.64051,21.017966 11.2566,33.288717 2.39846,11.249963 2.4523,43.428867 0.0909,54.279967 -2.77616,12.756557 -9.99206,34.7424574 -14.06595,42.857143 -1.9723,3.928572 -5.91365,9.3977 -8.75858,12.153629 -2.84492,2.755928 -10.52624,10.956543 -17.0696,18.223585 -18.26127,20.2809 -46.4855,37.17 -66.16374,39.591715 l -6.22495,0.766085 8.30357,-3.016314 z m -8.10943,-8.332914 c 2.21993,-1.3779 1.86001,-1.498143 -2.1633,-0.7227 -2.65446,0.511628 -10.69017,1.462457 -17.85714,2.112957 l -13.03084,1.182729 15.19414,-0.460043 c 8.35677,-0.253015 16.39249,-1.203843 17.85714,-2.112943 z m 111.46626,-141.885786 c -0.3963,-0.982143 -0.72056,-0.178571 -0.72056,1.785714 0,1.964286 0.32426,2.767858 0.72056,1.785715 0.3963,-0.982143 0.3963,-2.589286 0,-3.571429 z m -2.29936,-15.873303 c -1.50467,-3.95757 -3.32785,-5.322181 -2.17335,-1.626697 0.3682,1.178571 1.00601,3.199154 1.41737,4.490183 0.41134,1.29103 1.0722,2.023043 1.46854,1.626697 0.39634,-0.396344 0.0757,-2.416927 -0.71256,-4.490183 z m -131.14675,-76.144244 c -0.98215,-0.3963 -2.58929,-0.3963 -3.57143,0 -0.98215,0.39631 -0.17857,0.72055 1.78571,0.72055 1.96429,0 2.76786,-0.32424 1.78572,-0.72055 z"
       id="path968"
       transform="scale(0.26458333)" />
    <text
       xml:space="preserve"
       style="font-style:normal;font-variant:normal;font-weight:normal;font-stretch:normal;font-size:40.8803px;line-height:1.25;font-family:Dingbats;-inkscape-font-specification:Dingbats;letter-spacing:0px;word-spacing:0px;fill:#000000;fill-opacity:1;stroke:none;stroke-width:1.02201"
       x="0.95743871"
       y="38.017906"
       id="text1031"><tspan
         sodipodi:role="line"
         id="tspan1029"
         x="0.95743871"
         y="38.017906"
         style="stroke-width:1.02201">🖂</tspan></text>
    <path
       style="fill:#ffffff;fill-opacity:1;stroke:#ffffff;stroke-width:0.357143;stroke-opacity:1"
       d="m 15.533631,20.22582 -9.3138093,-7.334605 9.3449593,-0.02408 c 5.139726,-0.01325 13.534849,-0.01325 18.655825,0 l 9.31087,0.02408 -9.240088,7.276042 c -5.082048,4.001823 -9.285954,7.302394 -9.342017,7.334604 -0.05606,0.03221 -4.293145,-3.242008 -9.41574,-7.276041 z"
       id="path1033" />
    <path
       style="fill:#ffffff;fill-opacity:1;stroke:#ffffff;stroke-width:0.357143;stroke-opacity:1"
       d="m 6.0903717,25.657861 c 0,-9.458446 0.020849,-11.298999 0.1272963,-11.235811 0.4965356,0.294756 14.229037,11.221426 14.169538,11.274406 -0.04151,0.03697 -3.200871,2.524665 -7.020793,5.528222 -3.8199216,3.003556 -7.0197262,5.52481 -7.1106768,5.602788 -0.1573583,0.134911 -0.1653645,-0.40585 -0.1653645,-11.169605 z"
       id="path1035" />
    <path
       style="fill:#ffffff;fill-opacity:1;stroke:#ffffff;stroke-width:0.357143;stroke-opacity:1"
       d="m 6.4683501,38.172917 c 0.1299289,-0.09815 3.5520889,-2.790232 7.6048019,-5.982404 l 7.368567,-5.80395 1.324885,1.041408 c 0.728686,0.572775 1.498824,1.182177 1.711414,1.354225 l 0.38653,0.312817 1.681658,-1.321951 c 0.924914,-0.727072 1.718315,-1.321951 1.763117,-1.321951 0.07869,0 14.584486,11.372159 14.961832,11.729678 0.182029,0.172466 -0.246488,0.176503 -18.426339,0.173579 -18.267275,-0.0029 -18.6083176,-0.0063 -18.3764659,-0.181451 z"
       id="path1037" />
    <path
       style="fill:#ffffff;fill-opacity:1;stroke:#ffffff;stroke-width:0.357143;stroke-opacity:1"
       d="m 36.40082,31.251068 c -3.884071,-3.068315 -7.039665,-5.614807 -7.012431,-5.658874 0.02724,-0.04407 3.056284,-2.448785 6.731219,-5.343818 3.674936,-2.895032 6.862421,-5.410301 7.083301,-5.589482 l 0.4016,-0.325787 v 11.256174 c 0,6.190895 -0.03189,11.252658 -0.07087,11.248358 -0.03898,-0.0043 -3.248746,-2.518256 -7.132819,-5.586571 z"
       id="path1039" />
  </g>
</svg>
