<?xml version="1.0" encoding="UTF-8" standalone="no"?>
<svg
   xmlns:dc="http://purl.org/dc/elements/1.1/"
   xmlns:cc="http://creativecommons.org/ns#"
   xmlns:rdf="http://www.w3.org/1999/02/22-rdf-syntax-ns#"
   xmlns:svg="http://www.w3.org/2000/svg"
   xmlns="http://www.w3.org/2000/svg"
   xmlns:sodipodi="http://sodipodi.sourceforge.net/DTD/sodipodi-0.dtd"
   xmlns:inkscape="http://www.inkscape.org/namespaces/inkscape"
   width="200mm"
   height="50mm"
   viewBox="0 0 200 50"
   version="1.1"
   id="svg8"
   inkscape:version="1.0.1 (3bc2e813f5, 2020-09-07)"
   sodipodi:docname="faqsbutton.svg">
  <defs
     id="defs2">
    <inkscape:path-effect
       effect="bend_path"
       id="path-effect2062"
       is_visible="true"
       lpeversion="1"
       bendpath="m 24.066183,62.596359 c -1.104209,-5.560084 -0.635813,-11.423701 1.33707,-16.737979 1.972883,-5.314262 5.44425,-10.063019 9.909199,-13.555604 4.464935,-3.492572 9.909885,-5.718315 15.54285,-6.353505 5.632966,-0.63518 11.436844,0.322135 16.567429,2.732697 5.130597,2.410566 9.572306,6.267055 12.679111,11.008531 3.106778,4.741465 4.869192,10.353524 5.030903,16.0199 0.161686,5.666351 -1.277824,11.369797 -4.109162,16.280724 -2.831363,4.910937 -7.045924,9.014451 -12.030704,11.713678 -7.603527,4.117255 -16.972585,4.827458 -25.109878,1.903406 -8.137276,-2.924046 -14.91144,-9.435149 -18.155324,-17.450311"
       prop_scale="1"
       scale_y_rel="false"
       vertical="false"
       hide_knot="false" />
    <inkscape:path-effect
       effect="bend_path"
       id="path-effect2060"
       is_visible="true"
       lpeversion="1"
       bendpath="M 24.637501,60.866201 C 23.533297,55.306115 24.00169,49.442499 25.97457,44.128222 c 1.972889,-5.31426 5.444251,-10.063019 9.9092,-13.555604 4.464932,-3.492573 9.909882,-5.718317 15.54286,-6.353507 5.632966,-0.63518 11.436844,0.322137 16.567429,2.732698 5.130598,2.410567 9.572306,6.267056 12.679111,11.008535 3.106779,4.74146 4.869192,10.353521 5.030904,16.019897 0.161685,5.666349 -1.277825,11.369796 -4.109175,16.280722 -2.831351,4.910938 -7.045912,9.014453 -12.030692,11.713681 -7.603526,4.117245 -16.972585,4.827461 -25.109878,1.903408 C 36.317037,80.954003 29.542881,74.4429 26.299001,66.427738"
       prop_scale="1"
       scale_y_rel="false"
       vertical="false"
       hide_knot="false" />
    <inkscape:path-effect
       effect="bend_path"
       id="path-effect995"
       is_visible="true"
       lpeversion="1"
       bendpath="m 92.051349,82.917229 c -0.849636,-4.278242 -0.489228,-8.790038 1.028816,-12.879141 1.518052,-4.08909 4.189113,-7.743052 7.624695,-10.430443 3.43557,-2.687382 7.62522,-4.399994 11.95955,-4.888745 4.33432,-0.488743 8.80015,0.24787 12.74791,2.102691 3.94777,1.854826 7.36547,4.822225 9.75602,8.470585 2.39053,3.648346 3.74663,7.966581 3.87106,12.326609 0.12441,4.360007 -0.98323,8.748559 -3.16183,12.527302 -2.1786,3.778751 -5.42152,6.936226 -9.25709,9.013164 -5.85058,3.168039 -13.05966,3.714519 -19.32095,1.464589 -6.26129,-2.249928 -11.473706,-7.259936 -13.969729,-13.427252"
       prop_scale="1"
       scale_y_rel="false"
       vertical="false"
       hide_knot="false" />
    <inkscape:path-effect
       effect="bend_path"
       id="path-effect1929"
       is_visible="true"
       lpeversion="1"
       bendpath="m 90.694577,83.331342 c -0.84964,-4.278241 -0.48923,-8.790037 1.028817,-12.879141 1.518047,-4.089092 4.189112,-7.743052 7.624694,-10.430443 3.435572,-2.687381 7.625222,-4.399993 11.959542,-4.888744 4.33432,-0.488743 8.80015,0.247869 12.74791,2.102691 3.94777,1.854825 7.36547,4.822224 9.75602,8.470582 2.39053,3.648349 3.74663,7.966583 3.87106,12.326611 0.12441,4.360008 -0.98323,8.74856 -3.16182,12.527303 -2.17861,3.778751 -5.42153,6.936225 -9.2571,9.013162 -5.85058,3.168047 -13.05966,3.714517 -19.32095,1.464587 C 99.681473,98.788025 94.469051,93.778017 91.973024,87.610701"
       prop_scale="1"
       scale_y_rel="false"
       vertical="false"
       hide_knot="false" />
    <clipPath
       clipPathUnits="userSpaceOnUse"
       id="clipPath2077">
      <rect
         style="opacity:0.985;fill:#00ff00;fill-opacity:0.988235;stroke:none;stroke-width:0.0736509"
         id="rect2079"
         width="28.053713"
         height="13.795664"
         x="58.591713"
         y="-66.232529"
         transform="matrix(-0.30004989,0.95392351,-0.9530627,-0.302773,0,0)" />
    </clipPath>
  </defs>
  <sodipodi:namedview
     id="base"
     pagecolor="#ffffff"
     bordercolor="#666666"
     borderopacity="1.0"
     inkscape:pageopacity="0.0"
     inkscape:pageshadow="2"
     inkscape:zoom="0.7"
     inkscape:cx="696.90943"
     inkscape:cy="190.05021"
     inkscape:document-units="mm"
     inkscape:current-layer="layer1"
     inkscape:document-rotation="0"
     showgrid="false"
     inkscape:window-width="1920"
     inkscape:window-height="1054"
     inkscape:window-x="0"
     inkscape:window-y="0"
     inkscape:window-maximized="1" />
  <metadata
     id="metadata5">
    <rdf:RDF>
      <cc:Work
         rdf:about="">
        <dc:format>image/svg+xml</dc:format>
        <dc:type
           rdf:resource="http://purl.org/dc/dcmitype/StillImage" />
        <dc:title />
      </cc:Work>
    </rdf:RDF>
  </metadata>
  <g
     inkscape:label="Layer 1"
     inkscape:groupmode="layer"
     id="layer1">
    <rect
       style="fill:#000000;stroke:#000000;stroke-width:1.42634"
       id="rect863"
       width="198.68723"
       height="48.862736"
       x="0.65741253"
       y="0.68589556"
       rx="6.5961337" />
    <path
       style="fill:#ffffff;stroke:none;stroke-width:5.39933"
       d="m -270.25511,84.543707 c 4.56697,-1.658971 8.0579,-3.261986 7.75763,-3.562257 -0.30026,-0.300271 -5.53984,0.409557 -11.64351,1.577386 -27.81377,5.321643 -66.6809,0.102 -80.5653,-10.819457 -3.74915,-2.949072 -1.97562,-3.778986 2.71318,-1.269615 1.54348,0.826029 4.76133,1.749315 7.15079,2.051715 7.34937,0.930114 13.39164,2.467057 14.14078,3.596914 0.39286,0.592514 4.89286,1.453228 10,1.912714 6.01115,0.540814 8.02627,0.399729 5.71429,-0.400071 -3.19231,-1.104357 -2.96485,-1.255243 2.14286,-1.421357 8.02185,-0.260886 4.16272,-2.102615 -10.71429,-5.113272 -11.7243,-2.372643 -17.06749,-4.143828 -31.98791,-10.603543 -10.12257,-4.382514 -7.27769,-5.044528 3.26637,-0.7601 17.2751,7.0195 31.41353,9.437943 53.51465,9.153929 19.57062,-0.251514 32.99255,-2.008729 31.67136,-4.146443 -0.8761,-1.417571 9.33296,-4.442014 11.27124,-3.339114 0.8525,0.485071 1.10623,0.388685 0.56385,-0.2142 -0.54237,-0.602872 2.67191,-3.045443 7.14285,-5.427915 10.1476,-5.407442 25.59163,-17.160757 23.4761,-17.865942 -0.86777,-0.289258 2.49253,-5.5675 7.46733,-11.729429 12.10086,-14.988471 16.31716,-22.4537429 21.80259,-38.603114 2.53934,-7.475972 4.63847,-12.949815 4.66473,-12.1641 0.0263,0.785714 0.6709,0.464285 1.43255,-0.714286 0.76166,-1.178571 1.34949,-3.107143 1.30629,-4.285714 -0.0511,-1.396672 -0.4912,-1.147943 -1.26363,0.714285 -0.66813,1.610786 -0.85018,-4.009057 -0.41734,-12.882885 1.66571,-34.149553 -9.2549,-62.219126 -32.25039,-82.894046 -3.89424,-3.50126 -7.7531,-6.36593 -8.57525,-6.36593 -0.82215,0 -2.33483,-1.17512 -3.36153,-2.61138 -1.02669,-1.43626 -4.75957,-4.37665 -8.29529,-6.5342 -3.53571,-2.15754 -9.91337,-6.44671 -14.17256,-9.53147 -4.2592,-3.08476 -9.08062,-5.63144 -10.71428,-5.65928 -1.63367,-0.0278 -4.57744,-0.96935 -6.54173,-2.09224 -4.20124,-2.40164 -9.35919,-3.05957 -5.71429,-0.72888 1.436,0.91822 -0.3228,1.08198 -5.33176,0.49642 -5.12873,-0.59955 -8.16998,-0.2967 -9.69019,0.96497 -1.65214,1.37115 -5.92721,1.61414 -16.81109,0.95552 -14.31089,-0.86601 -14.83103,-0.78661 -26.67187,4.07151 -11.12609,4.56488 -21.07604,6.97069 -13.2808,3.21118 3.31698,-1.59971 4.34928,-3.97072 1.7288,-3.97072 -0.81701,0 -3.91359,1.23873 -6.88128,2.75273 -5.69008,2.90287 -10.24998,7.24727 -7.60675,7.24727 0.83555,0 1.91649,-0.64285 2.40209,-1.42857 0.4856,-0.78571 1.86413,-1.42857 3.0634,-1.42857 1.2792,0 -1.11763,3.37799 -5.79859,8.17228 -4.3885,4.49476 -7.9791,8.89512 -7.9791,9.77859 0,0.88347 -1.35412,2.83094 -3.00916,4.32772 -4.06204,3.67362 -8.781,13.07707 -6.88042,13.7106 0.81664,0.27221 -0.41351,3.11548 -2.73367,6.31836 -2.32016,3.202893 -5.26702,7.851107 -6.54858,10.329371 -2.43722,4.713056 -6.21331,6.437585 -4.39227,2.005936 1.42816,-3.475554 4.82896,-15.652097 6.28405,-22.499997 0.66782,-3.14286 1.70845,-6.90426 2.31252,-8.35866 1.04095,-2.50628 0.87261,-2.52766 -3.22374,-0.40936 -4.33735,2.24293 -10.69525,11.1719 -10.15413,14.26034 0.15905,0.9078 -0.46601,4.22196 -1.38902,7.36482 -1.92529,6.555566 -2.17536,10.790266 -0.62272,10.545113 2.6891,-0.424596 2.95393,0.481743 1.40604,4.81203 l -1.65962,4.642857 -0.76607,-3.889167 c -0.5471,-2.777515 -1.30601,-3.551832 -2.65509,-2.708985 -2.94014,1.836875 -4.46828,10.979476 -4.50547,26.955295 -0.0346,14.887686 -1.82641,19.195271 -3.86244,9.285714 -1.80376,-8.779088 -1.02254,-24.750484 1.67704,-34.285714 1.3903,-4.910715 3.0729,-8.928572 3.73911,-8.928572 1.80728,0 7.23011,-11.302611 6.21267,-12.948851 -0.48346,-0.78227 0.8794,-4.42283 3.02859,-8.09014 2.53609,-4.3275 3.32706,-6.86135 2.25357,-7.21918 -2.60351,-0.86784 -1.96735,-3.39398 2.58139,-10.2506 2.32277,-3.50126 3.93354,-6.65559 3.5795,-7.00963 -0.91666,-0.91666 -6.70813,5.63871 -9.24351,10.46274 -1.17857,2.24245 -3.12766,4.33566 -4.3313,4.65157 -1.20365,0.31591 -3.4282,2.41898 -4.94345,4.67349 -2.92229,4.34803 -5.96688,4.47177 -3.65312,0.14847 0.87034,-1.62624 0.86696,-3.05021 -0.009,-3.92648 -0.8808,-0.8808 0.47322,-3.53398 3.76782,-7.38298 4.5646,-5.33271 5.81319,-7.78918 6.20292,-12.2036 0.0601,-0.68092 1.37138,-0.908 2.91392,-0.50462 2.87851,0.75275 6.48634,-2.06161 4.80203,-3.74592 -0.51699,-0.51699 -0.0798,-0.93998 0.97156,-0.93998 1.05136,0 4.65302,-2.86116 8.0037,-6.35812 5.96249,-6.2228 19.40098,-14.32566 21.04024,-12.6864 0.45501,0.45501 2.98352,-0.44493 5.61892,-1.99985 2.6354,-1.55493 8.28785,-3.64797 12.561,-4.6512 4.27315,-1.00324 8.41222,-2.22109 9.19793,-2.70634 3.24995,-2.00713 20.8508,-4.79326 32.85714,-5.20113 18.09354,-0.61465 19.40535,-0.80852 14.28572,-2.11125 -2.35715,-0.59979 -11.67857,-1.24498 -20.71429,-1.43375 -15.78796,-0.32984 -16.09434,-0.39392 -7.85714,-1.64337 4.71428,-0.71509 13.55508,-1.11884 19.64621,-0.89723 10.87423,0.39563 14.20459,-0.56615 7.85379,-2.2681 -1.76786,-0.47376 -8.03572,-0.9358 -13.92857,-1.02674 -9.55492,-0.14745 -10.21327,-0.32612 -6.0841,-1.6511 3.46921,-1.11322 8.84225,-0.8538 21.42857,1.03458 27.58997,4.13945 44.62504,9.09886 57.76706,16.81769 3.67562,2.15884 7.41,3.92516 8.2986,3.92516 0.8886,0 1.25392,0.58527 0.81182,1.30058 -0.44208,0.71532 2.9177,4.41175 7.4662,8.21429 11.36503,9.50115 21.9075,21.41785 29.82169,33.70902 3.66449,5.69115 7.8417,12.08449 9.2827,14.20743 3.0554,4.50133 8.64051,21.017966 11.2566,33.288717 2.39846,11.249963 2.4523,43.428867 0.0909,54.279967 -2.77616,12.756557 -9.99206,34.7424574 -14.06595,42.857143 -1.9723,3.928572 -5.91365,9.3977 -8.75858,12.153629 -2.84492,2.755928 -10.52624,10.956543 -17.0696,18.223585 -18.26127,20.2809 -46.4855,37.17 -66.16374,39.591715 l -6.22495,0.766085 8.30357,-3.016314 z m -8.10943,-8.332914 c 2.21993,-1.3779 1.86001,-1.498143 -2.1633,-0.7227 -2.65446,0.511628 -10.69017,1.462457 -17.85714,2.112957 l -13.03084,1.182729 15.19414,-0.460043 c 8.35677,-0.253015 16.39249,-1.203843 17.85714,-2.112943 z m 111.46626,-141.885786 c -0.3963,-0.982143 -0.72056,-0.178571 -0.72056,1.785714 0,1.964286 0.32426,2.767858 0.72056,1.785715 0.3963,-0.982143 0.3963,-2.589286 0,-3.571429 z m -2.29936,-15.873303 c -1.50467,-3.95757 -3.32785,-5.322181 -2.17335,-1.626697 0.3682,1.178571 1.00601,3.199154 1.41737,4.490183 0.41134,1.29103 1.0722,2.023043 1.46854,1.626697 0.39634,-0.396344 0.0757,-2.416927 -0.71256,-4.490183 z m -131.14675,-76.144244 c -0.98215,-0.3963 -2.58929,-0.3963 -3.57143,0 -0.98215,0.39631 -0.17857,0.72055 1.78571,0.72055 1.96429,0 2.76786,-0.32424 1.78572,-0.72055 z"
       id="path968"
       transform="scale(0.26458333)" />
    <path
       style="fill:#ffffff;stroke:#ffffff;stroke-width:5.39933"
       d="m 182.21227,163.5983 c -3.30865,-2.91122 -4.43772,-3.22042 -6.66972,-1.82651 -2.11148,1.31864 -3.20558,1.24743 -5.10934,-0.33255 -2.1272,-1.76542 -2.30169,-3.93175 -1.43139,-17.7712 2.35257,-37.41013 8.98848,-74.85154 14.30808,-80.729636 3.58068,-3.956611 2.70934,-6.07634 -2.11476,-5.144558 -2.35714,0.455285 -6.11185,1.177801 -8.34379,1.60559 -2.57634,0.493795 -4.67182,0.03829 -5.73894,-1.247503 -1.73071,-2.085387 -0.83283,-6.673152 1.30602,-6.673152 1.65534,0 9.76097,-8.772134 10.65203,-11.527914 1.22765,-3.796717 34.21665,-10.116685 61.81065,-11.84156 10.61155,-0.663318 12.00677,-0.454485 13.55793,2.029318 0.951,1.5228 3.15898,2.768728 4.90662,2.768728 3.81392,0 6.47801,4.411366 5.86613,9.713504 -0.43532,3.772152 -0.76283,3.895812 -14.73093,5.56203 -58.29798,6.954214 -56.42857,6.627552 -56.42857,9.860424 0,1.195758 2.24069,2.331436 5.68731,2.882573 8.86901,1.418212 9.50895,3.151716 5.95317,16.126453 -4.77067,17.40777 -4.81518,17.29305 5.85952,15.102362 13.67486,-2.806389 34.14833,-5.302502 38.92857,-4.746146 3.29157,0.383096 4.40076,1.314266 4.78168,4.01425 0.27278,1.933497 1.47384,4.230487 2.66901,5.104421 1.57437,1.151203 1.89942,2.834815 1.17984,6.111026 -0.54626,2.48713 -1.43713,4.79641 -1.9797,5.13174 -0.74782,0.46217 -36.42364,5.83521 -55.93655,8.42445 -3.16289,0.41969 -3.92915,5.34288 -4.11669,26.44969 -0.093,10.46236 -0.8345,20.26594 -1.64785,21.78571 -2.05821,3.8458 -8.3525,3.44983 -13.21833,-0.83154 z"
       id="path840"
       transform="scale(0.26458333)" />
    <path
       style="fill:#ffffff;stroke:#ffffff;stroke-width:5.39933"
       d="m 358.51955,160.38944 c -0.74114,-1.38484 -3.49591,-13.26992 -6.12169,-26.41128 -2.62578,-13.14136 -5.417,-23.91436 -6.20272,-23.94 -0.78571,-0.0256 -8.5485,1.99185 -17.25063,4.48331 l -15.82207,4.52993 -7.205,20.85655 c -6.5482,18.95528 -7.53358,20.8964 -10.8094,21.29369 -3.57991,0.43418 -7.79353,-3.78607 -10.06417,-10.08 -0.52148,-1.44549 -2.3628,-2.5 -4.36533,-2.5 -3.39173,0 -5.95538,-3.33256 -4.4444,-5.77738 0.4194,-0.67861 0.97102,-4.31703 1.22582,-8.08537 0.98729,-14.60158 40.92469,-97.515136 47.00474,-97.585988 0.95174,-0.01109 4.57167,-2.58252 8.04428,-5.714286 7.40447,-6.677704 12.47502,-7.456867 13.81382,-2.122692 0.493,1.964286 1.42637,3.571429 2.07415,3.571429 1.65346,0 25.99892,74.170757 31.34621,95.499257 3.55478,14.17879 4.07848,18.05733 2.66772,19.7572 -0.96545,1.16329 -1.79466,4.13417 -1.84269,6.60194 -0.0698,3.58734 -0.88886,4.7702 -4.08542,5.90017 -2.86349,1.01223 -4.8049,0.90945 -6.84108,-0.36217 -2.3323,-1.45654 -3.23629,-1.38217 -5.03252,0.41407 -2.85036,2.85036 -4.43411,2.76496 -6.08962,-0.32838 z M 339.40943,90.507109 c 3.81709,-0.91041 3.92263,-2.522828 1.07577,-16.434933 -3.36031,-16.421177 -3.65466,-17.376952 -4.9319,-16.014316 -1.14868,1.225479 -12.92958,32.469594 -12.92958,34.290526 0,0.852017 10.17148,-0.263725 16.78571,-1.841277 z"
       id="path842"
       transform="scale(0.26458333)" />
    <path
       style="fill:#ffffff;stroke:#ffffff;stroke-width:5.39933"
       d="m 408.71477,162.11029 c -3.58293,-2.14745 -7.6261,-6.31352 -9.91079,-10.21205 -7.49272,-12.78537 -5.83854,-39.56185 3.98436,-64.495553 9.09326,-23.08161 26.05466,-46.073084 38.78383,-52.572152 17.69226,-9.033051 44.28452,-1.293844 49.01878,14.266049 0.51818,1.703066 1.9911,4.288975 3.27317,5.746466 1.91229,2.173953 2.33102,6.151577 2.33102,22.142857 v 19.492874 l -5,9.285719 c -2.75,5.10714 -8.08506,13.37922 -11.85569,18.38239 -3.77064,5.00318 -6.66349,9.25597 -6.42857,9.45065 0.23492,0.19468 3.31998,2.1437 6.85569,4.33116 3.53572,2.18746 6.82579,4.58519 7.31128,5.3283 1.50126,2.29789 -3.67012,14.5978 -6.3549,15.11484 -1.36646,0.26315 -4.1631,2.03416 -6.21475,3.93556 -2.05164,1.9014 -4.30679,3.4571 -5.01143,3.4571 -0.70465,0 -4.35065,-2.87114 -8.10223,-6.38031 l -6.82107,-6.38031 -5.54685,3.76918 c -14.05879,9.5532 -29.80034,11.63735 -40.31185,5.33723 z m 25.72958,-22.4356 6.82062,-3.19591 -4.96898,-7.34573 c -6.84105,-10.11326 -7.61823,-13.87248 -3.46883,-16.77883 4.95114,-3.46792 7.00238,-2.87412 14.74962,4.26972 l 7.09592,6.54326 2.69694,-3.33058 c 9.08689,-11.22183 13.73045,-27.593567 14.8211,-52.254534 0.89765,-20.296819 0.16354,-23.209037 -5.64934,-22.411199 -8.36942,1.148733 -10.73395,2.346279 -15.87677,8.041009 -18.8537,20.876993 -32.51362,51.437454 -32.86912,73.535994 -0.15453,9.60607 0.1671,10.95451 3.20075,13.41932 4.2415,3.44615 5.11016,3.41433 13.44809,-0.49252 z"
       id="path844"
       transform="scale(0.26458333)" />
    <path
       style="fill:#ffffff;stroke:#ffffff;stroke-width:5.39933"
       d="m 539.05229,168.658 c -2.35715,-1.47657 -5.91053,-2.73167 -7.89642,-2.78909 -1.98589,-0.0574 -5.03946,-1.10515 -6.78572,-2.32828 -1.74625,-1.22312 -3.17501,-1.84336 -3.17501,-1.37831 0,0.46506 -1.28571,0.15746 -2.85714,-0.68354 -5.59775,-2.99582 -3.0653,-5.6721 12.07337,-12.75907 17.04643,-7.98007 24.29309,-13.02428 27.43237,-19.09497 3.51378,-6.79491 -0.35539,-10.50313 -17.46042,-16.73413 C 514.76472,103.5583 508.338,98.18622 508.338,86.104004 c 0,-19.683054 28.46306,-43.956774 63.9279,-54.518661 12.39396,-3.69108 14.96174,-3.701327 18.24551,-0.07281 1.78441,1.971753 3.08116,2.425959 4.07855,1.428571 2.26481,-2.264814 7.38447,-1.731779 10.92825,1.137798 2.85861,2.314761 3.04258,3.137886 1.67633,7.5 -0.84408,2.694931 -2.61129,10.364161 -3.92714,17.042733 -1.31584,6.678571 -3.049,12.555214 -3.85145,13.059207 -2.70529,1.699093 -19.6396,0.816753 -21.23573,-1.10646 -0.84996,-1.02415 -1.3137,-5.678946 -1.04329,-10.472216 0.26773,-4.745727 -0.0483,-8.627423 -0.70234,-8.625991 -2.23285,0.0049 -21.02947,8.708134 -29.39086,13.60861 -8.03563,4.709555 -12.99144,11.137495 -12.99144,16.850562 0,2.374742 11.10396,6.502398 27.73803,10.311012 16.5923,3.79905 28.01356,11.438331 32.5989,21.804251 6.19364,14.00174 -0.82307,25.67648 -30.02404,49.95546 -5.03508,4.18639 -8.58586,6.05161 -11.32399,5.94849 -2.1939,-0.0826 -5.27462,0.19591 -6.84605,0.61895 -1.57142,0.42304 -4.78571,-0.43893 -7.14285,-1.91551 z"
       id="path846"
       transform="scale(0.26458333)" />
  </g>
</svg>
