<?xml version="1.0" encoding="UTF-8" standalone="no"?>
<svg
   xmlns:dc="http://purl.org/dc/elements/1.1/"
   xmlns:cc="http://creativecommons.org/ns#"
   xmlns:rdf="http://www.w3.org/1999/02/22-rdf-syntax-ns#"
   xmlns:svg="http://www.w3.org/2000/svg"
   xmlns="http://www.w3.org/2000/svg"
   xmlns:sodipodi="http://sodipodi.sourceforge.net/DTD/sodipodi-0.dtd"
   xmlns:inkscape="http://www.inkscape.org/namespaces/inkscape"
   width="200mm"
   height="50mm"
   viewBox="0 0 200 50"
   version="1.1"
   id="svg8"
   inkscape:version="1.0.1 (3bc2e813f5, 2020-09-07)"
   sodipodi:docname="homebutton.svg">
  <defs
     id="defs2">
    <inkscape:path-effect
       effect="bend_path"
       id="path-effect2062"
       is_visible="true"
       lpeversion="1"
       bendpath="m 24.066183,62.596359 c -1.104209,-5.560084 -0.635813,-11.423701 1.33707,-16.737979 1.972883,-5.314262 5.44425,-10.063019 9.909199,-13.555604 4.464935,-3.492572 9.909885,-5.718315 15.54285,-6.353505 5.632966,-0.63518 11.436844,0.322135 16.567429,2.732697 5.130597,2.410566 9.572306,6.267055 12.679111,11.008531 3.106778,4.741465 4.869192,10.353524 5.030903,16.0199 0.161686,5.666351 -1.277824,11.369797 -4.109162,16.280724 -2.831363,4.910937 -7.045924,9.014451 -12.030704,11.713678 -7.603527,4.117255 -16.972585,4.827458 -25.109878,1.903406 -8.137276,-2.924046 -14.91144,-9.435149 -18.155324,-17.450311"
       prop_scale="1"
       scale_y_rel="false"
       vertical="false"
       hide_knot="false" />
    <inkscape:path-effect
       effect="bend_path"
       id="path-effect2060"
       is_visible="true"
       lpeversion="1"
       bendpath="M 24.637501,60.866201 C 23.533297,55.306115 24.00169,49.442499 25.97457,44.128222 c 1.972889,-5.31426 5.444251,-10.063019 9.9092,-13.555604 4.464932,-3.492573 9.909882,-5.718317 15.54286,-6.353507 5.632966,-0.63518 11.436844,0.322137 16.567429,2.732698 5.130598,2.410567 9.572306,6.267056 12.679111,11.008535 3.106779,4.74146 4.869192,10.353521 5.030904,16.019897 0.161685,5.666349 -1.277825,11.369796 -4.109175,16.280722 -2.831351,4.910938 -7.045912,9.014453 -12.030692,11.713681 -7.603526,4.117245 -16.972585,4.827461 -25.109878,1.903408 C 36.317037,80.954003 29.542881,74.4429 26.299001,66.427738"
       prop_scale="1"
       scale_y_rel="false"
       vertical="false"
       hide_knot="false" />
    <inkscape:path-effect
       effect="bend_path"
       id="path-effect995"
       is_visible="true"
       lpeversion="1"
       bendpath="m 92.051349,82.917229 c -0.849636,-4.278242 -0.489228,-8.790038 1.028816,-12.879141 1.518052,-4.08909 4.189113,-7.743052 7.624695,-10.430443 3.43557,-2.687382 7.62522,-4.399994 11.95955,-4.888745 4.33432,-0.488743 8.80015,0.24787 12.74791,2.102691 3.94777,1.854826 7.36547,4.822225 9.75602,8.470585 2.39053,3.648346 3.74663,7.966581 3.87106,12.326609 0.12441,4.360007 -0.98323,8.748559 -3.16183,12.527302 -2.1786,3.778751 -5.42152,6.936226 -9.25709,9.013164 -5.85058,3.168039 -13.05966,3.714519 -19.32095,1.464589 -6.26129,-2.249928 -11.473706,-7.259936 -13.969729,-13.427252"
       prop_scale="1"
       scale_y_rel="false"
       vertical="false"
       hide_knot="false" />
    <inkscape:path-effect
       effect="bend_path"
       id="path-effect1929"
       is_visible="true"
       lpeversion="1"
       bendpath="m 90.694577,83.331342 c -0.84964,-4.278241 -0.48923,-8.790037 1.028817,-12.879141 1.518047,-4.089092 4.189112,-7.743052 7.624694,-10.430443 3.435572,-2.687381 7.625222,-4.399993 11.959542,-4.888744 4.33432,-0.488743 8.80015,0.247869 12.74791,2.102691 3.94777,1.854825 7.36547,4.822224 9.75602,8.470582 2.39053,3.648349 3.74663,7.966583 3.87106,12.326611 0.12441,4.360008 -0.98323,8.74856 -3.16182,12.527303 -2.17861,3.778751 -5.42153,6.936225 -9.2571,9.013162 -5.85058,3.168047 -13.05966,3.714517 -19.32095,1.464587 C 99.681473,98.788025 94.469051,93.778017 91.973024,87.610701"
       prop_scale="1"
       scale_y_rel="false"
       vertical="false"
       hide_knot="false" />
    <clipPath
       clipPathUnits="userSpaceOnUse"
       id="clipPath2077">
      <rect
         style="opacity:0.985;fill:#00ff00;fill-opacity:0.988235;stroke:none;stroke-width:0.0736509"
         id="rect2079"
         width="28.053713"
         height="13.795664"
         x="58.591713"
         y="-66.232529"
         transform="matrix(-0.30004989,0.95392351,-0.9530627,-0.302773,0,0)" />
    </clipPath>
  </defs>
  <sodipodi:namedview
     id="base"
     pagecolor="#ffffff"
     bordercolor="#666666"
     borderopacity="1.0"
     inkscape:pageopacity="0.0"
     inkscape:pageshadow="2"
     inkscape:zoom="0.98994948"
     inkscape:cx="512.8735"
     inkscape:cy="187.94341"
     inkscape:document-units="mm"
     inkscape:current-layer="layer1"
     inkscape:document-rotation="0"
     showgrid="false"
     inkscape:window-width="1920"
     inkscape:window-height="1003"
     inkscape:window-x="1920"
     inkscape:window-y="27"
     inkscape:window-maximized="1" />
  <metadata
     id="metadata5">
    <rdf:RDF>
      <cc:Work
         rdf:about="">
        <dc:format>image/svg+xml</dc:format>
        <dc:type
           rdf:resource="http://purl.org/dc/dcmitype/StillImage" />
        <dc:title />
      </cc:Work>
    </rdf:RDF>
  </metadata>
  <g
     inkscape:label="Layer 1"
     inkscape:groupmode="layer"
     id="layer1">
    <rect
       style="fill:#000000;stroke:#000000;stroke-width:1.42634"
       id="rect863"
       width="198.68723"
       height="48.862736"
       x="0.65741253"
       y="0.68589556"
       rx="6.5961337" />
    <path
       style="fill:#ffffff;stroke:none;stroke-width:5.39933"
       d="m -270.25511,84.543707 c 4.56697,-1.658971 8.0579,-3.261986 7.75763,-3.562257 -0.30026,-0.300271 -5.53984,0.409557 -11.64351,1.577386 -27.81377,5.321643 -66.6809,0.102 -80.5653,-10.819457 -3.74915,-2.949072 -1.97562,-3.778986 2.71318,-1.269615 1.54348,0.826029 4.76133,1.749315 7.15079,2.051715 7.34937,0.930114 13.39164,2.467057 14.14078,3.596914 0.39286,0.592514 4.89286,1.453228 10,1.912714 6.01115,0.540814 8.02627,0.399729 5.71429,-0.400071 -3.19231,-1.104357 -2.96485,-1.255243 2.14286,-1.421357 8.02185,-0.260886 4.16272,-2.102615 -10.71429,-5.113272 -11.7243,-2.372643 -17.06749,-4.143828 -31.98791,-10.603543 -10.12257,-4.382514 -7.27769,-5.044528 3.26637,-0.7601 17.2751,7.0195 31.41353,9.437943 53.51465,9.153929 19.57062,-0.251514 32.99255,-2.008729 31.67136,-4.146443 -0.8761,-1.417571 9.33296,-4.442014 11.27124,-3.339114 0.8525,0.485071 1.10623,0.388685 0.56385,-0.2142 -0.54237,-0.602872 2.67191,-3.045443 7.14285,-5.427915 10.1476,-5.407442 25.59163,-17.160757 23.4761,-17.865942 -0.86777,-0.289258 2.49253,-5.5675 7.46733,-11.729429 12.10086,-14.988471 16.31716,-22.4537429 21.80259,-38.603114 2.53934,-7.475972 4.63847,-12.949815 4.66473,-12.1641 0.0263,0.785714 0.6709,0.464285 1.43255,-0.714286 0.76166,-1.178571 1.34949,-3.107143 1.30629,-4.285714 -0.0511,-1.396672 -0.4912,-1.147943 -1.26363,0.714285 -0.66813,1.610786 -0.85018,-4.009057 -0.41734,-12.882885 1.66571,-34.149553 -9.2549,-62.219126 -32.25039,-82.894046 -3.89424,-3.50126 -7.7531,-6.36593 -8.57525,-6.36593 -0.82215,0 -2.33483,-1.17512 -3.36153,-2.61138 -1.02669,-1.43626 -4.75957,-4.37665 -8.29529,-6.5342 -3.53571,-2.15754 -9.91337,-6.44671 -14.17256,-9.53147 -4.2592,-3.08476 -9.08062,-5.63144 -10.71428,-5.65928 -1.63367,-0.0278 -4.57744,-0.96935 -6.54173,-2.09224 -4.20124,-2.40164 -9.35919,-3.05957 -5.71429,-0.72888 1.436,0.91822 -0.3228,1.08198 -5.33176,0.49642 -5.12873,-0.59955 -8.16998,-0.2967 -9.69019,0.96497 -1.65214,1.37115 -5.92721,1.61414 -16.81109,0.95552 -14.31089,-0.86601 -14.83103,-0.78661 -26.67187,4.07151 -11.12609,4.56488 -21.07604,6.97069 -13.2808,3.21118 3.31698,-1.59971 4.34928,-3.97072 1.7288,-3.97072 -0.81701,0 -3.91359,1.23873 -6.88128,2.75273 -5.69008,2.90287 -10.24998,7.24727 -7.60675,7.24727 0.83555,0 1.91649,-0.64285 2.40209,-1.42857 0.4856,-0.78571 1.86413,-1.42857 3.0634,-1.42857 1.2792,0 -1.11763,3.37799 -5.79859,8.17228 -4.3885,4.49476 -7.9791,8.89512 -7.9791,9.77859 0,0.88347 -1.35412,2.83094 -3.00916,4.32772 -4.06204,3.67362 -8.781,13.07707 -6.88042,13.7106 0.81664,0.27221 -0.41351,3.11548 -2.73367,6.31836 -2.32016,3.202893 -5.26702,7.851107 -6.54858,10.329371 -2.43722,4.713056 -6.21331,6.437585 -4.39227,2.005936 1.42816,-3.475554 4.82896,-15.652097 6.28405,-22.499997 0.66782,-3.14286 1.70845,-6.90426 2.31252,-8.35866 1.04095,-2.50628 0.87261,-2.52766 -3.22374,-0.40936 -4.33735,2.24293 -10.69525,11.1719 -10.15413,14.26034 0.15905,0.9078 -0.46601,4.22196 -1.38902,7.36482 -1.92529,6.555566 -2.17536,10.790266 -0.62272,10.545113 2.6891,-0.424596 2.95393,0.481743 1.40604,4.81203 l -1.65962,4.642857 -0.76607,-3.889167 c -0.5471,-2.777515 -1.30601,-3.551832 -2.65509,-2.708985 -2.94014,1.836875 -4.46828,10.979476 -4.50547,26.955295 -0.0346,14.887686 -1.82641,19.195271 -3.86244,9.285714 -1.80376,-8.779088 -1.02254,-24.750484 1.67704,-34.285714 1.3903,-4.910715 3.0729,-8.928572 3.73911,-8.928572 1.80728,0 7.23011,-11.302611 6.21267,-12.948851 -0.48346,-0.78227 0.8794,-4.42283 3.02859,-8.09014 2.53609,-4.3275 3.32706,-6.86135 2.25357,-7.21918 -2.60351,-0.86784 -1.96735,-3.39398 2.58139,-10.2506 2.32277,-3.50126 3.93354,-6.65559 3.5795,-7.00963 -0.91666,-0.91666 -6.70813,5.63871 -9.24351,10.46274 -1.17857,2.24245 -3.12766,4.33566 -4.3313,4.65157 -1.20365,0.31591 -3.4282,2.41898 -4.94345,4.67349 -2.92229,4.34803 -5.96688,4.47177 -3.65312,0.14847 0.87034,-1.62624 0.86696,-3.05021 -0.009,-3.92648 -0.8808,-0.8808 0.47322,-3.53398 3.76782,-7.38298 4.5646,-5.33271 5.81319,-7.78918 6.20292,-12.2036 0.0601,-0.68092 1.37138,-0.908 2.91392,-0.50462 2.87851,0.75275 6.48634,-2.06161 4.80203,-3.74592 -0.51699,-0.51699 -0.0798,-0.93998 0.97156,-0.93998 1.05136,0 4.65302,-2.86116 8.0037,-6.35812 5.96249,-6.2228 19.40098,-14.32566 21.04024,-12.6864 0.45501,0.45501 2.98352,-0.44493 5.61892,-1.99985 2.6354,-1.55493 8.28785,-3.64797 12.561,-4.6512 4.27315,-1.00324 8.41222,-2.22109 9.19793,-2.70634 3.24995,-2.00713 20.8508,-4.79326 32.85714,-5.20113 18.09354,-0.61465 19.40535,-0.80852 14.28572,-2.11125 -2.35715,-0.59979 -11.67857,-1.24498 -20.71429,-1.43375 -15.78796,-0.32984 -16.09434,-0.39392 -7.85714,-1.64337 4.71428,-0.71509 13.55508,-1.11884 19.64621,-0.89723 10.87423,0.39563 14.20459,-0.56615 7.85379,-2.2681 -1.76786,-0.47376 -8.03572,-0.9358 -13.92857,-1.02674 -9.55492,-0.14745 -10.21327,-0.32612 -6.0841,-1.6511 3.46921,-1.11322 8.84225,-0.8538 21.42857,1.03458 27.58997,4.13945 44.62504,9.09886 57.76706,16.81769 3.67562,2.15884 7.41,3.92516 8.2986,3.92516 0.8886,0 1.25392,0.58527 0.81182,1.30058 -0.44208,0.71532 2.9177,4.41175 7.4662,8.21429 11.36503,9.50115 21.9075,21.41785 29.82169,33.70902 3.66449,5.69115 7.8417,12.08449 9.2827,14.20743 3.0554,4.50133 8.64051,21.017966 11.2566,33.288717 2.39846,11.249963 2.4523,43.428867 0.0909,54.279967 -2.77616,12.756557 -9.99206,34.7424574 -14.06595,42.857143 -1.9723,3.928572 -5.91365,9.3977 -8.75858,12.153629 -2.84492,2.755928 -10.52624,10.956543 -17.0696,18.223585 -18.26127,20.2809 -46.4855,37.17 -66.16374,39.591715 l -6.22495,0.766085 8.30357,-3.016314 z m -8.10943,-8.332914 c 2.21993,-1.3779 1.86001,-1.498143 -2.1633,-0.7227 -2.65446,0.511628 -10.69017,1.462457 -17.85714,2.112957 l -13.03084,1.182729 15.19414,-0.460043 c 8.35677,-0.253015 16.39249,-1.203843 17.85714,-2.112943 z m 111.46626,-141.885786 c -0.3963,-0.982143 -0.72056,-0.178571 -0.72056,1.785714 0,1.964286 0.32426,2.767858 0.72056,1.785715 0.3963,-0.982143 0.3963,-2.589286 0,-3.571429 z m -2.29936,-15.873303 c -1.50467,-3.95757 -3.32785,-5.322181 -2.17335,-1.626697 0.3682,1.178571 1.00601,3.199154 1.41737,4.490183 0.41134,1.29103 1.0722,2.023043 1.46854,1.626697 0.39634,-0.396344 0.0757,-2.416927 -0.71256,-4.490183 z m -131.14675,-76.144244 c -0.98215,-0.3963 -2.58929,-0.3963 -3.57143,0 -0.98215,0.39631 -0.17857,0.72055 1.78571,0.72055 1.96429,0 2.76786,-0.32424 1.78572,-0.72055 z"
       id="path968"
       transform="scale(0.26458333)" />
    <path
       style="fill:#ffffff;stroke:#ffffff;stroke-width:3.8179"
       d="m 243.72512,167.51559 c -0.86487,-1.23478 -1.57251,-2.78966 -1.57251,-3.45527 0,-0.66561 -1.43082,-1.52446 -3.17959,-1.90856 -2.38322,-0.52344 -3.40608,-0.29363 -4.08387,0.91751 -1.50301,2.68572 -4.59033,3.87546 -6.87867,2.65078 -1.11117,-0.59467 -2.02031,-1.59765 -2.02031,-2.22884 0,-0.63118 -0.79549,-2.02702 -1.76776,-3.10186 -1.54605,-1.70914 -1.74672,-3.99967 -1.59993,-18.26229 0.0943,-9.1625 1.00138,-22.61521 2.07019,-30.70271 1.55067,-11.733649 1.65287,-14.394671 0.55285,-14.394671 -0.74222,0 -10.46548,2.287358 -21.60725,5.083021 -18.15849,4.55627 -20.612,4.95491 -23.67627,3.84686 -1.88019,-0.67989 -3.70809,-0.94659 -4.06201,-0.59267 -1.2447,1.2447 -3.38256,22.60228 -3.41505,34.11697 -0.0233,8.25094 -0.44131,12.22768 -1.43441,13.64553 -0.77085,1.10054 -1.98227,3.93926 -2.69204,6.30826 -0.92946,3.10225 -1.94974,4.47273 -3.64695,4.8987 -3.49954,0.87832 -5.36073,-0.23052 -6.03355,-3.59465 -0.54878,-2.74389 -0.877,-2.95308 -3.76759,-2.40135 -1.74154,0.33241 -3.84829,1.23352 -4.68167,2.00247 -6.21509,5.73456 -8.81824,6.62543 -11.15002,3.8158 -1.66298,-2.00377 -1.43252,-7.2729 1.11753,-25.5504 2.69679,-19.32927 7.23733,-42.637291 11.74026,-60.266363 4.29331,-16.808452 12.41131,-41.064853 15.48928,-46.281616 1.99626,-3.383403 2.57579,-3.710094 6.38878,-3.60142 6.14558,0.175157 9.93368,1.193959 10.82342,2.910942 0.43186,0.833376 1.67558,3.451329 2.76381,5.817675 l 1.97862,4.302446 -3.25658,10.344766 c -3.76387,11.956157 -7.21633,27.743494 -6.27334,28.686491 0.3557,0.355702 10.08715,-1.239449 21.62544,-3.544779 11.53829,-2.30533 22.01274,-4.191246 23.27655,-4.190926 1.52126,3.85e-4 2.62234,0.85407 3.258,2.525963 0.52808,1.38896 1.15424,2.525382 1.39147,2.525382 0.23723,0 1.66361,-5.299118 3.16974,-11.775818 3.10169,-13.337985 6.79651,-24.788262 9.16538,-28.403623 1.1636,-1.775885 2.26739,-2.321589 4.01867,-1.986811 1.7378,0.332203 2.85167,-0.205754 3.97462,-1.919608 1.59705,-2.437406 5.89522,-3.270966 7.06947,-1.371005 0.34337,0.555583 1.70812,1.010152 3.03279,1.010152 3.26212,0 5.58178,3.531342 4.90715,7.470401 -0.29543,1.724911 -1.83877,9.045593 -3.42967,16.268184 -5.56887,25.282483 -9.05596,59.293207 -9.05596,88.325827 0,16.30017 -0.27901,20.21438 -1.57251,22.06111 -2.00932,2.86871 -4.94719,2.86871 -6.95651,0 z"
       id="path840"
       transform="scale(0.26458333)" />
    <path
       style="fill:#ffffff;stroke:#ffffff;stroke-width:3.8179"
       d="m 297.44278,169.67172 c -6.2317,-1.46818 -11.3543,-4.58963 -15.77634,-9.61334 -13.18622,-14.98034 -11.93717,-53.58462 2.67664,-82.726676 9.58513,-19.114123 26.16667,-37.572025 39.7446,-44.242074 9.33199,-4.58427 21.00298,-7.31761 27.24706,-6.381252 6.7055,1.005552 14.28864,5.794564 17.96575,11.345981 4.38694,6.623063 3.92867,11.49815 -1.08084,11.49815 -2.31021,0 -2.34905,2.684305 -0.1402,9.691564 1.22406,3.883188 2.28038,5.474618 3.9043,5.882199 1.69949,0.426545 2.89288,2.414635 5.04367,8.402397 l 2.8174,7.843646 -2.76685,13.847338 c -1.52176,7.616037 -2.48532,14.302857 -2.14123,14.859607 1.81031,2.92912 -12.65163,25.45236 -23.72711,36.95297 -4.28037,4.44467 -8.28168,9.04849 -8.8918,10.23072 -1.41924,2.75002 -17.96534,10.07494 -27.15848,12.023 -7.62762,1.61632 -12.08181,1.7133 -17.71657,0.38577 z m 21.46736,-29.27948 c 7.94121,-4.23262 17.82842,-13.39093 22.05365,-20.42783 7.0067,-11.66928 18.54184,-44.374381 18.77758,-53.239307 0.0807,-3.035892 -0.26287,-3.584902 -2.43137,-3.884863 -3.47291,-0.480399 -4.76071,-1.734082 -7.0141,-6.828245 -2.74583,-6.207396 -6.88264,-8.471267 -15.48837,-8.476015 -6.72682,-0.0037 -6.92062,0.07173 -11.2144,4.365512 -10.33272,10.332712 -21.81574,31.326366 -26.36097,48.194018 -5.10903,18.95992 -4.44251,33.96586 1.82575,41.10501 2.98532,3.4001 3.33135,3.52317 8.42727,2.99722 3.18018,-0.32823 7.768,-1.85636 11.42496,-3.8055 z"
       id="path842"
       transform="scale(0.26458333)" />
    <path
       style="fill:#ffffff;stroke:#ffffff;stroke-width:3.8179"
       d="m 498.38285,165.89305 c -0.91949,-1.01602 -1.67179,-2.41584 -1.67179,-3.11072 0,-0.88205 -0.92724,-1.05975 -3.07184,-0.58872 -1.94474,0.42713 -3.64951,0.19524 -4.6463,-0.63202 -0.86597,-0.71868 -2.82089,-1.21173 -4.34428,-1.09565 -1.69748,0.12935 -3.4798,-0.57351 -4.60377,-1.81549 -1.68576,-1.86273 -1.78007,-3.51921 -1.16687,-20.49408 0.69944,-19.36216 2.6217,-38.785768 5.26975,-53.248521 1.54225,-8.423202 6.6653,-29.858733 8.08773,-33.840111 1.89293,-5.298329 -2.93264,2.013292 -10.06113,15.244438 -8.76913,16.27632 -12.79451,25.586112 -16.32202,37.749094 -1.3633,4.70075 -3.16004,8.9281 -3.99275,9.39411 -0.83271,0.466 -1.51401,1.64695 -1.51401,2.62432 0,3.59761 -2.49686,5.45521 -7.66169,5.70012 -2.73087,0.12949 -5.52394,-0.20655 -6.20681,-0.74677 -0.80528,-0.63705 -2.2521,-0.62994 -4.11716,0.0202 -1.78377,0.62181 -3.50893,0.64798 -4.54367,0.0689 -2.35172,-1.31609 -12.11706,-33.736974 -15.87635,-52.709431 -0.64172,-3.238668 -1.36396,-5.691302 -1.60496,-5.450299 -0.65717,0.65717 -3.22891,15.878123 -4.90264,29.016457 -1.64282,12.895733 -3.13782,32.474443 -4.14676,54.306633 -0.3872,8.37866 -1.11603,14.68391 -1.74205,15.0708 -1.8479,1.14206 -13.21714,1.31808 -15.86798,0.24567 -2.30105,-0.93091 -6.06092,-7.01925 -6.06092,-9.81443 0,-0.63181 -0.9747,-1.67039 -2.16601,-2.30795 -2.118,-1.13352 -2.15243,-1.52051 -1.55338,-17.46068 1.0312,-27.43976 7.47051,-62.718261 17.39559,-95.303838 2.4335,-7.989553 2.66174,-8.329312 6.26354,-9.323817 2.44144,-0.674113 4.08143,-0.688701 4.72808,-0.04206 0.54453,0.544532 2.24514,0.990058 3.77913,0.990058 1.534,0 3.60228,0.863021 4.5962,1.917823 0.99391,1.054803 3.77888,2.939745 6.18882,4.188759 2.40993,1.249015 4.61777,2.886123 4.9063,3.638017 0.28853,0.751894 1.33474,1.367079 2.32492,1.367079 4.00714,0 5.72046,3.240909 8.0103,15.152289 2.66133,13.843726 6.11422,26.263966 7.30152,26.263966 0.46995,0 0.85445,-0.500246 0.85445,-1.111658 0,-1.960755 12.06081,-26.400067 16.70818,-33.856468 4.43526,-7.116074 8.69965,-10.410897 11.89001,-9.186641 0.7482,0.287111 3.5909,0.105309 6.31712,-0.404003 4.2711,-0.797929 5.33453,-0.646723 7.68778,1.093114 l 2.73103,2.019137 2.35409,-3.007963 c 2.41156,-3.081409 4.55925,-3.759472 14.2085,-4.485871 5.71874,-0.430509 8.23687,1.382213 7.52101,5.414152 -0.25535,1.438263 -1.91375,8.069847 -3.68533,14.736853 -6.71131,25.256677 -10.174,56.542662 -10.174,91.923772 0,21.89903 -0.31666,23.7387 -4.08608,23.7387 -0.91394,0 -2.41402,-0.83129 -3.3335,-1.84731 z"
       id="path844"
       transform="scale(0.26458333)" />
    <path
       style="fill:#ffffff;stroke:#ffffff;stroke-width:3.8179"
       d="m 564.06814,166.26276 c -0.81269,-0.81269 -2.02691,-3.76739 -2.69829,-6.56599 -1.27646,-5.32088 -3.03949,-6.84938 -3.03949,-2.63517 0,3.26586 -2.14161,5.23641 -6.59996,6.0728 -2.5793,0.48388 -4.38313,0.22008 -6.07494,-0.88843 -2.23822,-1.46655 -2.48183,-1.43556 -3.48754,0.44363 -1.33413,2.49285 -5.29729,2.63962 -7.65348,0.28342 -1.57052,-1.57051 -1.67715,-3.67494 -1.11325,-21.97081 0.97657,-31.68539 4.77674,-58.323093 10.83075,-75.919377 2.42578,-7.050673 2.45956,-6.598658 -0.43871,-5.871239 -2.15593,0.541103 -8.12274,0.825926 -11.43875,0.546024 -2.59715,-0.219224 -3.43796,-3.923282 -1.78733,-7.873796 0.86769,-2.076656 2.03781,-4.060158 2.60027,-4.407778 0.67519,-0.417289 0.60742,-1.543399 -0.19946,-3.314294 -1.02646,-2.252836 -0.94703,-2.986221 0.49615,-4.580913 3.55452,-3.927701 37.92537,-11.353704 59.60264,-12.877465 7.69272,-0.540745 10.08393,-0.373147 11.9378,0.836712 1.27501,0.832096 4.52297,1.841576 7.21767,2.243289 2.6947,0.401714 6.33125,1.527732 8.08122,2.502263 2.80991,1.564797 3.2164,2.352666 3.47812,6.741454 0.48854,8.192469 0.66086,8.115924 -24.87006,11.047705 -12.40437,1.424426 -24.85341,3.026053 -27.66454,3.559171 -2.81112,0.533118 -5.3556,0.969306 -5.65441,0.969306 -0.29881,0 0.47221,1.080943 1.71337,2.402094 3.6671,3.903453 3.87584,11.375968 0.64785,23.191505 -1.49301,5.464928 -2.5602,10.090599 -2.37153,10.279267 0.18867,0.188668 4.42993,-0.691399 9.42502,-1.955704 4.9951,-1.264305 15.77454,-3.342106 23.95432,-4.617337 12.10111,-1.886566 15.15978,-2.080039 16.41498,-1.038313 0.84846,0.704158 1.54265,1.906481 1.54265,2.671829 0,0.86518 1.11901,1.391541 2.95831,1.391541 4.38899,0 5.92164,2.118237 5.62488,7.774055 -0.14005,2.669069 -0.31028,5.163146 -0.3783,5.542391 -0.18303,1.02054 -2.4609,1.58925 -15.27596,3.81397 -11.68078,2.0278 -48.11292,10.44274 -48.98439,11.31421 -0.98532,0.98532 -2.49425,14.86954 -2.51338,23.12645 l -0.02,8.63959 9.40854,-2.30723 c 5.17469,-1.26898 20.18685,-4.05518 33.36036,-6.19158 26.84231,-4.35311 27.33077,-4.30831 28.4916,2.61288 0.34675,2.06746 1.07965,5.22925 1.62866,7.02617 1.39847,4.57729 0.35085,6.98513 -3.36225,7.72775 -1.72936,0.34587 -3.64783,1.26544 -4.26326,2.04349 -1.11317,1.40732 -12.31814,3.5313 -40.31778,7.6425 -16.6433,2.44375 -17.31438,2.46366 -19.20809,0.56996 z"
       id="path846"
       transform="scale(0.26458333)" />
  </g>
</svg>
