<?xml version="1.0" encoding="UTF-8" standalone="no"?>
<svg
   xmlns:dc="http://purl.org/dc/elements/1.1/"
   xmlns:cc="http://creativecommons.org/ns#"
   xmlns:rdf="http://www.w3.org/1999/02/22-rdf-syntax-ns#"
   xmlns:svg="http://www.w3.org/2000/svg"
   xmlns="http://www.w3.org/2000/svg"
   xmlns:sodipodi="http://sodipodi.sourceforge.net/DTD/sodipodi-0.dtd"
   xmlns:inkscape="http://www.inkscape.org/namespaces/inkscape"
   width="200mm"
   height="50mm"
   viewBox="0 0 200 50"
   version="1.1"
   id="svg8"
   inkscape:version="1.0.1 (3bc2e813f5, 2020-09-07)"
   sodipodi:docname="ranksbutton.svg">
  <defs
     id="defs2">
    <inkscape:path-effect
       effect="bend_path"
       id="path-effect2062"
       is_visible="true"
       lpeversion="1"
       bendpath="m 24.066183,62.596359 c -1.104209,-5.560084 -0.635813,-11.423701 1.33707,-16.737979 1.972883,-5.314262 5.44425,-10.063019 9.909199,-13.555604 4.464935,-3.492572 9.909885,-5.718315 15.54285,-6.353505 5.632966,-0.63518 11.436844,0.322135 16.567429,2.732697 5.130597,2.410566 9.572306,6.267055 12.679111,11.008531 3.106778,4.741465 4.869192,10.353524 5.030903,16.0199 0.161686,5.666351 -1.277824,11.369797 -4.109162,16.280724 -2.831363,4.910937 -7.045924,9.014451 -12.030704,11.713678 -7.603527,4.117255 -16.972585,4.827458 -25.109878,1.903406 -8.137276,-2.924046 -14.91144,-9.435149 -18.155324,-17.450311"
       prop_scale="1"
       scale_y_rel="false"
       vertical="false"
       hide_knot="false" />
    <inkscape:path-effect
       effect="bend_path"
       id="path-effect2060"
       is_visible="true"
       lpeversion="1"
       bendpath="M 24.637501,60.866201 C 23.533297,55.306115 24.00169,49.442499 25.97457,44.128222 c 1.972889,-5.31426 5.444251,-10.063019 9.9092,-13.555604 4.464932,-3.492573 9.909882,-5.718317 15.54286,-6.353507 5.632966,-0.63518 11.436844,0.322137 16.567429,2.732698 5.130598,2.410567 9.572306,6.267056 12.679111,11.008535 3.106779,4.74146 4.869192,10.353521 5.030904,16.019897 0.161685,5.666349 -1.277825,11.369796 -4.109175,16.280722 -2.831351,4.910938 -7.045912,9.014453 -12.030692,11.713681 -7.603526,4.117245 -16.972585,4.827461 -25.109878,1.903408 C 36.317037,80.954003 29.542881,74.4429 26.299001,66.427738"
       prop_scale="1"
       scale_y_rel="false"
       vertical="false"
       hide_knot="false" />
    <inkscape:path-effect
       effect="bend_path"
       id="path-effect995"
       is_visible="true"
       lpeversion="1"
       bendpath="m 92.051349,82.917229 c -0.849636,-4.278242 -0.489228,-8.790038 1.028816,-12.879141 1.518052,-4.08909 4.189113,-7.743052 7.624695,-10.430443 3.43557,-2.687382 7.62522,-4.399994 11.95955,-4.888745 4.33432,-0.488743 8.80015,0.24787 12.74791,2.102691 3.94777,1.854826 7.36547,4.822225 9.75602,8.470585 2.39053,3.648346 3.74663,7.966581 3.87106,12.326609 0.12441,4.360007 -0.98323,8.748559 -3.16183,12.527302 -2.1786,3.778751 -5.42152,6.936226 -9.25709,9.013164 -5.85058,3.168039 -13.05966,3.714519 -19.32095,1.464589 -6.26129,-2.249928 -11.473706,-7.259936 -13.969729,-13.427252"
       prop_scale="1"
       scale_y_rel="false"
       vertical="false"
       hide_knot="false" />
    <inkscape:path-effect
       effect="bend_path"
       id="path-effect1929"
       is_visible="true"
       lpeversion="1"
       bendpath="m 90.694577,83.331342 c -0.84964,-4.278241 -0.48923,-8.790037 1.028817,-12.879141 1.518047,-4.089092 4.189112,-7.743052 7.624694,-10.430443 3.435572,-2.687381 7.625222,-4.399993 11.959542,-4.888744 4.33432,-0.488743 8.80015,0.247869 12.74791,2.102691 3.94777,1.854825 7.36547,4.822224 9.75602,8.470582 2.39053,3.648349 3.74663,7.966583 3.87106,12.326611 0.12441,4.360008 -0.98323,8.74856 -3.16182,12.527303 -2.17861,3.778751 -5.42153,6.936225 -9.2571,9.013162 -5.85058,3.168047 -13.05966,3.714517 -19.32095,1.464587 C 99.681473,98.788025 94.469051,93.778017 91.973024,87.610701"
       prop_scale="1"
       scale_y_rel="false"
       vertical="false"
       hide_knot="false" />
    <clipPath
       clipPathUnits="userSpaceOnUse"
       id="clipPath2077">
      <rect
         style="opacity:0.985;fill:#00ff00;fill-opacity:0.988235;stroke:none;stroke-width:0.0736509"
         id="rect2079"
         width="28.053713"
         height="13.795664"
         x="58.591713"
         y="-66.232529"
         transform="matrix(-0.30004989,0.95392351,-0.9530627,-0.302773,0,0)" />
    </clipPath>
  </defs>
  <sodipodi:namedview
     id="base"
     pagecolor="#ffffff"
     bordercolor="#666666"
     borderopacity="1.0"
     inkscape:pageopacity="0.0"
     inkscape:pageshadow="2"
     inkscape:zoom="0.7"
     inkscape:cx="696.90943"
     inkscape:cy="190.05021"
     inkscape:document-units="mm"
     inkscape:current-layer="layer1"
     inkscape:document-rotation="0"
     showgrid="false"
     inkscape:window-width="1920"
     inkscape:window-height="1054"
     inkscape:window-x="0"
     inkscape:window-y="0"
     inkscape:window-maximized="1" />
  <metadata
     id="metadata5">
    <rdf:RDF>
      <cc:Work
         rdf:about="">
        <dc:format>image/svg+xml</dc:format>
        <dc:type
           rdf:resource="http://purl.org/dc/dcmitype/StillImage" />
        <dc:title />
      </cc:Work>
    </rdf:RDF>
  </metadata>
  <g
     inkscape:label="Layer 1"
     inkscape:groupmode="layer"
     id="layer1">
    <rect
       style="fill:#000000;stroke:#000000;stroke-width:1.42634"
       id="rect863"
       width="198.68723"
       height="48.862736"
       x="0.65741253"
       y="0.68589556"
       rx="6.5961337" />
    <path
       style="fill:#ffffff;stroke:none;stroke-width:5.39933"
       d="m -270.25511,84.543707 c 4.56697,-1.658971 8.0579,-3.261986 7.75763,-3.562257 -0.30026,-0.300271 -5.53984,0.409557 -11.64351,1.577386 -27.81377,5.321643 -66.6809,0.102 -80.5653,-10.819457 -3.74915,-2.949072 -1.97562,-3.778986 2.71318,-1.269615 1.54348,0.826029 4.76133,1.749315 7.15079,2.051715 7.34937,0.930114 13.39164,2.467057 14.14078,3.596914 0.39286,0.592514 4.89286,1.453228 10,1.912714 6.01115,0.540814 8.02627,0.399729 5.71429,-0.400071 -3.19231,-1.104357 -2.96485,-1.255243 2.14286,-1.421357 8.02185,-0.260886 4.16272,-2.102615 -10.71429,-5.113272 -11.7243,-2.372643 -17.06749,-4.143828 -31.98791,-10.603543 -10.12257,-4.382514 -7.27769,-5.044528 3.26637,-0.7601 17.2751,7.0195 31.41353,9.437943 53.51465,9.153929 19.57062,-0.251514 32.99255,-2.008729 31.67136,-4.146443 -0.8761,-1.417571 9.33296,-4.442014 11.27124,-3.339114 0.8525,0.485071 1.10623,0.388685 0.56385,-0.2142 -0.54237,-0.602872 2.67191,-3.045443 7.14285,-5.427915 10.1476,-5.407442 25.59163,-17.160757 23.4761,-17.865942 -0.86777,-0.289258 2.49253,-5.5675 7.46733,-11.729429 12.10086,-14.988471 16.31716,-22.4537429 21.80259,-38.603114 2.53934,-7.475972 4.63847,-12.949815 4.66473,-12.1641 0.0263,0.785714 0.6709,0.464285 1.43255,-0.714286 0.76166,-1.178571 1.34949,-3.107143 1.30629,-4.285714 -0.0511,-1.396672 -0.4912,-1.147943 -1.26363,0.714285 -0.66813,1.610786 -0.85018,-4.009057 -0.41734,-12.882885 1.66571,-34.149553 -9.2549,-62.219126 -32.25039,-82.894046 -3.89424,-3.50126 -7.7531,-6.36593 -8.57525,-6.36593 -0.82215,0 -2.33483,-1.17512 -3.36153,-2.61138 -1.02669,-1.43626 -4.75957,-4.37665 -8.29529,-6.5342 -3.53571,-2.15754 -9.91337,-6.44671 -14.17256,-9.53147 -4.2592,-3.08476 -9.08062,-5.63144 -10.71428,-5.65928 -1.63367,-0.0278 -4.57744,-0.96935 -6.54173,-2.09224 -4.20124,-2.40164 -9.35919,-3.05957 -5.71429,-0.72888 1.436,0.91822 -0.3228,1.08198 -5.33176,0.49642 -5.12873,-0.59955 -8.16998,-0.2967 -9.69019,0.96497 -1.65214,1.37115 -5.92721,1.61414 -16.81109,0.95552 -14.31089,-0.86601 -14.83103,-0.78661 -26.67187,4.07151 -11.12609,4.56488 -21.07604,6.97069 -13.2808,3.21118 3.31698,-1.59971 4.34928,-3.97072 1.7288,-3.97072 -0.81701,0 -3.91359,1.23873 -6.88128,2.75273 -5.69008,2.90287 -10.24998,7.24727 -7.60675,7.24727 0.83555,0 1.91649,-0.64285 2.40209,-1.42857 0.4856,-0.78571 1.86413,-1.42857 3.0634,-1.42857 1.2792,0 -1.11763,3.37799 -5.79859,8.17228 -4.3885,4.49476 -7.9791,8.89512 -7.9791,9.77859 0,0.88347 -1.35412,2.83094 -3.00916,4.32772 -4.06204,3.67362 -8.781,13.07707 -6.88042,13.7106 0.81664,0.27221 -0.41351,3.11548 -2.73367,6.31836 -2.32016,3.202893 -5.26702,7.851107 -6.54858,10.329371 -2.43722,4.713056 -6.21331,6.437585 -4.39227,2.005936 1.42816,-3.475554 4.82896,-15.652097 6.28405,-22.499997 0.66782,-3.14286 1.70845,-6.90426 2.31252,-8.35866 1.04095,-2.50628 0.87261,-2.52766 -3.22374,-0.40936 -4.33735,2.24293 -10.69525,11.1719 -10.15413,14.26034 0.15905,0.9078 -0.46601,4.22196 -1.38902,7.36482 -1.92529,6.555566 -2.17536,10.790266 -0.62272,10.545113 2.6891,-0.424596 2.95393,0.481743 1.40604,4.81203 l -1.65962,4.642857 -0.76607,-3.889167 c -0.5471,-2.777515 -1.30601,-3.551832 -2.65509,-2.708985 -2.94014,1.836875 -4.46828,10.979476 -4.50547,26.955295 -0.0346,14.887686 -1.82641,19.195271 -3.86244,9.285714 -1.80376,-8.779088 -1.02254,-24.750484 1.67704,-34.285714 1.3903,-4.910715 3.0729,-8.928572 3.73911,-8.928572 1.80728,0 7.23011,-11.302611 6.21267,-12.948851 -0.48346,-0.78227 0.8794,-4.42283 3.02859,-8.09014 2.53609,-4.3275 3.32706,-6.86135 2.25357,-7.21918 -2.60351,-0.86784 -1.96735,-3.39398 2.58139,-10.2506 2.32277,-3.50126 3.93354,-6.65559 3.5795,-7.00963 -0.91666,-0.91666 -6.70813,5.63871 -9.24351,10.46274 -1.17857,2.24245 -3.12766,4.33566 -4.3313,4.65157 -1.20365,0.31591 -3.4282,2.41898 -4.94345,4.67349 -2.92229,4.34803 -5.96688,4.47177 -3.65312,0.14847 0.87034,-1.62624 0.86696,-3.05021 -0.009,-3.92648 -0.8808,-0.8808 0.47322,-3.53398 3.76782,-7.38298 4.5646,-5.33271 5.81319,-7.78918 6.20292,-12.2036 0.0601,-0.68092 1.37138,-0.908 2.91392,-0.50462 2.87851,0.75275 6.48634,-2.06161 4.80203,-3.74592 -0.51699,-0.51699 -0.0798,-0.93998 0.97156,-0.93998 1.05136,0 4.65302,-2.86116 8.0037,-6.35812 5.96249,-6.2228 19.40098,-14.32566 21.04024,-12.6864 0.45501,0.45501 2.98352,-0.44493 5.61892,-1.99985 2.6354,-1.55493 8.28785,-3.64797 12.561,-4.6512 4.27315,-1.00324 8.41222,-2.22109 9.19793,-2.70634 3.24995,-2.00713 20.8508,-4.79326 32.85714,-5.20113 18.09354,-0.61465 19.40535,-0.80852 14.28572,-2.11125 -2.35715,-0.59979 -11.67857,-1.24498 -20.71429,-1.43375 -15.78796,-0.32984 -16.09434,-0.39392 -7.85714,-1.64337 4.71428,-0.71509 13.55508,-1.11884 19.64621,-0.89723 10.87423,0.39563 14.20459,-0.56615 7.85379,-2.2681 -1.76786,-0.47376 -8.03572,-0.9358 -13.92857,-1.02674 -9.55492,-0.14745 -10.21327,-0.32612 -6.0841,-1.6511 3.46921,-1.11322 8.84225,-0.8538 21.42857,1.03458 27.58997,4.13945 44.62504,9.09886 57.76706,16.81769 3.67562,2.15884 7.41,3.92516 8.2986,3.92516 0.8886,0 1.25392,0.58527 0.81182,1.30058 -0.44208,0.71532 2.9177,4.41175 7.4662,8.21429 11.36503,9.50115 21.9075,21.41785 29.82169,33.70902 3.66449,5.69115 7.8417,12.08449 9.2827,14.20743 3.0554,4.50133 8.64051,21.017966 11.2566,33.288717 2.39846,11.249963 2.4523,43.428867 0.0909,54.279967 -2.77616,12.756557 -9.99206,34.7424574 -14.06595,42.857143 -1.9723,3.928572 -5.91365,9.3977 -8.75858,12.153629 -2.84492,2.755928 -10.52624,10.956543 -17.0696,18.223585 -18.26127,20.2809 -46.4855,37.17 -66.16374,39.591715 l -6.22495,0.766085 8.30357,-3.016314 z m -8.10943,-8.332914 c 2.21993,-1.3779 1.86001,-1.498143 -2.1633,-0.7227 -2.65446,0.511628 -10.69017,1.462457 -17.85714,2.112957 l -13.03084,1.182729 15.19414,-0.460043 c 8.35677,-0.253015 16.39249,-1.203843 17.85714,-2.112943 z m 111.46626,-141.885786 c -0.3963,-0.982143 -0.72056,-0.178571 -0.72056,1.785714 0,1.964286 0.32426,2.767858 0.72056,1.785715 0.3963,-0.982143 0.3963,-2.589286 0,-3.571429 z m -2.29936,-15.873303 c -1.50467,-3.95757 -3.32785,-5.322181 -2.17335,-1.626697 0.3682,1.178571 1.00601,3.199154 1.41737,4.490183 0.41134,1.29103 1.0722,2.023043 1.46854,1.626697 0.39634,-0.396344 0.0757,-2.416927 -0.71256,-4.490183 z m -131.14675,-76.144244 c -0.98215,-0.3963 -2.58929,-0.3963 -3.57143,0 -0.98215,0.39631 -0.17857,0.72055 1.78571,0.72055 1.96429,0 2.76786,-0.32424 1.78572,-0.72055 z"
       id="path968"
       transform="scale(0.26458333)" />
    <path
       style="fill:#ffffff;stroke:#ffffff;stroke-width:5.39933"
       d="m 100.71895,167.66926 c -0.52381,-0.52381 -0.952377,-2.96667 -0.952377,-5.42857 0,-2.46191 -0.803572,-5.27977 -1.785714,-6.26191 -1.245693,-1.24569 -1.773632,-7.27234 -1.74576,-19.92857 0.03456,-15.69155 0.662604,-20.57219 4.648361,-36.123111 6.24726,-24.374415 10.89575,-37.603809 14.46843,-41.17649 1.64236,-1.642362 2.98611,-3.606125 2.98611,-4.363918 0,-1.660047 -11.59747,3.143429 -17.17035,7.111666 -5.114774,3.642042 -5.92102,3.578747 -10.022243,-0.786804 -3.239299,-3.448076 -3.293661,-3.812889 -1.117598,-7.5 5.173514,-8.765979 30.790291,-20.259296 53.971291,-24.214957 12.11565,-2.067445 15.44568,-2.153653 23.17249,-0.599889 25.63124,5.154118 32.7962,20.553572 21.2241,45.61636 -3.74354,8.107732 -7.11915,12.596319 -15.35994,20.424263 -8.76793,8.32867 -10.39538,10.56741 -9.58124,13.18 0.5394,1.73094 6.30588,13.80208 12.8144,26.82475 12.22197,24.45452 13.06785,28.31421 5.80588,26.49157 -2.16136,-0.54247 -5.86173,-0.0339 -8.85572,1.21704 l -5.14299,2.14888 -6.34913,-6.34913 c -6.37096,-6.37096 -11.74148,-16.4767 -14.80768,-27.86368 -0.90431,-3.35836 -2.22103,-7.62327 -2.92604,-9.47759 l -1.28183,-3.37148 -4.85289,2.86327 c -5.18898,3.06158 -9.52051,2.51398 -9.52051,-1.20359 0,-1.36786 -0.48876,-1.73432 -1.22516,-0.91859 -0.67385,0.74643 -1.99049,9.71429 -2.92587,19.92857 -1.73052,18.89704 -3.31551,23.02537 -8.13068,21.17761 -1.31515,-0.50467 -2.004,0.23057 -2.004,2.13894 0,1.59937 -1.01021,3.91815 -2.2449,5.15284 -2.25276,2.25277 -9.30603,3.07493 -11.08844,1.29252 z m 38.61631,-75.977253 c 18.20023,-15.216456 28.93137,-30.325506 27.00106,-38.016478 -1.79702,-7.159913 -18.92097,-9.17726 -36.36151,-4.283695 -10.39894,2.917795 -11.87332,4.351362 -5.83846,5.676839 2.41709,0.530881 4.77041,2.029621 5.22961,3.330531 0.45919,1.30091 1.69057,3.368149 2.73638,4.593863 1.89532,2.221337 1.69361,4.340986 -3.01656,31.7 -0.37199,2.160714 -0.0829,3.928572 0.64234,3.928572 0.72528,0 5.0485,-3.118335 9.60714,-6.929632 z"
       id="path840"
       transform="scale(0.26458333)" />
    <path
       style="fill:#ffffff;stroke:#ffffff;stroke-width:5.39933"
       d="m 217.48596,162.69026 c -1.64719,-0.79877 -3.85646,-3.64812 -4.90949,-6.33189 -1.36794,-3.48635 -2.80825,-4.87959 -5.04447,-4.87959 -4.31224,0 -6.82102,-3.39229 -5.49595,-7.43144 0.59233,-1.80557 0.9522,-5.10919 0.79972,-7.34139 -0.71962,-10.53442 40.39421,-95.210971 47.32709,-97.473171 1.39653,-0.455688 4.93224,-3.031157 7.85714,-5.723265 2.9249,-2.692108 6.47385,-5.267737 7.88656,-5.72362 2.70993,-0.874503 6.71716,1.578853 6.71716,4.112465 0,0.824068 0.88775,2.513211 1.97278,3.75365 2.79478,3.195065 24.28578,68.993391 30.18547,92.417911 3.90771,15.51545 4.57999,20.03221 3.22466,21.66528 -0.94177,1.13476 -1.52673,4.2172 -1.29991,6.84986 0.35517,4.12243 -0.10504,4.91653 -3.31643,5.72254 -2.05086,0.51473 -5.60883,0.55987 -7.9066,0.10032 -2.29777,-0.45955 -4.56206,-0.21375 -5.03175,0.54623 -1.22796,1.98688 -5.97399,1.7033 -6.76033,-0.40394 -0.3665,-0.98214 -2.78686,-12.39286 -5.37859,-25.35714 -2.59173,-12.96429 -5.10885,-24.03749 -5.5936,-24.60712 -0.48476,-0.56964 -8.25817,1.07377 -17.27425,3.652 l -16.39288,4.6877 -7.14286,19.97513 C 222.8223,166.3131 223.341,165.5295 217.48596,162.69026 Z M 260.6024,93.423146 c 8.90676,-1.046815 8.69094,-0.394069 5.60228,-16.944365 -3.47977,-18.646028 -3.57537,-18.940544 -5.20381,-16.030685 -1.89003,3.377303 -12.66287,32.508815 -12.66287,34.242473 0,0.758785 1.01898,0.98859 2.2644,0.510677 1.24542,-0.477913 5.74542,-1.278059 10,-1.7781 z"
       id="path842"
       transform="scale(0.26458333)" />
    <path
       style="fill:#ffffff;stroke:#ffffff;stroke-width:5.39933"
       d="m 336.4935,169.15809 c -0.55695,-0.55695 -1.01264,-2.19121 -1.01264,-3.63169 0,-1.44048 -0.95884,-2.61905 -2.13075,-2.61905 -1.17192,0 -2.9337,-1.28571 -3.91507,-2.85714 -0.98137,-1.57143 -3.2142,-2.85714 -4.96184,-2.85714 -5.48963,0 -6.24846,-3.89653 -4.63879,-23.8197 2.42297,-29.98944 6.42142,-53.558871 13.65071,-80.466017 4.78417,-17.806492 6.50876,-20.47304 12.44669,-19.245029 2.50198,0.517429 5.19437,1.751404 5.9831,2.742167 0.78873,0.990762 2.82605,2.243186 4.52736,2.783164 3.77898,1.199399 5.64004,9.771709 3.40036,15.662506 -2.37411,6.244398 -1.94197,9.332646 1.19129,8.51328 1.48275,-0.387748 3.12783,-0.0061 3.65574,0.848029 0.5279,0.854164 2.38819,1.553026 4.13398,1.553026 2.56434,0 5.81177,4.322654 16.90332,22.5 7.55104,12.375004 14.89484,24.750004 16.31955,27.500004 l 2.59038,5 1.01768,-5.71429 c 0.55973,-3.14286 2.35855,-13.58715 3.99737,-23.209537 1.63882,-9.622389 4.91925,-23.550184 7.28983,-30.950656 l 4.31015,-13.455406 5.59473,-0.945224 c 4.54521,-0.767908 6.43328,-0.325266 10.06475,2.359599 2.45851,1.817651 5.42965,5.327091 6.60253,7.798753 1.89376,3.990822 1.88991,5.432417 -0.0344,12.876772 -4.64441,17.967082 -6.8286,36.519489 -7.59459,64.508139 -0.68638,25.07952 -1.11402,29.15414 -3.1756,30.25746 -1.40797,0.75352 -3.22738,0.74044 -4.44829,-0.032 -3.43477,-2.17305 -6.82042,-1.51753 -7.78017,1.50639 -0.70122,2.20934 -2.16148,2.85714 -6.44053,2.85714 -3.04354,0 -5.93209,-0.6446 -6.419,-1.43244 -0.58377,-0.94455 -1.88566,-0.89705 -3.8224,0.13946 -3.95224,2.11517 -5.41661,0.29233 -10.43762,-12.99274 -2.22717,-5.89285 -9.63309,-22.92857 -16.45759,-37.85714 -6.8245,-14.92857 -13.95107,-31.160713 -15.83682,-36.071427 -1.88575,-4.910714 -3.85597,-8.928572 -4.37827,-8.928572 -2.72052,0 -6.86503,40.211129 -6.8973,66.919459 -0.0231,19.08251 -0.21566,20.54081 -2.80226,21.21722 -1.86985,0.48897 -2.92024,2.19591 -3.21429,5.2234 -0.31642,3.25785 -1.2403,4.61208 -3.35271,4.91447 -1.60376,0.22957 -3.37162,-0.0383 -3.92857,-0.59524 z"
       id="path844"
       transform="scale(0.26458333)" />
    <path
       style="fill:#ffffff;stroke:#ffffff;stroke-width:5.39933"
       d="m 550.86361,171.47878 c -0.98137,-1.57143 -2.78682,-2.85714 -4.0121,-2.85714 -1.22529,0 -2.9451,-0.71732 -3.82182,-1.59403 -0.87671,-0.8767 -3.01399,-2.32313 -4.74951,-3.21429 -3.48253,-1.78818 -14.32337,-24.5685 -21.5769,-45.34046 l -4.31872,-12.36754 -4.86681,1.49367 c -3.49014,1.07116 -5.87595,1.03387 -8.43432,-0.1318 -4.24514,-1.93422 -3.65097,-3.9315 -7.78074,26.15445 -4.61158,33.59593 -5.5176,35.24577 -18.70017,34.05273 -3.52406,-0.31893 -8.42208,-0.54257 -10.8845,-0.497 -2.46242,0.0456 -4.79817,-0.75375 -5.19055,-1.77627 -1.78248,-4.64506 10.2121,-73.318733 20.73603,-118.721921 5.28552,-22.803247 6.28168,-25.681497 9.37626,-27.091485 2.88761,-1.315682 3.84964,-1.111779 5.79463,1.228174 1.2827,1.543174 4.08939,3.712271 6.23708,4.820216 2.1477,1.107945 4.22257,3.036516 4.61082,4.285714 0.38826,1.249198 -0.8161,14.485555 -2.67634,29.414126 -1.86025,14.928572 -3.22005,27.322212 -3.02178,27.541422 0.19826,0.21921 4.42005,-5.245076 9.38173,-12.142857 4.96169,-6.897782 14.62287,-19.61285 21.4693,-28.255708 l 12.44804,-15.714285 h 7.17976 c 3.94887,0 7.66191,0.482143 8.25119,1.071428 0.58929,0.589286 2.50265,1.071429 4.25192,1.071429 3.83926,0 5.28888,3.115686 3.56239,7.65669 -0.69972,1.84039 -9.68168,13.168376 -19.95993,25.173301 -10.27824,12.004926 -18.68771,22.446612 -18.68771,23.203745 0,0.757132 1.19634,1.689457 2.65854,2.07183 1.46219,0.382372 4.14264,3.37576 5.95655,6.651971 1.8139,3.27621 7.69638,12.89644 13.07218,21.37828 5.37579,8.48185 12.29531,20.43585 15.37672,26.56447 l 5.60256,11.14293 -2.74085,4.50697 c -1.50747,2.47883 -3.33027,4.50696 -4.05067,4.50696 -0.7204,0 -1.98212,1.92857 -2.80382,4.28571 -1.72081,4.93631 -5.10513,5.56514 -7.68846,1.42857 z"
       id="path846"
       transform="scale(0.26458333)" />
    <path
       style="fill:#ffffff;stroke:#ffffff;stroke-width:5.39933"
       d="m 609.05229,170.10794 c -2.35715,-1.34652 -5.40958,-2.15711 -6.78319,-1.80131 -1.37361,0.35581 -4.08314,-0.39205 -6.02117,-1.66189 -1.93803,-1.26985 -4.48798,-2.30882 -5.66655,-2.30882 -3.09068,0 -5.52371,-5.03391 -3.28479,-6.7962 0.96563,-0.76006 8.54325,-4.63118 16.83914,-8.60249 15.03466,-7.19719 25.63084,-15.91981 25.63084,-21.09893 0,-4.32922 -6.76708,-8.83536 -19.86576,-13.22843 -28.65281,-9.60966 -37.06679,-20.859314 -28.6325,-38.282223 3.87182,-7.998126 21.58056,-24.666136 32.97263,-31.034851 8.12493,-4.54223 36.95181,-15.242586 41.0637,-15.242586 0.88264,0 2.96126,1.356474 4.61918,3.014388 2.56918,2.569186 3.4899,2.759899 6.23403,1.291285 2.62698,-1.405915 4.07109,-1.282803 7.84507,0.6688 3.94193,2.038447 4.49723,2.955916 3.75786,6.208714 -0.47717,2.099247 -1.89402,8.930197 -3.14856,15.179887 -3.7447,18.654753 -3.20916,18.005856 -14.66582,17.77036 -5.4294,-0.111603 -10.67708,-0.700705 -11.66151,-1.309117 -1.27332,-0.786951 -1.57141,-3.82784 -1.03289,-10.536688 0.41635,-5.186768 0.56656,-9.430486 0.3338,-9.430486 -2.14786,0 -25.18064,10.965856 -31.43143,14.964441 -8.88627,5.68448 -13.69011,13.543635 -10.57368,17.298705 1.72067,2.073282 13.22986,5.974335 27.04303,9.166267 15.08049,3.484784 26.81332,11.179624 31.35666,20.564904 3.74824,7.74283 3.69639,12.66136 -0.21873,20.74892 -3.03896,6.27764 -21.23655,25.82819 -24.04081,25.82819 -0.75603,0 -3.98978,2.36265 -7.18609,5.25033 -4.76436,4.30431 -7.01738,5.30229 -12.50412,5.53869 -4.17106,0.17971 -8.30735,-0.63406 -10.97834,-2.15986 z"
       id="path848"
       transform="scale(0.26458333)" />
  </g>
</svg>
