<?xml version="1.0" encoding="UTF-8" standalone="no"?>
<svg
   xmlns:dc="http://purl.org/dc/elements/1.1/"
   xmlns:cc="http://creativecommons.org/ns#"
   xmlns:rdf="http://www.w3.org/1999/02/22-rdf-syntax-ns#"
   xmlns:svg="http://www.w3.org/2000/svg"
   xmlns="http://www.w3.org/2000/svg"
   xmlns:sodipodi="http://sodipodi.sourceforge.net/DTD/sodipodi-0.dtd"
   xmlns:inkscape="http://www.inkscape.org/namespaces/inkscape"
   width="200mm"
   height="50mm"
   viewBox="0 0 200 50"
   version="1.1"
   id="svg8"
   inkscape:version="1.0.1 (3bc2e813f5, 2020-09-07)"
   sodipodi:docname="resourcesbutton.svg">
  <defs
     id="defs2">
    <inkscape:path-effect
       effect="bend_path"
       id="path-effect2062"
       is_visible="true"
       lpeversion="1"
       bendpath="m 24.066183,62.596359 c -1.104209,-5.560084 -0.635813,-11.423701 1.33707,-16.737979 1.972883,-5.314262 5.44425,-10.063019 9.909199,-13.555604 4.464935,-3.492572 9.909885,-5.718315 15.54285,-6.353505 5.632966,-0.63518 11.436844,0.322135 16.567429,2.732697 5.130597,2.410566 9.572306,6.267055 12.679111,11.008531 3.106778,4.741465 4.869192,10.353524 5.030903,16.0199 0.161686,5.666351 -1.277824,11.369797 -4.109162,16.280724 -2.831363,4.910937 -7.045924,9.014451 -12.030704,11.713678 -7.603527,4.117255 -16.972585,4.827458 -25.109878,1.903406 -8.137276,-2.924046 -14.91144,-9.435149 -18.155324,-17.450311"
       prop_scale="1"
       scale_y_rel="false"
       vertical="false"
       hide_knot="false" />
    <inkscape:path-effect
       effect="bend_path"
       id="path-effect2060"
       is_visible="true"
       lpeversion="1"
       bendpath="M 24.637501,60.866201 C 23.533297,55.306115 24.00169,49.442499 25.97457,44.128222 c 1.972889,-5.31426 5.444251,-10.063019 9.9092,-13.555604 4.464932,-3.492573 9.909882,-5.718317 15.54286,-6.353507 5.632966,-0.63518 11.436844,0.322137 16.567429,2.732698 5.130598,2.410567 9.572306,6.267056 12.679111,11.008535 3.106779,4.74146 4.869192,10.353521 5.030904,16.019897 0.161685,5.666349 -1.277825,11.369796 -4.109175,16.280722 -2.831351,4.910938 -7.045912,9.014453 -12.030692,11.713681 -7.603526,4.117245 -16.972585,4.827461 -25.109878,1.903408 C 36.317037,80.954003 29.542881,74.4429 26.299001,66.427738"
       prop_scale="1"
       scale_y_rel="false"
       vertical="false"
       hide_knot="false" />
    <inkscape:path-effect
       effect="bend_path"
       id="path-effect995"
       is_visible="true"
       lpeversion="1"
       bendpath="m 92.051349,82.917229 c -0.849636,-4.278242 -0.489228,-8.790038 1.028816,-12.879141 1.518052,-4.08909 4.189113,-7.743052 7.624695,-10.430443 3.43557,-2.687382 7.62522,-4.399994 11.95955,-4.888745 4.33432,-0.488743 8.80015,0.24787 12.74791,2.102691 3.94777,1.854826 7.36547,4.822225 9.75602,8.470585 2.39053,3.648346 3.74663,7.966581 3.87106,12.326609 0.12441,4.360007 -0.98323,8.748559 -3.16183,12.527302 -2.1786,3.778751 -5.42152,6.936226 -9.25709,9.013164 -5.85058,3.168039 -13.05966,3.714519 -19.32095,1.464589 -6.26129,-2.249928 -11.473706,-7.259936 -13.969729,-13.427252"
       prop_scale="1"
       scale_y_rel="false"
       vertical="false"
       hide_knot="false" />
    <inkscape:path-effect
       effect="bend_path"
       id="path-effect1929"
       is_visible="true"
       lpeversion="1"
       bendpath="m 90.694577,83.331342 c -0.84964,-4.278241 -0.48923,-8.790037 1.028817,-12.879141 1.518047,-4.089092 4.189112,-7.743052 7.624694,-10.430443 3.435572,-2.687381 7.625222,-4.399993 11.959542,-4.888744 4.33432,-0.488743 8.80015,0.247869 12.74791,2.102691 3.94777,1.854825 7.36547,4.822224 9.75602,8.470582 2.39053,3.648349 3.74663,7.966583 3.87106,12.326611 0.12441,4.360008 -0.98323,8.74856 -3.16182,12.527303 -2.17861,3.778751 -5.42153,6.936225 -9.2571,9.013162 -5.85058,3.168047 -13.05966,3.714517 -19.32095,1.464587 C 99.681473,98.788025 94.469051,93.778017 91.973024,87.610701"
       prop_scale="1"
       scale_y_rel="false"
       vertical="false"
       hide_knot="false" />
    <clipPath
       clipPathUnits="userSpaceOnUse"
       id="clipPath2077">
      <rect
         style="opacity:0.985;fill:#00ff00;fill-opacity:0.988235;stroke:none;stroke-width:0.0736509"
         id="rect2079"
         width="28.053713"
         height="13.795664"
         x="58.591713"
         y="-66.232529"
         transform="matrix(-0.30004989,0.95392351,-0.9530627,-0.302773,0,0)" />
    </clipPath>
  </defs>
  <sodipodi:namedview
     id="base"
     pagecolor="#ffffff"
     bordercolor="#666666"
     borderopacity="1.0"
     inkscape:pageopacity="0.0"
     inkscape:pageshadow="2"
     inkscape:zoom="0.7"
     inkscape:cx="696.90943"
     inkscape:cy="190.05021"
     inkscape:document-units="mm"
     inkscape:current-layer="layer1"
     inkscape:document-rotation="0"
     showgrid="false"
     inkscape:window-width="1920"
     inkscape:window-height="1054"
     inkscape:window-x="0"
     inkscape:window-y="0"
     inkscape:window-maximized="1" />
  <metadata
     id="metadata5">
    <rdf:RDF>
      <cc:Work
         rdf:about="">
        <dc:format>image/svg+xml</dc:format>
        <dc:type
           rdf:resource="http://purl.org/dc/dcmitype/StillImage" />
        <dc:title></dc:title>
      </cc:Work>
    </rdf:RDF>
  </metadata>
  <g
     inkscape:label="Layer 1"
     inkscape:groupmode="layer"
     id="layer1">
    <rect
       style="fill:#000000;stroke:#000000;stroke-width:1.42634"
       id="rect863"
       width="198.68723"
       height="48.862736"
       x="0.65741253"
       y="0.68589556"
       rx="6.5961337" />
    <path
       style="fill:#ffffff;stroke:none;stroke-width:5.39933"
       d="m -270.25511,84.543707 c 4.56697,-1.658971 8.0579,-3.261986 7.75763,-3.562257 -0.30026,-0.300271 -5.53984,0.409557 -11.64351,1.577386 -27.81377,5.321643 -66.6809,0.102 -80.5653,-10.819457 -3.74915,-2.949072 -1.97562,-3.778986 2.71318,-1.269615 1.54348,0.826029 4.76133,1.749315 7.15079,2.051715 7.34937,0.930114 13.39164,2.467057 14.14078,3.596914 0.39286,0.592514 4.89286,1.453228 10,1.912714 6.01115,0.540814 8.02627,0.399729 5.71429,-0.400071 -3.19231,-1.104357 -2.96485,-1.255243 2.14286,-1.421357 8.02185,-0.260886 4.16272,-2.102615 -10.71429,-5.113272 -11.7243,-2.372643 -17.06749,-4.143828 -31.98791,-10.603543 -10.12257,-4.382514 -7.27769,-5.044528 3.26637,-0.7601 17.2751,7.0195 31.41353,9.437943 53.51465,9.153929 19.57062,-0.251514 32.99255,-2.008729 31.67136,-4.146443 -0.8761,-1.417571 9.33296,-4.442014 11.27124,-3.339114 0.8525,0.485071 1.10623,0.388685 0.56385,-0.2142 -0.54237,-0.602872 2.67191,-3.045443 7.14285,-5.427915 10.1476,-5.407442 25.59163,-17.160757 23.4761,-17.865942 -0.86777,-0.289258 2.49253,-5.5675 7.46733,-11.729429 12.10086,-14.988471 16.31716,-22.4537429 21.80259,-38.603114 2.53934,-7.475972 4.63847,-12.949815 4.66473,-12.1641 0.0263,0.785714 0.6709,0.464285 1.43255,-0.714286 0.76166,-1.178571 1.34949,-3.107143 1.30629,-4.285714 -0.0511,-1.396672 -0.4912,-1.147943 -1.26363,0.714285 -0.66813,1.610786 -0.85018,-4.009057 -0.41734,-12.882885 1.66571,-34.149553 -9.2549,-62.219126 -32.25039,-82.894046 -3.89424,-3.50126 -7.7531,-6.36593 -8.57525,-6.36593 -0.82215,0 -2.33483,-1.17512 -3.36153,-2.61138 -1.02669,-1.43626 -4.75957,-4.37665 -8.29529,-6.5342 -3.53571,-2.15754 -9.91337,-6.44671 -14.17256,-9.53147 -4.2592,-3.08476 -9.08062,-5.63144 -10.71428,-5.65928 -1.63367,-0.0278 -4.57744,-0.96935 -6.54173,-2.09224 -4.20124,-2.40164 -9.35919,-3.05957 -5.71429,-0.72888 1.436,0.91822 -0.3228,1.08198 -5.33176,0.49642 -5.12873,-0.59955 -8.16998,-0.2967 -9.69019,0.96497 -1.65214,1.37115 -5.92721,1.61414 -16.81109,0.95552 -14.31089,-0.86601 -14.83103,-0.78661 -26.67187,4.07151 -11.12609,4.56488 -21.07604,6.97069 -13.2808,3.21118 3.31698,-1.59971 4.34928,-3.97072 1.7288,-3.97072 -0.81701,0 -3.91359,1.23873 -6.88128,2.75273 -5.69008,2.90287 -10.24998,7.24727 -7.60675,7.24727 0.83555,0 1.91649,-0.64285 2.40209,-1.42857 0.4856,-0.78571 1.86413,-1.42857 3.0634,-1.42857 1.2792,0 -1.11763,3.37799 -5.79859,8.17228 -4.3885,4.49476 -7.9791,8.89512 -7.9791,9.77859 0,0.88347 -1.35412,2.83094 -3.00916,4.32772 -4.06204,3.67362 -8.781,13.07707 -6.88042,13.7106 0.81664,0.27221 -0.41351,3.11548 -2.73367,6.31836 -2.32016,3.202893 -5.26702,7.851107 -6.54858,10.329371 -2.43722,4.713056 -6.21331,6.437585 -4.39227,2.005936 1.42816,-3.475554 4.82896,-15.652097 6.28405,-22.499997 0.66782,-3.14286 1.70845,-6.90426 2.31252,-8.35866 1.04095,-2.50628 0.87261,-2.52766 -3.22374,-0.40936 -4.33735,2.24293 -10.69525,11.1719 -10.15413,14.26034 0.15905,0.9078 -0.46601,4.22196 -1.38902,7.36482 -1.92529,6.555566 -2.17536,10.790266 -0.62272,10.545113 2.6891,-0.424596 2.95393,0.481743 1.40604,4.81203 l -1.65962,4.642857 -0.76607,-3.889167 c -0.5471,-2.777515 -1.30601,-3.551832 -2.65509,-2.708985 -2.94014,1.836875 -4.46828,10.979476 -4.50547,26.955295 -0.0346,14.887686 -1.82641,19.195271 -3.86244,9.285714 -1.80376,-8.779088 -1.02254,-24.750484 1.67704,-34.285714 1.3903,-4.910715 3.0729,-8.928572 3.73911,-8.928572 1.80728,0 7.23011,-11.302611 6.21267,-12.948851 -0.48346,-0.78227 0.8794,-4.42283 3.02859,-8.09014 2.53609,-4.3275 3.32706,-6.86135 2.25357,-7.21918 -2.60351,-0.86784 -1.96735,-3.39398 2.58139,-10.2506 2.32277,-3.50126 3.93354,-6.65559 3.5795,-7.00963 -0.91666,-0.91666 -6.70813,5.63871 -9.24351,10.46274 -1.17857,2.24245 -3.12766,4.33566 -4.3313,4.65157 -1.20365,0.31591 -3.4282,2.41898 -4.94345,4.67349 -2.92229,4.34803 -5.96688,4.47177 -3.65312,0.14847 0.87034,-1.62624 0.86696,-3.05021 -0.009,-3.92648 -0.8808,-0.8808 0.47322,-3.53398 3.76782,-7.38298 4.5646,-5.33271 5.81319,-7.78918 6.20292,-12.2036 0.0601,-0.68092 1.37138,-0.908 2.91392,-0.50462 2.87851,0.75275 6.48634,-2.06161 4.80203,-3.74592 -0.51699,-0.51699 -0.0798,-0.93998 0.97156,-0.93998 1.05136,0 4.65302,-2.86116 8.0037,-6.35812 5.96249,-6.2228 19.40098,-14.32566 21.04024,-12.6864 0.45501,0.45501 2.98352,-0.44493 5.61892,-1.99985 2.6354,-1.55493 8.28785,-3.64797 12.561,-4.6512 4.27315,-1.00324 8.41222,-2.22109 9.19793,-2.70634 3.24995,-2.00713 20.8508,-4.79326 32.85714,-5.20113 18.09354,-0.61465 19.40535,-0.80852 14.28572,-2.11125 -2.35715,-0.59979 -11.67857,-1.24498 -20.71429,-1.43375 -15.78796,-0.32984 -16.09434,-0.39392 -7.85714,-1.64337 4.71428,-0.71509 13.55508,-1.11884 19.64621,-0.89723 10.87423,0.39563 14.20459,-0.56615 7.85379,-2.2681 -1.76786,-0.47376 -8.03572,-0.9358 -13.92857,-1.02674 -9.55492,-0.14745 -10.21327,-0.32612 -6.0841,-1.6511 3.46921,-1.11322 8.84225,-0.8538 21.42857,1.03458 27.58997,4.13945 44.62504,9.09886 57.76706,16.81769 3.67562,2.15884 7.41,3.92516 8.2986,3.92516 0.8886,0 1.25392,0.58527 0.81182,1.30058 -0.44208,0.71532 2.9177,4.41175 7.4662,8.21429 11.36503,9.50115 21.9075,21.41785 29.82169,33.70902 3.66449,5.69115 7.8417,12.08449 9.2827,14.20743 3.0554,4.50133 8.64051,21.017966 11.2566,33.288717 2.39846,11.249963 2.4523,43.428867 0.0909,54.279967 -2.77616,12.756557 -9.99206,34.7424574 -14.06595,42.857143 -1.9723,3.928572 -5.91365,9.3977 -8.75858,12.153629 -2.84492,2.755928 -10.52624,10.956543 -17.0696,18.223585 -18.26127,20.2809 -46.4855,37.17 -66.16374,39.591715 l -6.22495,0.766085 8.30357,-3.016314 z m -8.10943,-8.332914 c 2.21993,-1.3779 1.86001,-1.498143 -2.1633,-0.7227 -2.65446,0.511628 -10.69017,1.462457 -17.85714,2.112957 l -13.03084,1.182729 15.19414,-0.460043 c 8.35677,-0.253015 16.39249,-1.203843 17.85714,-2.112943 z m 111.46626,-141.885786 c -0.3963,-0.982143 -0.72056,-0.178571 -0.72056,1.785714 0,1.964286 0.32426,2.767858 0.72056,1.785715 0.3963,-0.982143 0.3963,-2.589286 0,-3.571429 z m -2.29936,-15.873303 c -1.50467,-3.95757 -3.32785,-5.322181 -2.17335,-1.626697 0.3682,1.178571 1.00601,3.199154 1.41737,4.490183 0.41134,1.29103 1.0722,2.023043 1.46854,1.626697 0.39634,-0.396344 0.0757,-2.416927 -0.71256,-4.490183 z m -131.14675,-76.144244 c -0.98215,-0.3963 -2.58929,-0.3963 -3.57143,0 -0.98215,0.39631 -0.17857,0.72055 1.78571,0.72055 1.96429,0 2.76786,-0.32424 1.78572,-0.72055 z"
       id="path968"
       transform="scale(0.26458333)" />
    <path
       style="fill:#ffffff;stroke:#ffffff;stroke-width:5.39933"
       d="m 23.011367,149.69307 c -2.019426,-2.59291 -4.673366,-17.48078 -4.673366,-26.2163 0,-9.37169 2.914831,-23.4492 8.363522,-40.392574 2.305324,-7.168692 3.912437,-13.033986 3.571363,-13.033986 -0.341075,0 -3.078566,1.254197 -6.083313,2.787106 -5.428983,2.76966 -5.482277,2.769311 -8.514518,-0.05565 -3.527115,-3.286007 -3.55328,-3.409973 -1.521191,-7.206965 2.399493,-4.483496 13.834472,-10.998039 26.326995,-14.998572 23.972372,-7.676774 43.743782,-4.10138 49.519187,8.95488 2.351287,5.315476 2.509677,7.0658 1.109831,12.264432 -2.6835,9.965761 -7.83444,18.718721 -14.786883,25.127258 -3.606031,3.323921 -6.556421,7.006231 -6.556421,8.182911 0,1.17668 3.885841,9.61633 8.635203,18.75478 4.74936,9.13844 8.433981,17.64461 8.188047,18.90259 -0.255326,1.30601 -1.968043,2.35389 -3.992346,2.44263 -1.949854,0.0855 -5.342986,0.64481 -7.54029,1.24299 -3.380268,0.92022 -4.740528,0.34217 -8.838798,-3.7561 -4.214142,-4.21414 -10.73753,-16.2497 -10.73753,-19.81058 0,-0.66943 -0.610376,-2.82255 -1.356392,-4.78472 -1.271166,-3.34342 -1.652657,-3.46146 -6.071428,-1.87871 -2.59327,0.92887 -5.120706,2.24592 -5.616523,2.92677 -0.495817,0.68085 -1.343465,6.30467 -1.883662,12.49737 -0.903968,10.36291 -1.258755,11.32887 -4.455657,12.13124 -1.910414,0.47949 -3.473481,1.7823 -3.473481,2.89514 0,1.11284 -1.648993,2.65029 -3.664429,3.41656 -4.552641,1.73091 -4.280144,1.74889 -5.94792,-0.3925 z M 57.322544,86.513749 C 67.374004,76.560714 71.375776,68.710504 68.292116,64.994921 66.470739,62.800296 54.04074,62.123949 45.804037,63.771289 l -4.319677,0.863935 3.50946,5.171479 c 2.150676,3.169198 3.202656,6.291643 2.717046,8.064636 -1.832055,6.688951 -2.569039,17.893157 -1.176966,17.893157 0.79553,0 5.65042,-4.162836 10.788644,-9.250747 z"
       id="path850"
       transform="scale(0.26458333)" />
    <path
       style="fill:#ffffff;stroke:#ffffff;stroke-width:5.39933"
       d="m 119.51882,148.75579 c -1.36204,-2.18098 -2.39725,-2.45809 -5.20079,-1.39219 -1.92515,0.73194 -4.64697,0.96685 -6.04849,0.52202 -1.40153,-0.44482 -2.9617,-0.13977 -3.46705,0.67791 -1.70605,2.76044 -5.097016,1.51149 -6.629825,-2.44189 -1.082702,-2.79247 -1.062271,-10.12548 0.07065,-25.35714 1.376676,-18.50887 2.538225,-26.102934 6.847825,-44.77011 0.65395,-2.832591 0.25281,-3.298067 -2.6337,-3.056156 -1.87284,0.156959 -4.208724,0.21422 -5.190867,0.127249 -1.894638,-0.167776 -2.496276,-7.542806 -0.757195,-9.281887 0.565686,-0.565686 1.047829,-2.440686 1.071429,-4.166667 0.05337,-3.903301 8.967683,-7.140736 28.291843,-10.274829 16.39132,-2.658431 22.67277,-2.566339 31.75107,0.465499 6.27716,2.096355 7.18796,2.904886 7.51502,6.671182 0.2047,2.357143 -0.13162,5.051979 -0.74736,5.988525 -0.82158,1.249631 -31.08405,6.154333 -37.97281,6.154333 -0.40644,0 -0.63625,3.053571 -0.51069,6.785714 0.12556,3.732143 -0.33061,9.294948 -1.01371,12.36179 -1.20497,5.409841 -1.14021,5.548387 2.17234,4.647288 1.87789,-0.510832 9.39494,-1.963784 16.70455,-3.22878 12.20661,-2.112465 13.49702,-2.112827 15.82678,-0.0044 1.39511,1.262556 3.27727,2.295558 4.18257,2.295558 2.28449,0 3.85136,7.106923 2.15854,9.790591 -0.88036,1.39567 -7.38348,3.39572 -17.71036,5.44687 -8.97554,1.78275 -19.21202,4.09195 -22.74773,5.13157 l -6.42857,1.89021 -0.42209,10.41583 c -0.38333,9.45933 -0.18654,10.34432 2.14286,9.63707 10.24407,-3.11031 44.16921,-8.52791 46.065,-7.35625 1.37184,0.84785 4.33354,9.83101 4.34912,13.19137 0.0141,3.06495 -8.90336,6.01001 -27.13489,8.9614 -21.88159,3.54227 -22.4241,3.546 -24.53347,0.16835 z"
       id="path852"
       transform="scale(0.26458333)" />
    <path
       style="fill:#ffffff;stroke:#ffffff;stroke-width:5.39933"
       d="m 198.24106,152.22523 c -1.91097,-0.99716 -6.36734,-2.75778 -9.90306,-3.9125 -10.1328,-3.30923 -8.82398,-6.38671 5.71429,-13.43624 20.18695,-9.78853 23.48202,-16.61687 10.29027,-21.32442 -27.18053,-9.69951 -33.03306,-16.840051 -25.89238,-31.590723 5.92006,-12.22923 25.67786,-25.885637 45.37294,-31.361355 5.2274,-1.453348 9.57484,-1.920015 11.17763,-1.199839 1.44263,0.648214 4.74904,1.289306 7.34759,1.424649 7.79237,0.405859 8.25429,1.854207 5.4091,16.960411 -2.74202,14.558416 -3.19967,15.12214 -12.27658,15.12214 -8.78245,0 -10,-0.975254 -10,-8.009984 0,-3.602445 -0.66775,-6.27573 -1.56758,-6.27573 -0.86217,0 -6.55541,2.594957 -12.65166,5.766572 -9.63399,5.012153 -14.35219,9.490215 -14.35219,13.621719 0,0.983106 6.21695,3.204941 17.24059,6.1615 19.41516,5.207179 29.79992,15.21382 27.65486,26.64792 -1.28501,6.84971 -8.65513,16.00542 -20.16548,25.05105 -10.42334,8.19138 -16.642,9.88033 -23.39834,6.35483 z"
       id="path854"
       transform="scale(0.26458333)" />
    <path
       style="fill:#ffffff;stroke:#ffffff;stroke-width:5.39933"
       d="m 268.31571,150.26528 c -14.90036,-7.90883 -16.94863,-38.1458 -4.3436,-64.121117 10.3182,-21.262833 24.35091,-34.443785 40.21128,-37.770533 9.86078,-2.06832 14.779,-0.841884 20.81025,5.189358 5.1617,5.161708 6.13583,9.868246 2.46738,11.921218 -2.72958,1.527548 -1.68078,6.22254 2.2275,9.971474 4.87341,4.674714 6.05541,11.701339 3.78799,22.518299 -1.13495,5.414391 -1.76779,10.322901 -1.40631,10.907781 1.11036,1.79661 -11.15828,20.4157 -19.15383,29.06814 -12.54778,13.57867 -32.06648,18.96828 -44.60066,12.31538 z m 19.26762,-19.39184 c 9.107,-3.80515 17.34105,-12.98541 22.28659,-24.84764 3.42888,-8.224431 9.89665,-27.655861 9.89665,-29.732999 0,-0.10729 -1.27797,-0.529271 -2.83994,-0.937734 -1.56197,-0.408464 -3.45977,-2.372926 -4.21733,-4.365471 -1.65918,-4.363957 -5.55089,-6.653672 -11.30892,-6.653672 -10.99494,0 -27.74268,31.78011 -27.96378,53.063386 -0.0771,7.42365 0.4944,10.1474 2.62281,12.5 3.20974,3.5478 5.00171,3.69928 11.52392,0.97413 z"
       id="path856"
       transform="scale(0.26458333)" />
    <path
       style="fill:#ffffff;stroke:#ffffff;stroke-width:5.39933"
       d="m 277.62372,155.03997 c -0.78572,-0.24977 -3.18464,-0.84108 -5.33095,-1.31401 -6.93359,-1.52782 -13.73605,-8.91221 -16.28409,-17.67717 -3.0006,-10.32171 -1.9544,-29.00505 2.31045,-41.260447 6.47255,-18.599432 21.29495,-37.431367 34.88028,-44.315575 10.1739,-5.155506 22.00785,-5.993301 28.44664,-2.013905 8.5863,5.306621 11.63383,12.577634 7.82679,18.673674 -1.40062,2.242747 -1.28316,3.243094 0.62888,5.355873 1.29315,1.428914 3.56975,5.467263 5.05911,8.974106 l 2.70793,6.37608 0.98382,-8.37083 c 1.43348,-12.19666 6.69628,-32.138619 9.12164,-34.563976 1.23917,-1.239172 3.2602,-1.723097 4.95274,-1.185906 3.62201,1.14958 8.26765,5.085744 8.26993,7.006956 9.6e-4,0.807525 1.6081,3.336074 3.57143,5.618997 1.96332,2.282924 3.56916,4.211496 3.56851,4.285714 -6.4e-4,0.07422 -1.00173,4.93102 -2.22463,10.792892 -3.46577,16.612801 -4.95033,38.299777 -3.38056,49.384347 0.76212,5.38155 1.5679,9.96686 1.79063,10.18959 0.58513,0.58513 9.91134,-2.17073 12.08963,-3.57245 3.77612,-2.4299 13.65585,-28.872076 19.78219,-52.945137 6.6993,-26.324497 7.02477,-27.285726 9.23911,-27.285726 2.85834,0 15.13737,13.804823 15.94319,17.924282 1.13273,5.790711 -10.78606,50.782791 -15.67253,59.162001 -5.43703,9.32332 -19.76761,23.77014 -27.09973,27.31956 -8.25102,3.99425 -24.83472,3.53579 -30.69431,-0.84856 -8.39251,-6.27956 -13.68173,-26.79276 -12.15188,-47.12871 l 0.75229,-10.000001 -1.78368,9.502261 c -3.29577,17.55777 -19.79092,39.22663 -35.58719,46.74916 -8.13936,3.87614 -18.22622,6.27616 -21.71564,5.16691 z m 16.31869,-30.41431 c 7.01004,-5.61827 13.48861,-16.84594 18.63639,-32.297757 4.92327,-14.777954 5.16306,-16.563407 2.22446,-16.563407 -1.1584,0 -3.06228,-1.84891 -4.23086,-4.108689 -2.41247,-4.665208 -7.65435,-6.286754 -12.55195,-3.882881 -4.66115,2.287818 -14.51283,17.602308 -18.14895,28.212648 -3.93097,11.470736 -5.3994,26.653296 -3.00972,31.118446 1.48267,2.7704 2.54016,3.14737 6.86178,2.44607 2.80994,-0.45599 7.40842,-2.67199 10.21885,-4.92443 z"
       id="path858"
       transform="scale(0.26458333)" />
    <path
       style="fill:#ffffff;stroke:#ffffff;stroke-width:5.39933"
       d=""
       id="path860"
       transform="scale(0.26458333)" />
    <path
       style="fill:#ffffff;stroke:#ffffff;stroke-width:5.39933"
       d=""
       id="path862"
       transform="scale(0.26458333)" />
    <path
       style="fill:#ffffff;stroke:#ffffff;stroke-width:5.39933"
       d="m 435.90432,149.69307 c -2.20878,-2.911 -4.70918,-16.38298 -4.70918,-25.37274 0,-10.17102 2.77766,-23.8662 8.36353,-41.236134 2.30532,-7.168692 3.91243,-13.033986 3.57136,-13.033986 -0.34108,0 -3.07857,1.254197 -6.08331,2.787106 -5.42899,2.76966 -5.48228,2.769311 -8.51452,-0.05565 -3.52712,-3.286007 -3.55328,-3.409973 -1.52119,-7.206965 2.39949,-4.483496 13.83447,-10.998039 26.32699,-14.998572 23.97237,-7.676774 43.74378,-4.10138 49.51919,8.95488 2.35129,5.315476 2.50968,7.0658 1.10983,12.264432 -2.6835,9.965761 -7.83444,18.718721 -14.78688,25.127258 -3.60603,3.323921 -6.55642,6.989191 -6.55642,8.145051 0,1.15585 3.94031,9.78368 8.75624,19.17296 9.00826,17.56274 9.78758,22.01252 3.74909,21.40658 -1.77079,-0.17769 -5.01742,0.17462 -7.21472,0.78292 -3.39012,0.93851 -4.72858,0.37251 -8.8388,-3.73771 -4.21414,-4.21414 -10.73753,-16.2497 -10.73753,-19.81058 0,-0.66943 -0.61037,-2.82255 -1.35639,-4.78472 -1.27117,-3.34342 -1.65266,-3.46146 -6.07143,-1.87871 -2.59327,0.92887 -5.1207,2.24592 -5.61652,2.92677 -0.49582,0.68085 -1.34347,6.30467 -1.88366,12.49737 -0.90397,10.36291 -1.25876,11.32887 -4.45566,12.13124 -1.91041,0.47949 -3.47348,1.7823 -3.47348,2.89514 0,1.11284 -1.64899,2.65029 -3.66443,3.41656 -4.55364,1.73129 -4.28721,1.74898 -5.91211,-0.3925 z m 34.27537,-63.179321 c 10.05146,-9.953035 14.05323,-17.803245 10.96957,-21.518828 -1.82138,-2.194625 -14.25138,-2.870972 -22.48808,-1.223632 l -4.31968,0.863935 3.50946,5.171479 c 2.15068,3.169198 3.20266,6.291643 2.71705,8.064636 -1.83206,6.688951 -2.56904,17.893157 -1.17697,17.893157 0.79553,0 5.65042,-4.162836 10.78865,-9.250747 z"
       id="path864"
       transform="scale(0.26458333)" />
    <path
       style="fill:#ffffff;stroke:#ffffff;stroke-width:5.39933"
       d="m 520.31873,150.18446 c -9.87299,-6.02036 -13.44601,-25.25409 -8.3951,-45.19125 3.07658,-12.144026 12.56744,-30.748171 20.62608,-40.431616 12.99717,-15.617685 31.09809,-23.263269 42.38993,-17.904938 8.75539,4.154703 12.89932,17.631327 8.9261,29.028895 -1.57861,4.528422 -1.76038,4.611338 -8.04331,3.669155 -11.24532,-1.68634 -13.19871,-3.203046 -13.19871,-10.248089 0,-6.97473 -1.33975,-7.659361 -5.84126,-2.984978 -15.81892,16.426418 -28.44446,42.515831 -28.44446,58.777631 0,4.17373 0.53432,5.15094 2.81641,5.15094 4.90977,0 17.43309,-6.37085 32.12615,-16.34319 13.89055,-9.42767 14.28257,-9.58985 16.51539,-6.83243 2.11686,2.61422 2.59239,2.66451 6.38835,0.6756 3.03587,-1.59065 4.73602,-1.75245 6.54481,-0.62284 2.16322,1.35096 2.55856,0.60559 3.44597,-6.49694 0.55132,-4.412643 2.14859,-12.388721 3.54948,-17.724624 l 2.54709,-9.701643 -4.09199,0.476441 c -5.28856,0.615762 -7.65126,-2.204788 -6.14883,-7.340394 1.25843,-4.30159 1.60547,-5.896876 1.85667,-8.534636 0.36908,-3.875596 36.85369,-11.209812 49.5405,-9.958741 3.97808,0.392286 9.60307,1.703585 12.5,2.913998 4.64477,1.940705 5.26714,2.790215 5.26714,7.189336 0,2.743723 -0.62717,5.3762 -1.39371,5.849952 -1.06526,0.658358 -32.97598,4.944534 -37.29312,5.009125 -0.45633,0.0069 -0.77776,3.387415 -0.71429,7.512415 0.0635,4.125 -0.43699,9.67661 -1.11215,12.336911 -1.16787,4.60174 -1.06313,4.795643 2.1543,3.988121 1.86002,-0.466835 9.38384,-1.884565 16.71961,-3.150511 12.51691,-2.160063 13.50531,-2.150101 16.05999,0.161861 1.49723,1.35497 2.72223,1.963805 2.72223,1.352965 0,-0.61084 0.96429,-0.310332 2.14286,0.667795 2.59976,2.157602 2.8233,9.100699 0.35714,11.092129 -0.98214,0.79308 -4.67857,1.89844 -8.21428,2.45635 -3.53572,0.55791 -13.27442,2.59782 -21.64156,4.53313 -17.06198,3.94641 -16.87551,3.75422 -16.91037,17.42838 -0.0169,6.64895 0.30219,7.52939 2.43285,6.71178 1.34879,-0.51758 12.00966,-2.59896 23.69082,-4.62529 24.04687,-4.17141 24.4658,-4.07264 26.08708,6.15084 0.8862,5.5882 0.69618,6.00886 -3.70668,8.20529 -4.4925,2.24115 -20.69573,5.45308 -37.32246,7.39833 -7.28753,0.85261 -8.24414,0.64776 -9.70284,-2.07784 -1.34858,-2.51986 -2.10867,-2.76123 -4.56144,-1.44855 -1.61877,0.86634 -4.29047,1.22284 -5.93711,0.79223 -1.64665,-0.4306 -3.83093,-0.0883 -4.85396,0.76079 -1.3454,1.11658 -2.45295,1.05164 -4.00291,-0.23471 -1.68592,-1.39919 -2.14285,-5.41734 -2.14285,-18.84363 V 112.7128 l -4.25546,3.03015 c -2.79178,1.98793 -4.14302,4.0918 -3.92857,6.11679 0.56875,5.37053 -30.0397,24.99696 -45.3874,29.10282 -9.77409,2.6148 -14.92394,2.41605 -20.16213,-0.7781 z"
       id="path866"
       transform="scale(0.26458333)" />
    <path
       style="fill:#ffffff;stroke:#ffffff;stroke-width:5.39933"
       d="m 694.8163,152.09833 c -2.17126,-1.12647 -5.12204,-2.04812 -6.55728,-2.04812 -1.43525,0 -3.00685,-0.64286 -3.49245,-1.42857 -0.4856,-0.78572 -2.0619,-1.42857 -3.50289,-1.42857 -3.31853,0 -5.04802,-4.26021 -2.62103,-6.45628 1.01102,-0.91482 5.37392,-3.13191 9.69535,-4.92688 16.128,-6.69898 23.84418,-15.12996 17.8552,-19.50921 -1.41137,-1.03201 -5.84545,-2.93899 -9.85352,-4.23772 -18.17663,-5.88976 -26.52892,-13.886139 -24.43971,-23.398257 1.44882,-6.596434 8.78325,-16.443542 16.92779,-22.727003 12.71787,-9.811768 36.28658,-19.074737 41.98388,-16.500495 1.3895,0.627825 4.59859,1.251139 7.13131,1.385143 6.43196,0.340311 9.38605,3.116877 8.18515,7.693267 -0.53075,2.022587 -1.84873,7.812465 -2.92885,12.866395 -1.08011,5.053929 -2.77647,9.704799 -3.76969,10.335267 -0.99321,0.630467 -4.8368,1.156149 -8.5413,1.16818 -7.53969,0.02449 -9.69312,-2.171387 -9.69312,-9.884208 0,-2.408796 -0.72728,-4.37963 -1.61618,-4.37963 -0.88891,0 -6.6504,2.682337 -12.80331,5.960748 -8.33423,4.44066 -11.5434,6.98277 -12.58421,9.968422 -0.76839,2.20422 -0.9343,4.293687 -0.36868,4.64326 0.56562,0.349572 7.11651,2.332734 14.55754,4.407025 15.20793,4.239429 23.0393,8.691426 27.15099,15.434866 6.90257,11.32068 0.51065,22.86799 -22.29565,40.27813 -6.32737,4.83026 -12.6372,5.78404 -18.41934,2.78424 z"
       id="path868"
       transform="scale(0.26458333)" />
  </g>
</svg>
