<?xml version="1.0" encoding="UTF-8" standalone="no"?>
<svg
   xmlns:dc="http://purl.org/dc/elements/1.1/"
   xmlns:cc="http://creativecommons.org/ns#"
   xmlns:rdf="http://www.w3.org/1999/02/22-rdf-syntax-ns#"
   xmlns:svg="http://www.w3.org/2000/svg"
   xmlns="http://www.w3.org/2000/svg"
   xmlns:sodipodi="http://sodipodi.sourceforge.net/DTD/sodipodi-0.dtd"
   xmlns:inkscape="http://www.inkscape.org/namespaces/inkscape"
   width="50mm"
   height="50mm"
   viewBox="0 0 50 50"
   version="1.1"
   id="svg8"
   inkscape:version="1.0.1 (3bc2e813f5, 2020-09-07)"
   sodipodi:docname="twitterlogo.svg">
  <defs
     id="defs2" />
  <sodipodi:namedview
     id="base"
     pagecolor="#ffffff"
     bordercolor="#666666"
     borderopacity="1.0"
     inkscape:pageopacity="0.0"
     inkscape:pageshadow="2"
     inkscape:zoom="0.7"
     inkscape:cx="-6.4158229"
     inkscape:cy="120.39644"
     inkscape:document-units="mm"
     inkscape:current-layer="layer1"
     inkscape:document-rotation="0"
     showgrid="false"
     inkscape:window-width="1920"
     inkscape:window-height="1003"
     inkscape:window-x="1920"
     inkscape:window-y="27"
     inkscape:window-maximized="1" />
  <metadata
     id="metadata5">
    <rdf:RDF>
      <cc:Work
         rdf:about="">
        <dc:format>image/svg+xml</dc:format>
        <dc:type
           rdf:resource="http://purl.org/dc/dcmitype/StillImage" />
        <dc:title></dc:title>
      </cc:Work>
    </rdf:RDF>
  </metadata>
  <g
     inkscape:label="Layer 1"
     inkscape:groupmode="layer"
     id="layer1">
    <rect
       style="fill:#000000;stroke:#000000;stroke-width:1.43622"
       id="rect863"
       width="48.793159"
       height="48.793159"
       x="0.75144833"
       y="0.69083565"
       rx="6.6066232" />
    <path
       style="fill:#ffffff;stroke:none;stroke-width:0.725402"
       d="M 13.6439,44.551386 C 10.749251,44.250554 7.9116346,43.394049 4.9145687,41.916564 l -1.8198659,-0.897165 0.9561935,-0.04193 c 3.641384,-0.159555 6.3719297,-0.787385 8.9516007,-2.058241 1.404496,-0.691915 3.218618,-1.840591 3.227494,-2.043587 0.0029,-0.06233 -0.591064,-0.219728 -1.31953,-0.349906 -1.946685,-0.347896 -3.502343,-1.161344 -4.906667,-2.565653 -0.9563948,-0.95641 -2.2137357,-2.816864 -2.2137357,-3.275636 0,-0.04366 0.7988988,-0.114468 1.7753434,-0.157181 2.3128353,-0.101254 2.6517693,-0.30744 1.2403643,-0.754436 C 8.6388658,29.086559 6.4130944,27.202322 5.3941952,25.19161 4.9157032,24.247365 4.221936,21.396018 4.4220018,21.195953 c 0.050411,-0.05041 0.3905233,0.05041 0.75597,0.223778 0.6728846,0.3193 2.3298976,0.694586 3.0668233,0.694586 0.3213547,0 0.2019042,-0.175334 -0.5933179,-0.870969 -1.1310969,-0.989456 -1.8702344,-2.015766 -2.5519231,-3.54339 -0.414623,-0.929136 -0.4713826,-1.33158 -0.4736948,-3.358765 -0.00287,-1.990102 0.05946,-2.453944 0.4538318,-3.412508 L 5.5361514,9.8193467 7.4788002,11.70258 c 3.3237058,3.222079 6.5771378,5.204755 10.7540308,6.553612 1.460897,0.471785 5.026205,1.171124 5.970463,1.171124 h 0.601002 l 0.0043,-2.063234 c 0.0043,-2.444091 0.383831,-3.660901 1.738906,-5.578 1.360994,-1.9254582 3.161743,-3.0533524 5.71786,-3.5813222 0.863573,-0.1783788 1.850372,-0.263791 2.291809,-0.198371 2.526373,0.3744376 3.803778,0.8961741 5.335165,2.1790942 0.859952,0.720409 0.955245,0.754117 1.631405,0.576916 1.327959,-0.347997 2.95543,-0.9403522 3.903408,-1.4207398 0.517644,-0.2622974 0.941171,-0.3917297 0.941171,-0.2875892 0,0.5554016 -1.61045,2.861329 -2.48613,3.559765 -0.264696,0.211109 -0.693537,0.566101 -0.952976,0.788873 l -0.471698,0.405001 1.139699,-0.15922 c 0.626839,-0.08761 1.765879,-0.365992 2.531199,-0.618682 0.765319,-0.252703 1.391483,-0.377094 1.391483,-0.276443 0,0.100679 -0.97979,1.156445 -2.177312,2.346226 l -2.177328,2.163239 -0.108579,2.569689 c -0.177775,4.20704 -1.19373,7.588927 -3.625987,12.0702 -1.091558,2.011114 -3.558055,5.002191 -5.444877,6.602904 -5.665884,4.806706 -12.556778,6.854759 -20.341406,6.04572 z"
       id="path865" />
  </g>
</svg>
